{"glyphs":{"0":{"ha":910,"x_min":0,"x_max":1145,"o":"m 1055 1190 l 1063 1190 q 1104 1165 1072 1190 q 1126 1124 1120 1165 l 1123 1111 q 1137 1078 1133 1111 q 1145 1073 1145 1078 l 1145 1019 l 1139 997 l 1139 986 l 1142 978 l 1139 964 l 1139 940 l 1134 932 l 1134 921 l 1139 913 l 1139 902 q 1120 880 1139 885 q 1072 753 1090 817 q 1042 682 1064 745 q 1017 631 1029 667 q 1006 601 1006 631 l 977 563 q 933 517 977 538 q 798 330 831 387 q 711 248 752 275 q 662 229 711 235 q 627 199 631 216 q 564 167 621 191 q 488 129 543 147 q 431 91 458 98 q 247 9 417 73 l 187 -7 l 171 -7 q 33 83 70 -7 l 35 91 l 33 94 l 30 94 l 30 88 l 27 88 l 22 94 l 22 99 l 27 99 l 16 115 l 16 142 q 0 191 0 154 l 8 199 l 8 202 l 3 210 l 3 216 q 24 267 9 221 q 30 278 30 267 l 27 286 l 43 313 l 41 327 l 49 330 l 46 332 l 46 343 q 57 362 57 353 l 54 373 q 60 387 60 373 q 79 427 69 388 q 87 438 87 427 q 136 541 136 522 l 141 541 q 157 563 144 558 q 179 598 157 572 l 179 604 l 176 606 l 176 609 q 206 647 187 609 q 247 696 219 671 q 260 718 247 709 q 298 764 260 724 q 355 815 342 815 q 445 910 355 832 q 494 951 475 951 q 572 1016 551 1007 q 624 1043 576 1029 q 675 1081 627 1051 q 705 1092 675 1085 q 735 1105 705 1103 q 803 1138 745 1121 q 952 1173 832 1158 l 977 1165 l 982 1171 l 987 1171 l 1001 1162 l 1012 1165 q 1069 1138 1069 1148 l 1066 1130 l 1074 1124 l 1077 1124 q 1082 1138 1077 1138 q 1099 1122 1090 1122 l 1099 1116 q 1088 1108 1099 1108 q 1115 1073 1088 1095 l 1115 1070 l 1107 1059 l 1109 1059 q 1120 1076 1117 1059 l 1104 1103 l 1104 1105 l 1109 1114 q 1090 1160 1100 1118 l 1050 1184 l 1055 1190 m 955 1135 l 955 1130 q 987 1105 963 1130 q 996 1111 987 1111 l 996 1122 q 966 1133 996 1129 l 963 1135 l 955 1135 m 1006 1116 l 1004 1114 l 1004 1111 l 1006 1100 l 993 1097 l 993 1092 l 1004 1092 l 1004 1070 l 998 1070 l 998 1076 l 993 1076 q 979 1054 993 1069 l 982 1043 l 979 1024 q 993 994 993 1004 l 993 991 l 987 983 l 987 978 l 996 964 q 947 780 996 911 l 949 777 l 949 772 q 871 633 897 695 q 854 604 861 633 l 841 601 l 836 601 l 830 606 q 849 617 830 617 l 849 620 l 838 620 l 838 625 q 854 650 854 638 l 852 658 q 879 720 862 663 q 895 758 884 720 l 901 758 l 898 772 l 911 788 l 909 796 l 917 802 l 914 804 l 914 810 q 928 842 928 819 l 939 848 l 933 883 q 952 897 952 888 l 947 910 l 952 916 l 955 967 l 949 1000 l 949 1027 q 903 1067 926 1060 l 868 1065 l 849 1067 l 833 1057 l 811 1057 l 795 1051 l 817 967 l 814 959 l 817 956 l 819 948 l 822 948 l 819 929 l 819 924 l 827 886 q 798 842 827 861 q 735 788 777 808 l 703 788 q 692 780 703 780 l 692 774 l 689 774 q 597 818 628 787 l 578 848 q 624 926 580 874 l 627 940 l 627 945 l 613 954 q 608 940 608 954 q 567 913 593 939 q 532 880 552 913 q 488 842 504 842 q 467 821 467 841 q 426 783 426 808 l 412 780 l 415 766 l 412 764 l 410 764 l 401 766 l 401 747 q 391 734 391 747 q 342 682 382 734 q 320 650 328 682 q 301 631 301 650 l 301 628 l 304 625 l 304 623 l 301 620 l 298 623 l 293 623 q 285 604 288 623 l 277 604 l 279 601 l 279 598 l 220 525 l 220 522 l 222 509 q 174 435 201 509 q 130 368 130 393 l 125 368 q 111 349 125 358 q 95 311 103 311 l 92 311 l 95 308 l 95 300 l 73 267 l 79 256 l 68 197 q 81 140 75 185 q 98 104 98 121 l 111 104 q 179 64 145 104 l 201 56 l 203 58 l 203 61 l 201 64 l 201 66 l 220 72 l 241 64 l 252 66 l 269 64 q 336 94 292 64 q 385 121 360 94 l 396 121 l 399 118 l 401 118 q 407 132 401 132 q 453 167 421 132 q 545 218 461 167 q 613 259 578 218 q 700 324 635 262 q 719 343 713 324 q 760 387 724 343 q 825 449 791 387 q 884 530 831 449 q 917 585 898 564 q 944 633 917 593 q 968 677 944 649 l 971 693 l 968 707 l 971 709 l 990 709 q 996 723 991 723 l 990 736 l 993 736 q 1006 755 998 736 l 1006 761 q 996 766 996 761 l 996 772 q 1015 785 1015 772 q 1028 804 1019 785 l 1025 807 l 1025 818 l 1031 823 l 1034 821 l 1036 821 q 1055 867 1042 867 q 1072 907 1055 876 l 1069 921 q 1085 951 1079 921 l 1082 964 q 1104 997 1095 964 l 1101 1008 l 1107 1021 q 1093 1043 1093 1021 l 1090 1040 l 1085 1040 l 1080 1046 l 1080 1048 l 1082 1051 l 1082 1054 q 1074 1076 1074 1054 q 1034 1111 1063 1076 l 1006 1116 m 719 1005 l 694 1008 q 654 981 671 987 q 640 967 654 967 l 640 964 l 651 962 l 689 970 q 722 956 722 963 l 722 948 l 716 943 l 708 948 l 697 948 q 673 926 683 948 l 681 905 l 670 888 q 686 845 670 845 l 703 850 l 746 850 q 770 891 760 854 l 762 921 l 762 926 l 779 943 l 779 954 q 751 1013 779 1002 l 746 1013 q 719 1005 733 1013 m 627 956 l 627 948 l 629 948 l 635 954 l 632 956 l 627 956 m 1001 826 l 1004 823 l 1004 818 l 998 810 l 998 799 l 1001 796 l 1001 793 q 985 766 988 793 l 977 761 l 971 761 l 963 769 q 979 796 979 769 q 1001 826 987 826 m 966 734 l 966 723 q 958 718 966 718 l 955 715 l 955 712 l 963 696 l 960 693 l 955 693 l 947 699 l 944 699 l 947 680 l 941 671 l 947 652 l 944 652 q 930 639 930 652 q 909 617 930 631 l 892 582 q 865 555 886 555 l 871 544 q 819 492 871 538 q 789 468 819 484 q 762 446 781 446 l 741 452 l 741 433 l 724 422 l 711 422 q 705 408 711 408 l 703 411 l 703 430 q 713 435 703 435 q 735 449 713 449 l 735 452 q 724 457 724 452 q 765 481 758 481 l 773 481 q 803 506 773 504 q 830 538 812 538 l 857 566 q 879 593 857 583 l 879 601 l 873 609 l 876 612 l 879 609 l 882 609 q 887 625 887 609 q 901 639 901 625 l 901 642 l 906 642 l 914 636 l 917 639 l 917 642 q 909 647 909 642 l 909 658 l 917 671 l 914 680 q 949 728 924 680 l 966 734 m 822 587 l 825 576 l 836 585 l 849 585 l 849 582 q 838 576 849 576 q 811 549 825 549 l 806 557 l 806 566 q 822 587 806 582 m 689 430 l 689 425 l 686 422 l 686 419 l 689 408 l 675 395 l 667 403 l 667 414 q 689 430 669 420 m 90 94 q 122 66 93 66 l 122 80 q 92 94 101 85 l 90 94 z "},"1":{"ha":651,"x_min":0,"x_max":920,"o":"m 892 1152 l 920 1146 l 920 1116 q 817 1000 817 1012 l 822 994 q 806 975 806 994 l 803 975 l 800 978 l 798 978 q 789 959 794 959 l 787 959 l 784 962 l 781 962 q 770 940 781 947 q 724 891 770 930 l 719 872 l 722 869 l 722 867 q 675 810 697 852 q 635 747 644 781 q 618 720 626 747 l 621 709 q 572 642 587 679 q 545 614 564 642 q 537 595 541 614 q 532 587 532 595 q 483 522 486 544 l 483 519 l 486 517 l 486 514 q 456 484 464 514 q 399 411 439 475 q 388 400 399 400 l 391 397 l 391 389 q 377 381 391 381 l 377 368 l 366 354 l 366 351 l 372 351 l 372 346 l 353 327 l 355 319 q 328 294 347 305 q 288 224 317 257 l 260 164 l 236 69 q 258 42 258 58 q 152 12 258 19 l 43 -7 l 24 -4 l 3 -7 l 0 -4 l 0 -1 l 5 4 q 14 15 14 4 q 24 39 21 15 q 73 88 43 62 q 92 110 73 110 l 92 113 l 87 129 q 95 148 93 129 l 90 148 l 90 153 l 117 191 q 146 229 138 205 l 144 237 l 171 262 q 184 281 171 271 q 244 357 184 294 q 331 476 250 391 l 420 609 q 562 774 426 609 q 743 994 562 785 l 741 994 q 643 935 699 978 l 583 897 q 513 867 536 867 q 483 853 503 867 q 469 840 469 853 l 467 842 l 458 842 q 415 810 446 842 l 401 815 l 401 812 l 404 804 l 401 802 l 399 802 l 366 810 l 363 810 q 358 802 363 802 l 355 802 q 347 815 349 802 l 328 815 l 326 818 l 323 818 l 326 821 l 326 823 l 323 831 q 336 856 336 831 q 353 886 345 856 l 355 888 l 358 888 l 361 886 l 363 886 l 372 888 l 372 883 q 420 916 420 884 l 410 924 l 410 926 q 513 975 438 954 q 521 983 521 975 l 524 986 l 532 986 l 534 983 l 537 983 q 583 1010 566 1010 l 624 1040 l 629 1040 l 632 1038 l 635 1038 l 640 1043 l 654 1043 q 659 1051 654 1051 l 667 1043 l 675 1043 q 708 1054 683 1049 q 762 1084 711 1069 l 800 1116 l 808 1114 q 860 1143 808 1124 q 892 1152 860 1150 m 553 867 l 562 867 l 567 861 l 567 856 q 556 848 567 848 l 553 845 l 553 840 q 572 831 553 835 l 572 821 q 513 791 572 803 l 502 804 l 502 807 q 518 826 502 826 l 518 842 q 553 867 538 867 m 109 66 l 117 58 q 127 66 117 65 l 136 64 l 141 72 l 141 80 l 138 77 l 136 77 q 127 91 130 77 l 130 91 q 168 129 146 91 l 171 140 q 114 66 114 89 l 109 66 z "},"2":{"ha":1036,"x_min":-94,"x_max":1214,"o":"m 991 1170 l 994 1170 q 1019 1154 1019 1170 l 1019 1151 l 1035 1154 l 1057 1151 l 1062 1156 l 1065 1156 l 1073 1151 l 1097 1151 q 1162 1088 1097 1145 l 1187 1064 q 1206 1013 1187 1036 l 1198 969 l 1211 953 l 1211 950 l 1203 939 l 1214 926 q 1181 899 1196 920 q 1154 831 1167 831 l 1154 820 q 1124 766 1150 791 q 1032 644 1082 715 q 994 603 1009 635 q 913 538 977 603 q 764 465 823 487 q 696 440 764 453 q 536 348 610 400 l 468 307 l 430 299 l 425 304 l 270 226 l 245 196 l 245 193 l 300 188 l 305 188 l 321 191 l 332 188 l 370 191 q 400 169 395 180 l 400 166 l 395 161 l 389 161 l 378 169 l 370 169 l 370 158 q 419 136 401 150 q 514 85 458 136 l 530 82 l 533 85 q 620 63 533 72 l 642 87 l 644 87 q 652 74 649 87 l 650 71 l 647 71 l 644 74 l 644 71 l 650 66 l 671 66 q 793 142 707 70 l 802 169 l 802 199 q 761 256 781 256 q 736 267 740 256 q 758 299 744 291 l 766 302 l 769 299 l 772 299 q 785 318 785 299 l 788 318 q 888 248 840 318 l 891 237 l 891 223 q 826 117 844 117 l 731 39 l 620 -7 l 606 -7 q 557 9 557 0 l 549 9 l 538 12 l 522 1 l 519 1 l 514 6 l 514 20 l 487 33 q 479 -2 487 14 l 468 3 l 468 -2 l 473 -10 l 473 -24 l 468 -29 q 452 28 462 -29 q 433 52 433 33 q 416 68 416 52 l 403 71 l 406 74 l 406 82 l 403 82 l 370 85 l 362 82 q 346 90 359 90 l 340 90 q 335 82 340 82 l 327 90 l 313 90 l 302 82 q 270 101 282 101 l 259 106 l 216 104 l 202 109 l 175 96 l 172 98 l 170 98 q 83 47 127 86 q 72 33 75 47 q -26 -48 43 33 q -85 -89 -73 -89 l -94 -81 l -94 -78 q -56 -26 -94 -68 q 9 71 -56 -2 l 28 98 l 28 104 l 26 106 l 26 109 l 28 112 l 31 112 l 39 109 l 42 125 l 50 120 q 156 196 85 152 q 240 253 217 253 l 300 299 q 365 337 310 299 q 403 359 378 337 q 435 378 434 370 q 484 402 444 378 q 533 427 519 402 l 536 424 l 541 424 q 568 435 541 435 q 585 443 568 440 q 612 454 585 454 q 642 470 623 470 q 650 484 642 478 l 647 503 l 650 503 l 682 516 l 688 522 l 707 522 q 739 538 707 538 l 761 546 q 780 557 761 557 l 791 576 l 788 578 l 788 581 l 861 622 q 910 676 910 659 q 986 755 952 701 l 1005 777 l 1040 825 l 1065 863 q 1103 918 1103 894 q 1127 942 1117 937 q 1154 1002 1154 989 q 1127 1045 1140 1045 q 1043 1083 1109 1083 l 1038 1091 l 1038 1097 l 1046 1107 q 951 1124 1026 1116 q 864 1099 920 1124 l 853 1102 q 764 1050 777 1063 q 731 1034 764 1042 q 709 1004 709 1018 q 650 956 671 993 l 636 945 l 644 926 l 642 926 q 631 912 636 926 l 628 915 l 623 915 q 617 901 617 915 q 582 871 602 901 l 579 869 q 560 847 579 853 l 544 820 l 544 812 l 566 817 l 566 814 l 552 793 q 568 771 568 787 l 568 766 l 541 736 l 541 728 q 576 690 541 711 l 576 679 l 585 679 q 593 695 585 695 l 598 695 l 623 679 q 628 687 623 687 l 631 687 l 633 684 l 636 684 q 650 690 636 690 q 661 695 650 695 l 663 698 l 663 709 q 655 714 655 709 l 655 717 q 682 733 655 724 l 685 730 l 685 725 l 671 709 l 677 703 l 688 703 q 723 733 723 711 q 793 790 755 733 q 815 823 802 823 l 815 831 l 826 869 l 826 896 q 804 904 826 904 q 783 915 804 911 l 780 915 q 736 877 753 915 l 723 877 q 704 866 711 866 l 699 874 l 715 885 q 726 899 715 899 q 747 923 726 913 q 791 942 747 939 q 850 912 850 932 l 850 901 l 848 888 l 856 880 l 856 874 q 840 820 840 854 l 845 814 q 831 798 831 809 l 810 785 l 810 777 l 815 760 q 785 725 808 740 l 777 728 l 777 725 q 769 711 774 711 l 761 717 l 761 711 l 764 703 q 731 687 745 687 q 723 676 731 676 l 682 660 l 680 671 l 671 668 l 677 646 l 655 633 q 639 644 639 639 l 639 646 q 650 654 639 653 l 650 660 l 633 665 l 623 652 l 639 635 l 633 630 l 631 630 l 617 633 l 612 627 l 609 627 l 590 630 l 593 616 l 590 614 l 587 614 l 571 630 l 566 630 q 576 611 576 618 l 568 611 q 560 630 560 611 l 547 630 l 541 635 q 552 641 541 641 l 552 649 l 549 649 l 533 644 q 503 679 525 648 l 503 682 l 506 684 q 487 720 487 711 l 487 777 q 492 806 492 781 q 503 836 503 819 l 541 904 l 598 966 q 636 1004 621 977 q 671 1040 665 1017 l 685 1037 q 739 1078 698 1053 q 815 1118 747 1092 q 850 1137 828 1118 q 956 1159 937 1159 l 964 1159 l 967 1156 l 970 1156 l 970 1164 l 981 1164 q 989 1148 989 1162 q 1005 1156 1005 1151 l 1005 1162 l 1002 1162 l 994 1159 l 991 1162 l 991 1170 m 777 880 l 783 871 l 783 869 q 736 850 783 863 l 734 852 l 734 858 q 766 877 734 877 l 777 880 z "},"3":{"ha":821,"x_min":-7,"x_max":1067,"o":"m 856 1147 q 902 1126 873 1147 q 943 1104 943 1119 q 997 1061 965 1104 l 1000 1061 l 1005 1072 q 989 1093 1002 1081 q 1002 1107 1002 1097 l 1005 1107 l 1019 1093 l 1019 1090 l 1013 1082 l 1013 1080 q 1027 1066 1027 1080 q 1038 1058 1038 1062 q 1032 1044 1038 1044 q 1038 1017 1038 1038 l 1040 1015 l 1046 1015 l 1048 1017 l 1051 1017 l 1054 1015 l 1054 1006 q 1040 1001 1054 1001 l 1040 993 l 1051 993 q 1057 1001 1051 1001 l 1067 993 l 1059 982 l 1057 985 l 1054 985 l 1054 977 l 1062 974 l 1046 920 l 1046 895 l 1005 846 q 989 811 1005 833 q 943 789 943 793 q 861 730 937 777 q 747 673 766 673 q 677 640 747 661 q 636 621 677 625 l 636 613 q 658 602 651 613 q 682 597 675 602 l 699 602 q 718 570 708 601 q 747 496 747 542 q 755 480 755 496 l 764 477 l 758 456 l 766 448 q 739 372 756 406 q 707 301 707 332 q 650 233 693 297 l 590 179 l 517 146 q 495 119 517 138 q 430 79 495 106 q 346 41 384 41 q 311 22 326 22 q 294 38 311 38 l 289 38 l 283 33 q 305 24 305 33 l 305 22 q 273 5 296 5 l 243 5 l 240 8 l 232 5 l 180 11 l 129 -14 l 113 -14 q 80 16 96 -14 l 80 19 l 99 16 l 110 30 l 113 30 l 140 27 q 118 41 135 41 l 104 41 l 91 38 q 83 43 91 43 l 61 38 q 31 65 50 41 l 34 79 q 23 119 34 103 l 26 133 l 26 136 l 23 136 q 15 117 18 117 l 18 114 l 18 106 q -1 95 18 99 l -4 98 l -1 111 l -7 136 l -7 152 l 4 179 q 20 198 10 179 q 83 241 50 233 l 91 250 l 132 250 l 142 247 q 172 266 155 249 l 197 266 l 205 258 l 205 252 l 199 244 q 216 231 210 244 q 235 209 233 231 l 235 206 l 232 206 l 205 220 l 159 214 l 153 220 l 151 220 q 132 212 140 212 l 121 214 l 83 198 l 83 190 q 75 171 83 181 l 75 168 q 107 136 107 143 l 94 98 l 102 95 l 110 98 l 104 106 q 118 125 111 123 l 129 125 l 134 119 l 134 114 q 115 103 134 108 l 115 100 q 142 84 130 100 l 180 73 q 346 119 264 73 q 400 144 380 126 q 438 155 408 155 q 511 212 511 199 q 541 255 511 255 l 555 252 q 574 266 555 266 l 571 279 q 587 298 587 281 q 625 336 610 335 l 628 345 l 625 361 l 628 363 l 642 361 q 671 407 659 370 q 688 437 684 407 l 682 453 q 693 494 690 453 q 663 529 686 494 q 623 559 648 529 q 571 578 608 568 l 557 567 l 549 570 q 476 529 486 529 l 419 507 q 411 529 411 519 q 438 545 411 542 q 511 594 469 575 q 555 621 513 604 q 606 648 555 644 q 652 675 614 661 q 709 708 659 683 q 764 738 710 718 q 826 779 795 779 q 883 825 876 798 q 918 846 899 840 q 956 906 936 861 q 978 947 964 906 l 975 985 l 975 990 l 981 1012 q 940 1047 975 1032 q 897 1074 916 1074 l 888 1066 q 869 1082 882 1082 q 840 1090 869 1087 l 840 1093 l 831 1090 q 677 1034 722 1090 q 652 1017 665 1034 l 647 1017 l 647 1023 q 541 944 602 1023 q 509 914 534 944 l 509 895 l 525 906 q 544 873 544 888 q 511 830 511 852 l 514 811 q 574 798 535 811 q 614 822 614 798 q 623 833 616 833 l 631 833 l 650 814 l 674 814 q 728 860 728 820 q 750 873 736 873 l 753 884 l 745 901 q 712 890 726 890 l 704 890 l 674 917 q 736 966 699 966 l 750 963 q 758 968 750 968 q 799 925 799 945 q 774 868 799 894 q 755 822 755 838 l 769 808 l 769 806 q 753 800 769 800 l 753 779 l 742 779 l 731 787 l 726 787 q 701 773 711 773 l 685 776 q 555 762 673 771 q 536 757 555 757 l 525 757 q 490 784 501 784 q 479 827 486 822 l 484 852 q 454 863 454 856 q 530 1009 473 945 q 582 1050 559 1038 q 661 1099 604 1074 q 693 1115 680 1099 q 785 1134 761 1122 l 793 1131 l 856 1147 z "},"4":{"ha":977,"x_min":0,"x_max":1090,"o":"m 1074 1146 l 1085 1146 l 1090 1141 l 1090 1133 q 1001 1005 1090 1119 l 876 883 q 806 818 865 883 q 705 731 798 818 q 678 688 705 700 q 656 669 663 688 q 564 590 607 642 q 494 533 553 587 q 363 414 477 533 q 296 354 327 394 l 301 349 l 304 351 l 307 351 q 407 335 347 349 l 410 338 l 475 327 l 494 327 l 524 332 l 564 332 l 583 330 q 624 381 624 363 l 713 468 q 800 563 795 563 l 811 566 l 819 566 q 846 582 819 582 q 865 604 848 604 q 871 612 865 612 l 879 612 l 884 606 l 884 604 q 868 593 884 598 l 865 579 l 871 574 q 800 503 823 534 l 798 503 q 811 487 798 488 l 814 473 l 814 471 q 800 446 814 460 l 803 422 l 800 419 l 792 419 q 784 433 785 419 l 781 433 q 700 313 713 361 q 760 275 700 295 l 765 270 l 811 270 q 892 297 892 270 l 892 305 l 890 321 l 895 338 l 895 351 q 884 359 895 358 l 857 351 l 844 351 q 811 395 811 351 q 860 422 848 422 l 876 422 q 947 373 947 412 q 955 338 955 359 l 955 321 l 947 311 l 952 302 l 952 292 q 882 229 952 247 l 743 224 l 673 240 l 670 243 l 656 243 q 529 53 610 196 l 545 12 l 545 9 q 502 -15 531 -15 l 488 -15 l 472 1 l 450 1 q 355 -15 413 1 l 342 -4 q 307 -12 323 -12 l 301 -4 l 304 -1 l 304 1 l 298 7 q 369 72 321 37 q 410 129 402 106 q 448 175 417 129 l 515 251 l 515 264 q 301 308 334 308 q 195 283 241 308 q 163 270 184 270 q 144 286 153 286 q 87 243 87 273 l 79 237 l 35 245 l 35 232 l 24 221 q 0 235 0 227 l 0 251 l 14 267 l 11 283 q 62 308 29 302 l 65 311 l 95 330 q 133 346 109 330 q 187 378 187 359 q 203 403 203 388 q 182 419 203 412 q 212 449 182 431 q 217 457 212 457 l 222 452 l 225 452 l 222 465 q 339 590 281 520 q 483 769 469 728 q 534 842 524 821 q 564 888 550 849 q 581 921 571 894 l 597 932 l 597 935 l 591 943 l 591 948 l 613 964 l 616 967 l 616 970 l 613 981 q 656 1021 643 1021 q 621 935 652 982 q 548 791 616 892 l 496 696 l 431 617 q 412 598 431 610 q 393 568 412 581 l 388 555 l 391 547 l 396 547 q 407 563 401 547 q 434 579 428 563 q 467 604 450 604 q 502 642 467 627 q 608 766 532 688 l 670 845 q 697 875 681 845 q 822 1027 732 911 l 830 1027 l 830 1043 q 844 1070 830 1050 l 838 1089 l 819 1089 q 798 1111 798 1092 q 819 1130 814 1130 l 836 1127 q 990 1141 990 1131 l 1004 1135 l 1020 1141 l 1034 1135 l 1074 1146 m 366 538 q 328 503 328 511 l 326 500 l 326 498 l 328 498 q 374 530 368 530 l 366 538 m 149 387 l 152 387 l 157 381 q 138 349 157 368 l 125 349 l 125 351 l 130 362 l 125 368 l 125 373 l 133 373 l 136 370 l 138 370 q 149 387 138 382 m 488 134 l 467 104 q 461 96 461 104 q 448 88 456 88 l 439 58 l 445 53 l 450 53 q 469 85 460 53 l 499 129 l 499 132 l 488 134 z "},"5":{"ha":866,"x_min":0,"x_max":1180,"o":"m 1164 1199 l 1169 1199 l 1180 1188 l 1180 1177 q 1104 1137 1180 1166 q 1063 1120 1104 1131 q 863 1085 991 1085 l 776 1074 q 757 1088 758 1081 q 700 1047 700 1076 q 594 917 594 947 q 534 849 583 917 q 510 811 521 849 q 488 779 488 800 l 491 776 l 496 776 q 564 811 509 776 l 583 808 q 616 825 593 808 l 629 825 q 651 841 629 838 l 665 836 q 689 846 681 846 l 724 833 l 741 836 q 814 784 768 804 l 830 743 l 841 743 l 844 746 l 846 746 q 863 716 861 732 q 871 711 871 716 l 871 703 l 865 697 l 871 656 l 868 643 l 871 621 q 833 488 871 559 q 803 450 829 472 q 746 355 803 436 q 697 296 746 323 q 591 187 697 282 q 385 79 446 85 l 328 46 l 315 49 q 236 14 281 27 l 220 16 l 212 8 l 206 14 q 190 0 190 11 l 163 0 l 155 5 l 146 0 l 144 0 q 68 38 130 14 l 52 62 q 41 76 41 62 q 27 103 27 76 q 0 136 18 109 l 0 138 l 16 163 l 14 201 l 16 220 l 14 239 l 16 239 q 27 250 27 239 l 30 250 l 27 252 l 27 260 q 49 304 27 275 q 98 339 49 319 q 144 366 130 366 l 182 355 l 187 361 l 184 363 l 184 369 q 209 380 188 380 l 220 380 l 288 353 l 288 347 l 260 353 q 244 339 247 353 l 214 339 q 182 317 199 339 l 165 317 l 165 290 q 95 193 119 250 l 103 182 q 81 149 103 170 q 111 95 87 117 l 109 81 l 109 68 l 119 71 l 163 60 l 184 46 l 206 54 l 209 46 l 225 46 l 225 57 q 182 84 216 57 q 168 95 168 84 l 155 100 l 152 100 l 152 98 l 157 98 q 141 90 155 90 l 136 90 q 119 98 121 90 l 119 100 q 144 109 119 109 q 195 92 191 106 l 198 95 l 203 95 l 212 90 l 250 90 q 331 109 315 98 q 363 152 347 109 l 366 152 l 380 146 l 380 138 q 363 127 374 127 l 363 119 l 366 119 q 388 133 388 129 q 374 152 384 152 l 374 157 l 388 157 l 475 203 l 521 225 l 526 220 l 529 220 l 524 228 q 562 252 543 252 q 591 277 564 259 q 635 345 635 317 l 618 358 l 578 353 q 526 374 544 359 q 472 420 499 374 l 472 429 l 475 458 l 472 461 l 472 464 q 488 548 482 481 q 526 600 509 600 q 572 608 551 608 l 578 608 q 597 578 586 606 l 600 581 l 605 581 q 627 540 610 581 l 624 537 q 597 570 616 537 l 553 581 l 548 581 q 507 545 527 581 q 491 510 496 545 q 502 502 502 510 q 491 472 491 482 l 494 464 l 507 464 l 551 399 q 570 377 551 377 l 572 377 q 640 423 625 377 q 692 510 692 483 q 716 613 716 576 l 716 618 q 667 732 716 674 l 646 768 l 627 773 q 524 738 574 773 q 472 716 489 738 q 418 689 450 700 q 361 635 374 635 q 323 602 361 619 l 312 618 q 524 906 356 703 q 551 947 538 918 q 689 1107 634 1038 q 697 1112 697 1107 l 692 1137 l 694 1150 l 692 1158 l 694 1161 l 700 1161 l 716 1156 l 751 1164 q 784 1153 784 1164 l 792 1153 l 876 1158 q 909 1131 890 1158 l 1020 1161 l 1023 1158 l 1025 1158 l 1036 1166 l 1050 1164 l 1053 1164 q 1164 1199 1072 1174 m 735 713 q 760 697 742 697 l 765 697 l 765 705 q 746 724 759 718 q 735 713 735 722 m 73 307 l 73 279 l 90 279 l 98 285 l 109 282 l 106 296 l 106 298 q 138 323 130 323 l 144 323 l 144 326 l 136 336 l 138 350 l 136 350 q 103 323 117 350 q 73 307 85 319 m 71 277 l 65 255 l 76 263 l 73 277 l 71 277 m 233 155 l 233 152 q 193 114 218 114 l 187 114 l 182 119 q 233 155 182 143 z "},"6":{"ha":799,"x_min":-15,"x_max":1095,"o":"m 929 1143 l 956 1138 l 964 1146 l 983 1146 q 1019 1124 1017 1133 l 1019 1122 l 1013 1116 l 1008 1116 l 986 1122 l 978 1122 l 962 1116 l 948 1124 q 921 1116 933 1116 l 929 1095 l 943 1095 q 986 1076 960 1095 q 1040 1051 997 1076 l 1054 1051 q 1067 1076 1067 1059 l 1073 1076 q 1095 1057 1085 1071 l 1095 1048 l 1089 1043 l 1095 1027 l 1095 1019 q 1035 916 1095 1004 q 989 875 998 875 l 983 880 l 981 880 l 983 878 l 983 875 q 929 842 983 852 q 910 831 925 831 l 886 831 l 875 842 l 875 845 l 880 856 l 856 910 q 867 926 861 926 q 886 897 878 921 q 916 888 897 888 q 972 921 949 899 q 1021 967 984 926 q 1002 997 1016 997 l 1005 1000 l 1005 1008 l 986 1008 l 986 1010 l 989 1024 l 972 1024 l 935 1038 l 932 1035 l 932 1032 q 913 1051 913 1038 l 897 1051 l 788 1035 q 709 989 709 1013 q 666 959 682 989 l 663 959 l 661 975 q 623 948 635 968 q 595 940 610 940 l 595 929 l 601 921 q 571 891 584 915 l 549 897 l 549 894 l 552 883 q 487 807 504 840 q 435 780 453 807 q 387 726 422 780 l 359 690 q 313 647 355 690 q 302 631 302 647 q 270 587 296 631 q 254 552 264 585 q 218 522 223 538 l 180 479 q 156 425 161 456 q 113 351 130 412 q 94 324 113 324 l 91 321 l 91 319 l 94 302 q 72 227 79 302 q 80 183 78 227 q 64 134 80 146 l 64 132 q 113 53 84 53 q 126 34 126 47 l 134 26 l 140 26 q 161 37 149 26 l 202 26 q 275 45 268 35 q 365 94 319 45 q 411 126 382 94 q 452 159 423 143 q 490 189 458 176 q 560 259 560 250 l 598 308 q 620 343 612 313 q 642 392 631 343 q 655 454 652 421 l 658 457 l 658 460 q 625 557 633 557 q 612 574 614 557 l 601 574 l 598 571 l 595 571 l 598 555 q 593 481 598 509 l 595 468 l 595 463 l 579 406 q 571 381 573 406 l 574 378 l 576 378 q 560 359 576 368 q 514 259 552 314 q 490 232 502 232 q 484 224 490 224 l 463 224 l 463 229 q 511 302 511 281 q 541 351 511 312 l 560 446 l 571 503 l 571 506 q 530 590 552 590 l 530 593 l 495 582 l 490 593 l 481 593 l 430 574 q 368 538 386 560 q 324 473 324 503 l 321 471 l 319 471 l 311 476 l 302 476 q 264 441 282 451 q 213 365 264 430 l 189 319 q 180 308 182 319 l 175 308 l 175 319 q 180 346 180 323 q 194 370 186 346 l 191 384 q 210 427 210 412 l 210 435 l 208 449 q 251 511 245 488 l 262 517 l 262 522 l 259 525 l 259 528 l 275 541 l 297 541 l 297 555 q 343 579 298 559 q 378 604 357 604 q 411 623 391 618 q 509 671 411 640 l 557 688 q 587 677 557 680 l 612 680 l 639 680 q 658 674 645 674 l 677 671 l 680 663 l 674 650 q 682 639 682 650 l 688 639 l 688 642 l 685 655 l 699 666 l 704 666 l 709 650 l 707 628 l 709 628 l 715 623 l 712 574 q 731 544 731 559 l 731 530 q 718 511 731 511 l 718 498 q 726 492 726 498 q 707 457 726 484 l 715 449 l 715 444 q 707 438 715 438 l 707 433 q 715 427 715 433 l 661 286 q 620 175 644 270 q 519 80 581 120 q 449 28 466 28 l 441 37 q 397 18 410 37 q 202 -31 397 -1 q 180 -42 191 -31 l 170 -45 q 96 -15 96 -39 q 61 23 96 1 q 26 72 26 64 q 15 91 26 80 l 15 94 l 18 96 l 18 99 q 7 132 7 117 l 7 180 l -4 183 q 9 208 -1 199 l 9 213 l 4 221 l 4 224 l 7 235 l 4 245 l 4 256 l -1 256 l -15 254 l -15 300 l -12 300 l -1 289 l -7 278 l -1 278 q 20 335 7 317 l 18 351 l 28 365 l 28 368 q 18 376 18 368 q 31 411 31 391 q 121 541 44 421 q 210 661 170 602 q 248 699 233 688 q 286 742 262 724 q 340 799 289 755 q 406 859 389 859 q 506 943 454 916 q 560 970 526 943 q 590 994 580 970 q 655 1035 611 994 q 723 1078 683 1046 l 726 1076 l 734 1076 q 815 1119 759 1100 q 850 1130 815 1124 l 859 1127 q 878 1133 859 1133 l 883 1138 l 897 1138 l 905 1133 l 907 1133 l 918 1141 l 926 1138 l 929 1141 l 929 1143 m 932 864 l 932 853 l 943 861 l 945 861 l 959 859 l 967 883 q 932 864 959 883 z "},"7":{"ha":703,"x_min":-130,"x_max":1208,"o":"m 771 1196 l 877 1185 l 880 1188 l 882 1188 q 999 1169 941 1175 q 1045 1156 1015 1156 l 1078 1156 q 1183 1188 1183 1175 l 1202 1188 l 1208 1183 l 1208 1166 q 1181 1126 1181 1142 q 1121 1096 1181 1116 q 1075 1036 1075 1053 l 1078 1025 q 1034 977 1061 1000 q 928 860 1034 966 q 899 827 928 846 q 801 738 882 802 q 679 581 679 609 q 608 510 626 540 q 622 494 622 506 l 619 491 l 611 491 l 603 496 q 478 369 589 496 l 443 317 q 421 285 443 296 l 421 277 q 470 260 431 260 q 505 274 505 264 l 503 282 l 505 285 l 508 285 l 530 282 q 595 328 553 294 l 638 342 l 641 342 l 641 334 q 633 323 633 334 q 511 250 582 264 l 492 239 l 451 239 q 416 247 447 243 q 399 255 413 255 q 304 136 388 248 q 288 114 295 136 q 188 -8 207 42 q 90 -138 174 -20 l 55 -182 l 44 -184 q 36 -171 38 -184 l 39 -155 l 22 -149 l -5 -152 l -24 -149 l -78 -165 l -86 -165 q -116 -130 -86 -160 l -116 -125 l -113 -122 l -113 -119 q -130 -109 -130 -113 l -130 -100 l -121 -92 l -113 -92 l -97 -106 l -94 -106 q -73 -98 -83 -98 q -89 -65 -89 -73 q -10 3 -89 -37 q 12 11 -10 11 l 96 92 q 218 220 96 98 q 277 282 223 220 q 351 374 351 345 l 351 401 q 359 420 359 408 l 372 418 l 375 431 l 375 439 l 359 456 q 383 505 359 486 l 380 521 q 402 548 402 530 q 418 570 402 555 q 481 646 427 610 l 508 656 l 508 643 l 494 629 l 494 627 l 497 624 l 497 621 l 597 689 l 600 697 l 595 708 q 619 738 602 708 q 684 760 648 738 q 787 830 727 769 q 885 952 874 915 q 939 1006 894 952 l 939 1012 q 774 1069 919 1036 l 652 1109 q 497 1050 625 1109 q 451 1023 477 1023 l 454 1009 q 440 985 447 985 l 421 985 q 416 977 421 977 l 410 977 l 402 982 q 375 958 389 982 l 364 958 q 345 982 345 958 l 345 993 q 378 1042 345 1019 q 391 1055 391 1042 q 440 1085 419 1080 l 492 1123 q 595 1172 510 1143 q 630 1188 595 1188 l 635 1188 l 709 1191 l 736 1188 q 771 1196 755 1196 m 611 681 l 597 681 q 546 632 597 663 q 481 581 529 614 l 475 586 q 459 564 469 564 l 456 575 l 446 575 q 429 567 446 567 l 429 564 q 454 556 429 556 l 456 553 l 456 551 q 405 507 443 507 q 386 499 397 499 l 386 496 l 391 496 l 391 494 l 383 467 l 397 453 l 394 442 l 397 431 l 394 420 l 394 418 l 397 418 q 418 439 397 431 q 524 548 504 533 l 657 703 l 657 708 q 611 681 635 704 m 367 415 l 367 410 l 370 396 l 359 396 l 359 393 l 364 388 q 378 399 366 393 q 367 415 372 415 z "},"8":{"ha":814,"x_min":0,"x_max":1175,"o":"m 993 1251 l 1031 1251 q 1109 1204 1109 1213 q 1142 1153 1122 1194 q 1156 1115 1147 1151 l 1153 1099 l 1175 1063 q 1153 1009 1163 1022 l 1156 1001 q 1058 873 1145 956 l 1020 844 l 1017 846 l 1015 846 q 928 792 981 811 q 887 765 900 765 l 882 770 q 817 727 826 746 l 806 730 q 762 711 762 725 q 800 610 773 643 l 800 602 q 792 583 800 593 l 798 564 l 789 556 l 795 540 l 808 540 q 819 524 819 534 q 803 496 812 496 l 806 494 l 806 491 l 762 347 q 719 288 749 288 l 716 285 l 703 288 q 670 239 673 259 q 624 190 665 239 q 583 155 614 190 q 439 68 497 92 l 374 24 q 347 3 368 24 l 328 3 l 296 -8 l 290 -8 q 217 24 275 -8 q 125 84 176 30 l 95 130 q 87 141 88 130 l 84 141 l 79 127 l 84 109 l 81 109 l 71 111 l 65 90 q 95 19 73 58 q 81 3 85 14 l 65 8 l 60 8 q 54 0 54 8 l 62 -14 l 79 -5 l 84 -27 l 84 -33 q 65 -41 84 -37 q 54 -60 59 -60 q 8 57 14 -5 l 5 79 l 8 106 l 3 111 l 3 114 l 8 122 q 0 141 0 132 l 0 157 q 14 212 0 195 q 22 236 14 229 l 19 239 l 19 241 q 30 255 24 254 l 27 266 q 62 320 27 311 q 103 407 92 394 l 155 475 q 184 524 155 488 q 255 564 184 539 q 388 648 298 606 l 442 681 q 540 713 462 703 q 605 754 605 738 l 589 819 l 583 830 l 583 841 l 589 846 l 586 849 l 586 865 l 583 887 q 600 977 589 939 q 640 1050 600 996 q 730 1158 706 1158 q 789 1213 770 1189 l 792 1215 l 822 1215 l 825 1213 l 876 1226 l 887 1223 q 993 1251 957 1251 m 817 1131 l 814 1131 l 798 1139 q 732 1077 774 1139 l 713 928 l 716 882 l 711 865 l 711 795 q 722 787 711 787 q 776 806 751 787 q 838 841 821 818 q 936 901 906 859 l 949 898 q 974 928 969 898 l 977 928 l 974 930 l 974 933 l 1009 960 l 1017 990 l 1015 993 l 1015 996 l 1023 998 l 1015 1023 l 1020 1039 q 985 1074 1015 1074 q 971 1082 971 1074 q 914 1061 914 1064 q 903 1044 909 1044 l 892 1044 l 873 1063 l 871 1063 q 822 1001 850 1047 q 846 987 841 1001 l 838 955 l 841 936 l 838 933 l 830 933 q 808 955 808 933 q 822 966 814 966 l 822 971 q 803 985 811 971 l 803 1001 q 827 1061 819 1061 q 841 1093 833 1061 q 914 1139 866 1132 l 982 1139 q 1044 1058 1026 1139 q 1055 1025 1050 1058 l 1058 1023 l 1058 1012 l 1053 982 l 1053 971 l 1063 971 q 1085 990 1063 981 l 1101 1025 l 1109 1080 q 1088 1147 1094 1113 q 990 1194 1055 1173 l 987 1191 l 960 1194 l 952 1194 q 822 1137 822 1175 l 817 1131 m 100 279 l 103 271 l 95 239 q 130 206 102 218 l 133 206 l 125 184 l 125 176 q 163 111 135 132 l 168 111 l 182 114 l 187 109 l 222 109 l 239 103 q 293 114 272 114 l 293 111 l 288 98 l 301 98 l 298 100 l 298 109 l 304 114 l 312 114 l 320 106 q 393 144 361 114 l 415 144 q 434 163 415 152 q 439 171 434 171 l 453 165 q 545 255 499 203 l 575 290 q 586 301 586 293 l 583 309 q 610 345 602 318 q 632 380 618 345 q 667 488 650 380 l 667 564 q 618 646 634 646 l 610 646 q 589 632 600 646 q 469 613 469 625 q 404 583 450 613 q 317 540 370 583 q 144 369 218 488 l 119 323 q 100 279 119 300 m 336 24 l 336 22 l 350 19 l 358 22 l 358 24 l 345 27 l 336 24 z "},"9":{"ha":895,"x_min":0,"x_max":1096,"o":"m 936 1204 l 947 1175 q 971 1158 971 1168 l 977 1158 l 977 1161 l 947 1191 l 960 1204 q 1025 1153 983 1204 q 1061 1126 1061 1138 q 1055 1104 1061 1104 l 1066 1082 l 1069 1082 l 1072 1096 l 1080 1096 q 1096 1050 1088 1060 l 1090 1044 q 1096 1031 1090 1031 l 1093 1012 l 1093 968 l 1090 952 l 1093 939 l 1088 930 l 1088 920 l 1093 911 l 1093 909 l 1085 879 l 1080 879 q 1047 770 1080 844 q 1009 689 1036 725 q 985 643 1009 662 q 968 618 985 625 q 922 534 952 574 q 898 499 922 518 q 863 429 898 485 q 806 404 840 404 q 754 345 795 379 q 613 174 709 284 l 453 33 l 450 33 l 439 43 l 439 54 q 450 60 439 60 l 450 73 l 448 76 l 448 79 q 336 30 380 43 q 214 0 336 13 l 190 0 q 87 38 87 26 q 35 71 69 38 q 14 100 27 95 l 16 114 l 16 117 l 14 117 l 5 111 l 3 111 l 3 114 l 8 122 l 3 141 q 16 149 16 144 l 16 157 l 3 168 l 5 182 l 0 190 l 0 193 q 16 198 0 198 l 16 201 l 11 222 l 43 277 q 65 288 55 288 l 68 285 q 130 342 68 310 q 165 361 140 342 l 171 361 q 206 345 206 353 q 231 355 220 355 l 233 355 q 255 342 244 344 l 255 339 l 244 328 l 190 339 l 149 317 q 81 233 87 270 l 71 203 l 62 198 l 71 179 l 68 168 l 81 114 q 171 71 119 71 l 171 68 l 190 76 l 195 65 q 201 73 201 65 l 203 76 l 214 76 l 260 79 q 282 71 260 73 l 293 49 l 307 49 q 315 60 308 60 q 328 52 315 54 l 415 84 q 442 109 442 95 l 453 103 q 518 144 472 103 q 556 179 538 144 q 420 100 530 179 q 358 84 381 84 l 358 100 q 377 133 377 113 l 377 136 l 374 133 l 372 133 l 369 136 l 369 138 q 385 157 385 144 l 388 157 l 393 152 l 393 149 l 391 146 l 391 144 l 396 144 l 396 138 l 391 138 l 391 136 l 399 127 q 437 160 418 127 l 426 160 l 410 146 l 399 168 l 401 171 l 404 171 l 410 165 q 442 187 424 165 q 453 195 453 187 l 458 201 l 464 201 l 472 198 l 472 201 q 483 212 472 212 q 488 225 483 225 l 502 225 l 502 228 l 499 231 l 499 233 q 524 247 514 236 l 526 247 l 534 244 l 534 247 l 526 269 l 534 269 l 553 252 l 556 252 l 556 255 l 548 266 q 564 293 564 277 q 600 320 600 311 l 597 320 l 581 315 l 578 317 l 578 320 l 600 342 l 602 342 l 610 336 l 610 339 l 608 347 q 670 415 608 355 q 675 423 675 415 q 686 442 686 423 l 703 442 q 784 537 728 478 l 784 540 l 781 548 q 841 624 841 607 l 838 627 l 838 629 l 852 635 l 852 648 q 876 670 852 653 q 890 684 876 678 q 906 722 890 692 l 914 746 l 909 757 q 928 779 923 757 q 968 833 939 779 l 963 846 q 1009 974 979 846 l 1006 977 l 1006 1001 q 958 1093 998 1055 l 952 1093 l 939 1090 l 857 1096 l 825 1085 l 811 1096 l 798 1082 l 789 1082 l 781 1088 q 757 1069 762 1069 l 749 1072 l 741 1053 l 743 1053 l 762 1055 l 770 1053 l 770 1047 q 697 1023 697 1038 l 692 1023 l 689 1031 q 627 979 637 1001 q 591 939 591 950 l 594 925 q 578 887 585 925 l 575 884 l 578 882 l 589 879 l 589 876 l 556 836 l 562 825 l 556 814 l 562 798 l 556 784 q 602 724 574 724 l 624 716 l 624 713 q 583 678 624 694 q 532 711 572 678 l 532 724 l 537 724 l 559 703 l 570 705 l 570 700 l 575 700 l 575 713 l 572 713 l 559 711 l 551 727 l 551 732 l 553 735 l 553 738 l 526 768 l 529 779 l 513 792 l 518 806 l 499 819 q 464 770 479 819 l 458 770 l 461 768 l 461 751 q 434 735 461 743 l 434 730 l 442 719 l 442 713 q 434 708 442 708 q 445 686 434 699 l 445 681 q 431 670 444 675 l 418 675 l 418 659 l 410 648 l 415 627 l 410 621 l 410 616 q 426 575 417 607 q 491 540 473 540 l 494 540 q 513 548 507 540 l 540 545 l 564 545 q 627 570 612 556 l 632 570 l 635 567 l 637 567 q 646 578 642 578 l 659 578 q 673 583 659 583 l 673 586 l 670 594 q 675 605 675 594 q 694 627 694 611 l 727 643 l 741 627 l 722 618 l 722 610 l 724 608 l 724 605 l 722 602 l 719 605 l 711 605 q 667 559 667 572 l 670 559 q 684 545 677 559 q 640 513 672 522 l 627 515 q 494 488 562 488 q 437 507 437 496 l 429 505 q 388 537 423 505 q 355 575 366 549 l 358 589 l 350 618 q 361 648 354 641 l 361 651 l 358 654 l 358 656 l 372 670 l 372 697 l 369 700 l 369 703 q 385 751 378 703 q 401 798 393 751 l 434 825 q 483 890 462 890 q 513 925 483 904 q 608 1023 513 937 q 632 1047 608 1031 q 716 1104 632 1071 q 765 1128 730 1128 q 817 1164 791 1142 q 887 1185 873 1185 l 901 1175 q 936 1204 901 1201 z "}," ":{"ha":386,"x_min":0,"x_max":0,"o":""},"!":{"ha":918,"x_min":0,"x_max":1082,"o":"m 958 1324 l 966 1324 l 974 1316 l 974 1310 l 968 1291 l 1001 1291 q 1074 1272 1037 1278 q 1082 1248 1082 1262 l 1034 1204 q 882 1047 1034 1198 q 852 1004 882 1040 q 808 955 833 993 q 757 901 792 955 q 705 819 744 892 q 675 781 700 819 q 637 743 661 773 q 608 708 624 734 q 564 646 595 703 q 507 575 520 610 q 467 518 503 575 l 401 448 q 374 415 401 441 q 353 382 371 382 q 326 366 353 369 l 323 369 q 298 350 323 355 l 296 353 l 296 366 q 307 385 296 381 l 315 382 l 315 385 l 312 401 q 350 458 317 401 q 385 505 372 468 q 453 597 427 549 q 507 665 458 597 q 559 738 507 673 q 597 795 562 751 l 675 906 q 708 960 703 931 q 773 1058 736 988 q 882 1213 838 1134 q 903 1248 882 1223 l 901 1261 l 901 1272 q 947 1299 901 1281 q 958 1324 949 1322 m 111 201 l 114 193 l 111 184 l 114 184 l 125 182 l 125 179 q 109 149 112 166 l 100 146 q 117 127 106 127 l 133 133 l 157 133 q 193 92 193 113 l 193 90 l 190 87 l 190 84 l 201 73 l 201 68 q 187 62 201 62 l 193 54 l 201 57 l 201 52 q 87 0 159 0 q 57 11 83 11 q 8 71 8 37 q 0 100 1 85 q 41 144 14 144 l 35 168 l 38 176 q 30 182 30 176 l 30 187 l 38 187 q 52 176 38 176 l 52 179 q 111 201 52 201 m 138 195 l 146 195 q 190 160 167 195 l 190 157 l 187 155 l 174 136 l 171 138 l 171 144 l 174 163 q 157 179 157 171 q 133 190 141 179 l 138 195 m 49 103 l 54 95 q 79 133 70 95 l 81 133 l 84 130 l 84 133 l 76 144 q 49 103 60 144 z "},"\"":{"ha":984,"x_min":545,"x_max":1266,"o":"m 797 1817 l 805 1817 l 821 1803 l 829 1806 q 851 1771 834 1771 q 867 1763 867 1769 l 876 1765 q 913 1754 893 1765 q 881 1673 913 1720 l 878 1659 l 878 1640 l 876 1638 l 876 1635 l 886 1632 l 886 1613 q 859 1597 876 1597 q 854 1605 854 1597 l 857 1616 l 854 1624 l 843 1624 q 764 1532 843 1613 q 748 1505 759 1531 q 664 1361 726 1505 q 585 1288 645 1361 l 566 1288 q 545 1304 545 1299 l 547 1312 l 545 1320 q 577 1385 559 1333 q 588 1421 585 1385 q 634 1518 634 1494 q 721 1673 648 1573 q 748 1700 721 1684 q 824 1773 752 1718 l 819 1795 l 805 1792 l 802 1792 q 786 1803 802 1803 l 786 1806 l 797 1817 m 1196 1817 q 1234 1787 1234 1806 q 1242 1768 1242 1787 q 1266 1725 1266 1749 l 1266 1711 q 1236 1670 1266 1676 q 1225 1665 1225 1670 q 1239 1659 1239 1665 l 1228 1649 l 1225 1649 l 1209 1654 l 1190 1646 l 1198 1635 l 1185 1611 q 1147 1548 1177 1611 q 987 1323 1002 1389 q 951 1261 964 1303 l 949 1258 l 938 1258 q 919 1285 919 1270 l 919 1288 q 946 1345 919 1311 q 960 1377 952 1377 l 960 1388 l 957 1388 q 951 1375 951 1388 q 927 1342 938 1375 q 897 1301 901 1318 q 876 1282 891 1301 l 873 1285 l 873 1288 q 827 1261 846 1288 l 816 1258 l 810 1274 q 916 1426 810 1292 l 973 1499 q 989 1524 981 1524 l 1055 1646 l 1082 1684 l 1079 1687 l 1079 1695 q 1120 1735 1093 1695 q 1144 1754 1120 1752 l 1144 1757 l 1141 1771 l 1128 1771 q 1120 1760 1128 1760 l 1106 1757 l 1106 1760 q 1117 1768 1106 1767 l 1117 1776 l 1106 1790 l 1106 1801 l 1144 1811 l 1160 1806 l 1160 1809 q 1196 1817 1160 1815 m 1087 1792 l 1093 1784 l 1093 1782 q 1068 1757 1090 1773 q 1033 1725 1051 1725 l 1027 1730 q 1038 1752 1036 1737 q 1087 1792 1074 1792 m 759 1776 l 764 1768 l 764 1752 l 756 1752 q 705 1711 732 1748 q 686 1697 699 1711 l 672 1711 l 677 1716 l 691 1714 q 713 1752 701 1752 q 734 1768 713 1761 l 743 1765 q 759 1776 748 1776 m 1225 1700 l 1217 1684 l 1217 1681 l 1225 1678 q 1239 1687 1239 1682 l 1239 1689 q 1225 1700 1238 1695 m 650 1687 l 669 1684 l 672 1687 l 675 1684 l 675 1676 q 629 1600 659 1668 q 591 1529 614 1597 l 574 1510 l 572 1513 l 569 1513 q 596 1611 580 1524 q 629 1657 629 1637 q 650 1687 647 1672 m 862 1654 l 854 1632 q 865 1619 865 1626 l 870 1619 l 873 1638 q 862 1654 867 1654 m 981 1649 l 989 1640 l 989 1630 q 981 1611 981 1622 l 979 1611 l 970 1619 l 970 1635 l 981 1649 z "},"#":{"ha":1835,"x_min":-207,"x_max":1988,"o":"m 1426 1727 l 1440 1727 q 1448 1713 1446 1727 l 1489 1713 l 1516 1689 l 1546 1689 q 1570 1664 1570 1689 q 1518 1564 1542 1622 q 1467 1442 1513 1560 q 1396 1260 1435 1379 q 1377 1206 1377 1232 q 1396 1190 1377 1190 l 1396 1184 q 1372 1152 1372 1164 q 1575 1114 1398 1133 l 1616 1100 l 1635 1105 q 1752 1067 1695 1079 l 1763 1057 l 1763 1051 q 1735 1029 1763 1029 l 1733 1029 l 1649 1048 l 1630 1043 q 1603 1059 1619 1059 l 1600 1059 l 1586 1057 q 1570 1065 1584 1065 l 1562 1059 q 1527 1073 1547 1073 l 1516 1070 l 1508 1078 l 1491 1076 l 1472 1078 l 1464 1076 l 1445 1084 l 1432 1078 l 1407 1089 l 1383 1086 l 1377 1092 l 1367 1089 l 1350 1095 l 1348 1095 q 1320 1040 1338 1095 q 1263 894 1310 1034 q 1209 766 1209 779 l 1209 758 q 1483 734 1241 743 q 1589 720 1510 726 q 1605 688 1605 707 q 1597 671 1605 673 l 1594 671 l 1540 674 l 1540 669 l 1537 669 q 1521 682 1527 673 l 1508 680 l 1499 680 l 1418 682 l 1404 680 q 1193 699 1404 690 q 1160 628 1168 699 q 1057 373 1110 528 l 1060 370 l 1060 365 q 1033 300 1033 340 q 1014 229 1025 300 l 1019 208 l 1017 183 q 1033 134 1033 146 l 1033 126 l 1025 118 q 984 191 1006 118 l 981 191 q 892 1 932 77 q 886 -20 886 1 l 870 -37 l 865 -37 q 854 -7 859 -37 q 862 23 859 -7 l 865 26 l 867 26 l 859 56 q 870 99 865 56 l 873 102 l 876 110 l 873 113 l 873 121 q 889 167 882 121 l 913 210 l 911 218 l 941 283 q 968 351 954 294 q 1027 490 1023 433 l 1027 503 q 1074 639 1051 557 l 1071 642 l 1071 652 q 1082 682 1082 667 l 1082 704 l 1068 707 l 1052 704 l 1041 709 l 816 680 l 813 680 l 800 669 l 783 674 q 767 663 783 669 l 753 666 l 729 652 l 718 658 q 648 620 648 647 q 539 338 608 498 q 523 305 539 323 q 507 254 507 281 q 493 216 496 254 q 474 189 474 207 l 477 178 q 458 142 458 156 l 463 137 q 450 91 450 134 q 433 61 433 74 l 436 47 q 398 -7 407 25 l 382 -12 q 366 12 366 -1 l 376 39 l 374 53 l 393 88 l 390 96 q 412 153 398 98 q 425 208 419 153 q 439 245 433 208 q 450 292 445 254 q 471 340 460 296 l 512 452 q 564 598 562 567 q 572 617 572 604 l 564 623 l 545 623 l 515 609 q 300 541 452 609 l 176 514 q 59 473 111 473 l 18 463 l 13 463 q 7 471 7 463 q 113 525 7 486 q 303 598 113 534 q 385 623 352 623 q 452 644 385 631 q 585 682 488 665 q 621 764 602 692 l 718 1043 l 724 1051 q 713 1073 718 1073 q 591 1046 591 1065 l 577 1051 q 512 1027 546 1051 q 379 989 481 1027 q 243 940 335 979 q 189 929 216 929 l 184 929 q 165 937 176 937 l 165 940 q 260 997 233 997 l 406 1040 q 496 1070 431 1056 q 531 1078 496 1076 q 718 1122 560 1095 q 775 1214 753 1122 l 824 1350 q 859 1482 824 1396 q 878 1553 867 1540 l 903 1634 l 903 1648 q 897 1662 903 1662 l 873 1659 q 862 1683 862 1673 l 862 1691 l 876 1702 q 897 1678 883 1702 l 911 1672 q 951 1708 929 1679 l 965 1710 q 981 1697 973 1697 q 1079 1708 1017 1697 q 1095 1681 1095 1691 q 1038 1618 1042 1653 q 949 1434 958 1495 q 927 1379 938 1427 q 889 1284 913 1375 q 867 1230 878 1284 l 876 1217 q 862 1184 876 1200 l 865 1171 l 857 1154 l 857 1152 q 870 1143 857 1145 l 1212 1162 l 1217 1162 q 1253 1200 1253 1173 q 1318 1382 1302 1317 q 1348 1463 1325 1390 l 1375 1553 q 1380 1564 1380 1553 l 1377 1577 q 1399 1643 1399 1620 q 1364 1664 1399 1659 l 1358 1689 l 1369 1697 l 1383 1689 l 1391 1689 l 1426 1727 m 973 1640 q 979 1632 979 1640 l 981 1629 l 984 1629 q 1014 1651 998 1629 l 1014 1656 q 973 1640 977 1656 m 1046 1105 l 1025 1105 l 1014 1103 l 1011 1105 l 1008 1105 q 859 1086 859 1101 l 843 1092 q 827 1081 843 1086 l 827 1073 l 759 907 q 715 799 758 888 l 686 715 l 705 709 q 1008 753 922 753 l 1011 755 l 1033 753 q 1106 780 1106 753 q 1133 867 1114 793 q 1149 910 1137 868 q 1206 1078 1206 1055 l 1206 1081 q 1160 1100 1195 1100 l 1128 1097 l 1090 1108 l 1046 1105 m 260 2719 l 276 2719 l 281 2713 l 281 2697 l 273 2689 l 271 2689 l 252 2708 l 260 2719 m 1269 1818 l 1310 1807 q 1280 1753 1310 1777 q 1239 1718 1267 1718 q 1217 1745 1217 1726 l 1215 1772 q 1269 1818 1242 1785 m 1985 1783 l 1988 1780 l 1988 1745 l 1982 1740 l 1977 1740 q 1952 1777 1952 1762 l 1985 1783 m 1149 1761 l 1155 1756 l 1144 1748 l 1139 1758 l 1141 1761 l 1149 1761 m 772 1748 l 783 1748 l 789 1742 l 789 1740 q 772 1731 786 1731 l 767 1731 l 767 1742 l 772 1748 m 1874 1748 l 1876 1745 q 1863 1721 1869 1721 l 1858 1729 l 1858 1740 q 1874 1748 1858 1744 m 1687 1737 q 1646 1707 1687 1712 l 1640 1723 q 1687 1737 1657 1737 m 1814 1712 l 1849 1712 l 1849 1710 q 1820 1680 1849 1701 l 1811 1680 l 1806 1699 q 1814 1712 1809 1712 m 1955 1683 l 1955 1669 q 1936 1647 1946 1653 l 1931 1647 l 1925 1653 l 1925 1666 q 1955 1683 1925 1676 m 1858 1664 l 1863 1664 q 1876 1642 1876 1656 l 1874 1639 l 1866 1639 l 1852 1653 l 1852 1658 l 1858 1664 m 1646 1655 l 1649 1653 l 1651 1653 q 1638 1634 1646 1636 q 1630 1653 1632 1634 l 1632 1655 l 1646 1655 m 1624 1647 l 1624 1642 l 1605 1617 l 1592 1639 l 1624 1647 m 1155 1612 l 1160 1607 q 1149 1598 1160 1603 l 1147 1601 l 1155 1612 m 1622 1604 q 1643 1560 1643 1581 l 1643 1558 q 1619 1541 1640 1548 q 1611 1588 1613 1546 q 1622 1604 1616 1604 m 1527 1596 l 1532 1596 l 1540 1588 l 1540 1552 l 1535 1547 l 1521 1547 q 1516 1555 1516 1547 q 1527 1596 1518 1596 m 1806 1588 l 1809 1588 l 1809 1585 l 1811 1552 l 1776 1547 q 1757 1582 1757 1566 l 1760 1582 l 1806 1588 m 1863 1566 l 1876 1566 l 1876 1541 l 1871 1536 l 1868 1536 q 1858 1555 1858 1541 l 1858 1560 l 1863 1566 m 1909 1563 l 1914 1555 l 1914 1531 q 1882 1520 1914 1524 l 1876 1528 l 1876 1531 q 1909 1544 1876 1539 l 1898 1558 l 1909 1563 m 1738 1536 l 1749 1536 l 1754 1531 l 1754 1520 q 1733 1506 1754 1513 l 1733 1509 l 1730 1520 q 1738 1536 1733 1536 m 1643 1501 l 1646 1498 l 1646 1495 q 1581 1438 1646 1452 l 1578 1441 q 1600 1474 1578 1466 q 1643 1501 1614 1501 m 677 1471 l 680 1471 l 694 1468 l 694 1460 q 675 1449 690 1449 l 672 1452 l 672 1466 l 677 1471 m 1868 1455 l 1871 1452 l 1871 1436 l 1866 1430 l 1860 1430 l 1860 1438 q 1868 1455 1862 1455 m 1904 1441 l 1906 1441 l 1917 1428 l 1914 1425 l 1906 1425 l 1904 1428 l 1901 1428 l 1904 1441 m 1559 1438 l 1570 1438 l 1575 1433 l 1575 1430 l 1570 1425 l 1559 1425 l 1554 1430 l 1554 1433 l 1559 1438 m 1947 1417 l 1952 1411 l 1952 1400 q 1936 1392 1952 1395 l 1931 1414 l 1933 1417 l 1947 1417 m 1396 1333 q 1413 1322 1413 1333 q 1396 1308 1409 1308 l 1388 1319 l 1388 1327 q 1396 1333 1388 1333 m -201 1324 l -180 1324 l -180 1319 q -201 1303 -191 1303 l -207 1319 l -201 1324 m 1139 1316 q 1147 1303 1143 1316 l 1131 1297 l 1125 1314 l 1128 1316 l 1139 1316 m 1746 1246 l 1749 1246 l 1757 1238 l 1757 1232 l 1752 1227 l 1746 1227 l 1741 1232 l 1741 1240 l 1746 1246 m -177 1208 l -158 1208 l -155 1205 l -153 1205 q -174 1181 -153 1193 l -182 1192 l -182 1202 l -177 1208 m 810 1162 l 813 1162 l 819 1156 l 819 1151 l 813 1145 l 808 1145 l 802 1151 l 802 1154 l 810 1162 m 498 1124 l 509 1124 l 517 1116 l 517 1110 q 498 1097 515 1102 l 493 1105 l 493 1118 l 498 1124 m 683 999 l 691 999 l 696 994 l 696 985 l 669 964 l 664 964 l 661 983 l 661 991 q 683 999 663 999 m -123 988 l -112 988 l -106 983 l -106 966 q -142 950 -106 956 l -142 956 q -123 988 -132 988 m 7 980 q 45 964 45 980 l 45 956 l 62 956 q 83 942 77 956 l 83 931 q 59 918 72 918 q 45 937 45 927 q 24 956 24 937 l 7 975 l 7 980 m 987 969 q 998 953 992 969 l 995 950 l 987 950 l 981 956 l 981 964 l 987 969 m 1716 798 l 1725 798 l 1725 785 l 1719 779 l 1706 779 l 1706 787 l 1716 798 m 1611 717 l 1624 717 q 1630 709 1630 717 l 1638 709 l 1654 711 q 1670 703 1670 708 l 1670 692 q 1638 679 1670 683 q 1594 690 1630 684 q 1611 717 1605 716 m 1830 703 l 1855 703 l 1863 695 l 1863 692 q 1836 671 1851 671 q 1825 679 1825 675 l 1825 698 l 1830 703 m 591 654 l 596 654 l 596 652 l 593 638 l 588 638 l 591 654 m 1828 492 l 1852 492 l 1860 484 l 1841 462 q 1820 481 1820 473 q 1828 492 1824 492 m 1876 486 q 1920 478 1920 486 l 1920 467 q 1898 454 1920 461 q 1871 481 1871 463 l 1876 486 m 395 465 l 398 465 l 398 448 l 393 443 l 382 443 l 379 446 l 376 446 q 395 465 378 465 m 1364 459 l 1372 459 q 1383 432 1378 459 l 1402 432 l 1410 437 l 1413 429 q 1391 402 1407 402 q 1356 448 1356 433 l 1356 451 l 1364 459 m 1939 437 l 1942 435 q 1933 418 1938 418 l 1931 418 l 1923 427 l 1923 429 q 1939 437 1923 435 m 260 432 l 268 432 l 273 427 l 273 424 q 257 416 273 418 l 254 418 l 254 427 l 260 432 m 1936 402 l 1944 375 q 1909 351 1944 351 q 1901 370 1901 361 l 1901 383 q 1936 402 1914 402 m 374 361 l 379 356 q 360 337 379 337 l 355 359 l 357 361 l 374 361 m 634 250 q 645 242 645 246 l 637 237 l 634 237 l 631 248 l 634 250 m 219 125 l 224 125 l 230 115 l 227 112 l 219 112 l 214 117 q 219 125 219 117 m 648 -10 l 667 -10 l 672 -16 l 672 -21 q 648 -35 672 -27 l 642 -26 l 642 -16 l 648 -10 m 184 -13 l 195 -13 q 184 -37 195 -33 l 178 -32 l 178 -18 l 184 -13 z "},"$":{"ha":1162,"x_min":-791,"x_max":2494,"o":"m 1313 1595 q 1332 1584 1332 1592 l 1332 1579 q 1299 1503 1332 1558 q 1280 1481 1299 1481 q 1259 1419 1274 1442 l 1259 1413 q 1267 1381 1264 1408 q 1280 1316 1273 1381 l 1283 1313 l 1283 1308 l 1278 1299 l 1299 1267 q 1289 1221 1291 1257 l 1291 1210 l 1286 1210 q 1270 1188 1284 1200 l 1270 1185 l 1267 1185 l 1264 1188 l 1261 1188 q 1210 1123 1243 1141 q 1093 1044 1175 1084 l 1082 1044 q 1031 1085 1063 1056 q 990 1120 1010 1085 l 990 1123 q 1001 1177 990 1148 q 996 1207 996 1188 q 1015 1237 996 1230 l 1017 1237 l 1028 1226 l 1028 1213 l 1044 1213 l 1047 1210 l 1050 1210 q 1080 1253 1053 1253 l 1085 1248 q 1063 1191 1063 1200 l 1063 1177 q 1080 1131 1074 1170 l 1082 1128 l 1101 1128 l 1134 1131 l 1139 1126 l 1142 1126 q 1175 1169 1160 1135 q 1215 1283 1187 1169 l 1215 1299 q 1194 1324 1215 1314 q 1158 1351 1177 1351 l 1153 1351 q 1134 1343 1144 1351 l 1101 1354 l 1096 1354 q 1023 1340 1059 1354 l 1015 1348 l 993 1326 q 960 1337 960 1332 l 960 1340 q 1009 1367 960 1360 l 1023 1378 q 1004 1394 1023 1383 l 990 1394 q 928 1362 963 1390 l 914 1356 l 884 1359 l 882 1359 q 852 1318 882 1345 q 825 1289 848 1318 q 803 1272 812 1272 l 800 1270 l 800 1267 l 811 1267 q 817 1275 811 1275 l 819 1272 l 819 1270 q 779 1207 779 1222 l 779 1185 l 787 1156 l 784 1156 q 773 1145 773 1156 l 776 1034 l 779 1025 l 773 1020 l 773 1017 q 795 960 773 981 l 795 955 q 784 949 784 955 l 784 947 q 795 939 784 939 l 789 917 l 789 914 l 795 906 l 795 887 l 792 884 q 808 863 792 878 l 806 846 l 811 825 l 819 825 l 825 830 l 817 841 l 819 854 q 806 917 819 875 q 819 936 806 928 q 849 892 849 929 l 846 882 l 849 871 l 846 871 q 860 808 855 813 l 857 784 l 863 779 l 860 762 l 868 692 l 868 659 l 873 651 l 873 648 l 868 640 q 892 608 872 621 l 901 572 l 895 567 l 895 564 l 898 551 q 879 526 893 550 l 882 513 q 852 456 852 488 q 811 385 839 454 l 787 347 q 765 326 765 341 l 760 326 l 754 331 l 762 345 l 762 361 l 754 369 q 738 339 750 369 q 716 317 716 330 l 719 317 l 732 315 l 735 317 l 735 320 l 751 317 l 751 309 q 711 290 719 290 l 700 298 l 697 298 l 694 296 l 692 296 l 686 301 l 681 296 l 686 288 q 662 277 671 285 l 637 277 q 594 266 637 271 q 526 241 594 256 q 467 231 524 233 l 401 231 l 377 233 q 285 160 355 229 q 182 81 211 133 q 119 0 140 0 l 117 0 q 95 38 109 4 l 95 43 l 109 76 q 152 171 152 105 q 179 269 179 211 l 179 274 q 127 336 179 295 q 103 355 127 352 q 41 415 94 382 q 11 488 11 470 l 14 510 l 11 510 l 0 515 l 8 632 l 3 648 l 14 656 l 19 656 l 22 654 l 24 654 l 33 673 l 30 675 l 27 675 l 14 673 l 14 678 q 38 749 38 695 q 157 852 56 770 l 212 901 l 220 895 l 244 906 l 247 898 l 252 898 q 266 914 266 898 l 279 920 l 307 909 l 328 909 q 355 895 343 895 l 363 898 q 420 887 376 890 q 442 876 420 881 l 450 879 l 450 882 q 415 895 450 891 l 412 898 l 412 909 q 437 917 412 915 q 486 895 437 907 q 583 838 517 869 q 665 703 636 799 q 675 646 675 664 l 675 632 q 651 575 675 614 l 646 575 l 643 578 l 640 578 q 564 513 640 544 l 556 513 l 551 518 q 583 572 564 572 q 608 651 608 614 l 608 667 l 610 670 l 608 673 l 608 689 q 545 798 608 772 q 475 830 545 830 l 472 827 l 472 825 q 529 749 529 763 l 526 741 l 524 741 l 507 754 l 483 754 l 450 795 l 437 798 q 429 787 437 787 q 396 825 404 825 l 336 838 q 214 795 214 813 q 165 770 205 785 q 114 686 144 747 l 119 681 l 119 678 l 106 662 l 109 659 l 109 656 l 103 586 l 103 583 l 87 578 l 87 559 l 92 537 l 92 532 l 90 529 l 100 491 l 111 491 q 117 502 111 502 q 133 450 126 502 l 136 453 l 144 453 l 163 439 l 163 510 q 176 556 176 515 q 212 597 189 585 l 225 624 l 228 621 l 233 621 q 298 640 233 632 l 307 635 l 331 637 q 407 510 407 568 l 407 496 q 382 415 402 415 q 363 404 374 415 l 345 404 l 339 410 l 339 412 l 345 420 l 342 429 l 345 431 l 358 426 l 361 429 l 361 437 l 358 456 q 369 510 366 456 q 331 543 369 528 q 312 567 323 567 l 301 578 q 241 553 260 578 q 225 529 227 553 q 212 502 214 529 l 212 480 q 258 388 212 443 q 317 320 258 363 q 401 298 393 311 l 404 301 l 467 288 l 488 290 l 499 285 l 518 293 l 526 290 q 559 309 538 290 l 572 307 q 608 326 574 314 q 646 350 616 342 q 681 385 648 363 l 719 442 l 708 458 l 708 477 q 727 553 727 496 l 727 562 l 732 570 l 732 581 l 724 591 l 727 610 q 684 819 705 741 q 651 876 651 864 q 621 1044 621 983 l 629 1050 q 651 1006 651 1034 l 646 987 l 654 974 l 651 960 q 675 903 671 923 l 678 903 l 681 906 l 684 906 l 681 920 l 686 925 l 692 925 q 713 852 703 925 q 754 749 736 812 q 779 646 773 705 l 789 635 l 789 637 l 787 651 l 795 667 q 776 749 786 744 l 779 770 q 757 849 769 781 l 757 852 l 760 854 l 746 887 l 749 911 q 708 1077 725 949 l 713 1109 q 705 1137 705 1124 l 705 1150 l 732 1202 l 754 1278 q 760 1294 760 1278 q 784 1316 774 1316 q 819 1364 785 1333 q 836 1383 823 1377 q 841 1392 836 1392 l 854 1392 q 860 1400 854 1400 l 865 1392 l 863 1381 q 890 1397 890 1383 l 906 1392 q 928 1419 913 1392 l 1031 1438 l 1036 1438 q 1055 1430 1045 1438 l 1069 1430 q 1074 1440 1069 1440 l 1082 1430 l 1096 1432 l 1126 1424 q 1229 1495 1174 1435 l 1289 1568 q 1313 1595 1289 1580 m 637 1126 q 651 1118 651 1122 l 651 1101 q 637 1093 644 1101 l 635 1093 l 627 1101 l 627 1112 l 637 1126 m 519 1202 l 522 1202 l 559 1192 l 559 1189 q 535 1164 556 1164 l 530 1164 l 519 1202 m 1075 1197 l 1086 1197 l 1091 1192 l 1091 1183 l 1086 1178 l 1078 1178 l 1069 1186 l 1069 1192 l 1075 1197 m -786 972 l -781 972 l -781 966 l -789 958 l -791 958 l -791 966 l -786 972 m 1086 798 l 1091 798 q 1099 782 1099 795 l 1099 779 l 1083 779 l 1078 785 l 1078 790 l 1086 798 m 1392 771 l 1398 771 l 1400 768 l 1403 768 q 1384 733 1392 733 l 1381 736 l 1381 744 q 1392 771 1385 771 m 2480 749 l 2488 749 l 2494 744 l 2485 739 l 2475 739 l 2475 744 l 2480 749 m 1322 709 l 1330 709 l 1335 703 q 1324 682 1329 682 l 1316 682 l 1314 684 l 1311 684 q 1322 709 1315 709 m 1341 673 l 1352 673 l 1357 668 q 1349 660 1349 668 l 1346 657 l 1341 657 l 1335 663 l 1335 668 l 1341 673 m 1607 654 l 1609 652 l 1609 649 q 1574 611 1609 631 l 1571 614 l 1571 616 q 1607 654 1575 654 m 622 641 l 638 641 l 644 635 q 622 625 644 629 l 614 630 l 622 641 m 1192 633 l 1194 633 q 1219 576 1202 633 l 1227 568 q 1205 554 1227 561 q 1175 597 1175 583 q 1192 633 1184 632 m 2336 625 l 2344 625 q 2369 576 2355 621 l 2366 573 l 2363 573 q 2320 589 2353 573 q 2293 573 2309 573 l 2285 606 l 2306 614 l 2317 606 l 2320 606 l 2336 625 m 2439 606 l 2448 606 l 2453 600 l 2453 595 q 2437 584 2448 584 l 2434 587 l 2434 600 l 2439 606 m 1371 600 l 1376 584 l 1376 578 l 1368 570 l 1362 570 l 1362 592 l 1371 600 m 893 589 q 918 568 918 589 q 937 549 918 549 l 942 532 q 915 494 942 494 l 899 484 l 896 486 l 896 489 l 899 492 l 899 494 q 885 546 885 515 l 885 568 q 893 589 885 588 m 1360 554 l 1360 551 q 1338 524 1355 524 l 1327 522 l 1316 530 l 1316 538 q 1360 554 1316 549 m 2222 543 l 2239 543 q 2220 516 2239 529 l 2214 532 l 2214 535 l 2222 543 m 1531 522 q 1550 481 1550 500 l 1550 475 l 1544 470 l 1503 470 q 1476 484 1476 475 q 1512 519 1487 519 l 1531 522 m 1449 481 l 1460 473 l 1460 467 q 1428 443 1446 443 l 1422 443 l 1422 446 q 1449 481 1436 479 m 1826 465 q 1834 448 1834 462 l 1834 443 q 1796 432 1834 437 l 1794 435 l 1794 440 q 1826 465 1794 465 m 1208 446 q 1227 424 1224 446 q 1208 418 1227 418 q 1221 391 1221 409 q 1189 372 1204 372 l 1186 416 l 1202 418 l 1202 421 l 1197 421 q 1208 446 1197 442 m 1688 427 q 1674 375 1681 375 l 1666 375 q 1647 418 1651 375 q 1688 429 1672 429 l 1688 427 m 1737 427 q 1775 367 1762 427 l 1740 367 l 1723 375 q 1737 427 1729 427 m 2195 416 l 2198 416 l 2225 389 l 2225 372 l 2198 348 l 2187 359 l 2187 375 l 2195 416 m 1843 394 l 1845 394 l 1851 389 l 1848 380 l 1843 380 l 1843 394 m 1335 386 l 1341 386 l 1346 380 l 1346 367 l 1335 367 l 1327 375 q 1335 386 1331 386 z "},"%":{"ha":1820,"x_min":-2235,"x_max":1940,"o":"m 716 1554 l 773 1544 l 789 1546 q 849 1511 820 1546 l 852 1508 l 852 1506 l 849 1503 l 846 1503 l 833 1508 q 678 1484 716 1501 q 640 1468 665 1474 q 610 1446 640 1457 q 564 1411 610 1436 q 502 1351 564 1403 l 415 1256 q 347 1185 415 1249 q 326 1150 339 1150 q 298 1099 326 1137 q 269 1009 269 1038 l 271 996 l 266 985 l 288 909 l 277 901 l 277 898 q 301 884 277 892 q 358 860 301 860 l 372 860 q 453 887 385 860 q 502 909 502 890 l 532 920 l 567 936 q 627 968 627 955 q 719 1058 644 968 q 800 1166 733 1058 q 833 1218 831 1202 q 863 1278 848 1218 l 863 1302 l 852 1308 l 854 1310 l 854 1316 q 841 1340 849 1340 q 781 1316 832 1340 l 776 1316 l 716 1318 l 713 1316 l 711 1332 l 705 1332 q 673 1313 673 1332 q 659 1302 673 1302 q 640 1321 654 1321 l 640 1318 l 610 1291 l 608 1283 l 616 1270 l 616 1261 q 602 1253 616 1255 l 586 1256 l 578 1253 l 578 1213 l 581 1210 l 581 1207 l 578 1204 l 553 1204 q 545 1237 548 1204 q 610 1337 586 1337 q 703 1383 680 1383 l 808 1400 q 857 1364 845 1364 q 871 1343 871 1364 l 868 1335 l 871 1335 l 882 1343 l 887 1337 l 887 1335 l 882 1329 q 892 1305 892 1313 l 892 1270 l 890 1253 l 892 1240 l 892 1237 q 822 1096 892 1230 q 765 1015 793 1015 l 760 1004 l 762 996 q 667 909 704 967 l 640 882 q 491 811 555 829 q 263 776 347 776 q 155 857 179 776 l 155 873 q 187 996 174 960 q 201 1036 201 1023 l 198 1044 q 231 1107 212 1051 q 252 1145 248 1127 l 250 1158 l 263 1183 q 277 1199 271 1183 l 285 1199 l 285 1213 q 339 1270 309 1247 q 358 1286 339 1280 q 396 1335 375 1335 q 423 1367 396 1343 q 448 1443 448 1418 q 420 1476 441 1476 l 396 1481 q 372 1465 381 1465 l 372 1468 l 374 1470 l 369 1487 l 369 1492 l 372 1495 l 372 1497 l 374 1495 l 380 1495 q 396 1506 380 1506 q 434 1522 396 1519 q 442 1533 435 1533 l 453 1533 l 453 1527 l 439 1511 q 507 1446 455 1477 q 575 1500 563 1487 l 581 1500 l 583 1497 l 586 1497 q 640 1519 601 1519 q 713 1552 640 1543 l 716 1554 m 1915 1476 l 1923 1476 q 1940 1468 1940 1474 l 1940 1454 q 1807 1394 1917 1431 q 1641 1305 1747 1354 l 1573 1261 l 1538 1229 q 1516 1215 1538 1219 q 1356 1109 1426 1149 l 1240 1020 l 1137 939 q 1104 901 1104 908 q 1055 852 1104 870 l 917 751 q 863 708 897 745 l 724 608 q 640 534 720 596 q 445 374 520 441 q 426 358 426 374 q 277 222 315 268 q 122 65 205 165 q 57 3 70 3 l 49 3 q 33 27 33 14 q 76 79 49 29 q 92 103 85 79 l 84 119 l 84 125 q 146 190 84 132 l 144 193 l 144 195 l 171 209 l 168 222 q 201 252 174 222 q 282 331 205 252 q 315 369 291 336 q 331 382 321 369 q 363 410 338 382 l 369 410 l 369 423 q 426 483 426 477 l 456 507 q 469 524 464 507 q 665 711 578 621 q 773 808 671 711 q 844 863 791 827 q 922 933 886 913 l 963 979 q 990 1009 969 996 q 1028 1036 1002 1009 l 1034 1036 q 1044 1020 1034 1025 l 1107 1061 q 1158 1096 1132 1087 q 1232 1158 1214 1158 l 1237 1158 q 1248 1142 1248 1153 l 1242 1137 l 1245 1134 l 1248 1134 q 1310 1175 1263 1136 l 1316 1175 q 1351 1199 1316 1186 q 1397 1234 1352 1205 q 1438 1256 1414 1256 q 1554 1329 1442 1270 q 1695 1408 1571 1343 q 1731 1421 1695 1417 q 1799 1454 1744 1432 l 1815 1440 l 1828 1440 l 1915 1476 m 928 879 l 914 882 l 846 814 q 795 768 833 814 q 776 754 795 754 q 751 730 760 730 l 749 730 l 749 727 l 751 724 l 751 722 q 795 751 795 746 l 825 781 l 838 781 q 868 814 838 804 q 882 822 868 822 q 887 830 882 830 l 901 830 l 901 846 l 917 846 q 1053 979 951 871 l 1050 979 q 987 933 1031 975 l 933 895 l 928 879 m 1367 800 q 1419 779 1398 779 q 1473 749 1473 763 q 1465 743 1473 743 l 1465 705 q 1489 670 1489 686 l 1497 670 l 1514 686 q 1541 667 1541 673 l 1541 665 q 1533 659 1541 659 l 1538 629 l 1533 624 l 1535 613 l 1530 608 l 1530 605 l 1538 591 l 1522 551 l 1514 551 q 1489 570 1498 551 l 1492 572 l 1495 572 l 1497 570 l 1500 570 l 1500 572 l 1497 581 q 1519 613 1514 592 l 1516 613 l 1511 618 l 1511 621 q 1525 632 1512 627 l 1511 648 l 1511 651 q 1525 659 1511 659 l 1511 670 q 1487 659 1501 662 l 1489 618 l 1489 594 q 1470 545 1478 585 q 1443 491 1457 538 l 1427 467 l 1430 458 l 1400 415 l 1400 412 l 1402 399 q 1354 317 1386 399 l 1356 315 l 1359 315 q 1449 418 1409 355 q 1481 483 1481 462 l 1489 496 l 1489 524 q 1522 545 1505 545 l 1525 543 l 1525 532 l 1519 521 l 1544 491 l 1544 483 q 1508 431 1544 470 q 1451 350 1508 414 q 1305 182 1433 300 q 1234 138 1257 143 l 1232 141 l 1191 109 q 1107 33 1143 43 l 1093 35 q 1028 22 1093 28 l 993 24 l 944 0 l 939 0 q 922 30 935 0 l 920 33 l 920 35 l 922 43 l 920 43 q 871 109 871 75 q 854 236 861 109 l 852 239 l 852 241 l 857 250 l 854 252 l 854 293 q 898 412 854 309 q 911 437 898 424 q 993 553 964 523 q 1023 594 1013 591 q 1137 716 1023 618 q 1191 754 1152 716 l 1251 779 l 1278 779 q 1318 789 1313 784 l 1337 787 q 1367 800 1337 800 m 1289 738 l 1283 743 l 1278 743 q 1245 700 1271 742 q 1226 692 1235 692 l 1221 692 l 1204 700 l 1204 697 q 1153 648 1198 679 l 1123 610 q 1053 529 1101 610 q 1009 458 1023 463 l 1006 456 l 1012 450 l 1012 445 q 998 426 998 433 l 985 418 l 985 415 l 987 404 q 963 326 969 380 l 952 274 l 955 263 l 952 244 q 982 133 958 133 l 993 122 l 1006 125 l 1031 117 l 1034 117 l 1063 122 l 1066 122 l 1085 117 l 1101 122 l 1104 119 q 1172 160 1104 140 q 1278 255 1190 160 q 1291 271 1278 262 q 1316 309 1301 309 l 1337 347 l 1324 347 q 1318 339 1324 339 l 1316 339 l 1310 345 q 1324 372 1318 345 q 1405 488 1339 372 q 1459 640 1459 563 l 1459 643 q 1392 743 1459 717 q 1345 757 1392 751 q 1297 738 1325 757 l 1289 738 m 659 651 l 659 643 q 684 667 669 643 l 692 667 l 692 681 l 689 681 l 659 651 m 33 84 l 35 84 l 49 71 l 49 68 q 3 27 18 32 l 0 30 l 3 33 l 0 52 l 0 54 q 33 84 17 75 m 1634 1747 q 1650 1725 1650 1742 q 1626 1695 1650 1714 q 1593 1728 1593 1699 q 1634 1747 1593 1747 m -1114 1554 l -1112 1552 l -1112 1546 l -1120 1481 q -1095 1454 -1115 1481 l -1087 1454 q -1128 1421 -1087 1421 l -1133 1421 q -1152 1487 -1143 1421 l -1152 1492 q -1125 1519 -1152 1508 q -1114 1554 -1123 1554 m 1498 1449 q 1487 1424 1498 1424 q 1463 1440 1473 1424 l 1463 1446 l 1498 1451 l 1498 1449 m 1674 1419 l 1677 1416 l 1677 1408 l 1672 1402 l 1661 1405 l 1661 1408 q 1674 1419 1662 1413 m -2197 1329 l -2183 1294 q -2205 1242 -2183 1271 l -2216 1242 q -2235 1267 -2235 1242 l -2235 1283 l -2232 1286 l -2210 1294 l -2210 1321 q -2197 1329 -2210 1327 m -395 1326 l -390 1310 l -390 1308 q -401 1275 -390 1289 l -420 1278 l -428 1275 l -431 1278 l -431 1291 q -412 1324 -416 1305 l -395 1326 m -1895 1321 l -1893 1321 l -1890 1308 l -1893 1305 l -1901 1305 l -1901 1316 l -1895 1321 m -1068 1321 l -1065 1321 l -1063 1318 l -1060 1318 q -1095 1294 -1060 1294 l -1101 1294 l -1101 1305 q -1068 1321 -1090 1321 m -1133 1291 l -1128 1291 l -1128 1286 l -1136 1278 l -1141 1278 l -1141 1283 l -1133 1291 m 39 1264 l 50 1264 l 60 1261 l 71 1264 l 74 1264 q 47 1240 74 1244 l 44 1240 l 39 1245 l 39 1264 m -16 1259 l 3 1259 q -21 1232 3 1232 l -24 1234 l -24 1237 q -16 1259 -21 1259 m -116 1256 l -116 1253 q -157 1204 -123 1204 q -130 1253 -136 1253 l -116 1256 m 261 1248 l 264 1248 q 250 1215 259 1215 l 237 1215 l 231 1221 l 231 1223 l 261 1248 m -1687 1240 l -1676 1240 l -1676 1234 q -1697 1175 -1676 1197 q -1730 1185 -1730 1178 l -1711 1210 l -1689 1210 l -1695 1234 l -1687 1240 m 1088 1240 l 1094 1240 l 1069 1172 l 1061 1172 q 1050 1199 1054 1172 l 1050 1210 q 1088 1240 1050 1232 m -1898 1223 l -1890 1213 l -1890 1207 l -1895 1202 l -1914 1202 l -1914 1215 q -1898 1223 -1914 1221 m -10 1194 l -5 1194 l -5 1180 q -16 1172 -5 1176 l -18 1175 q -10 1194 -16 1194 m 1371 1145 l 1376 1145 l 1381 1112 q 1338 1088 1353 1088 l 1335 1090 l 1335 1120 q 1349 1126 1335 1126 q 1371 1145 1371 1137 m 1455 1139 l 1466 1139 l 1468 1137 l 1471 1137 q 1463 1115 1468 1115 l 1455 1115 l 1449 1120 l 1449 1134 l 1455 1139 m 210 1134 l 212 1115 l 212 1104 l 204 1104 q 196 1123 198 1104 q 201 1131 201 1123 l 204 1134 l 210 1134 m 926 1128 l 945 1112 l 945 1082 l 939 1082 l 937 1101 l 923 1101 l 923 1085 l 918 1080 l 912 1080 l 907 1085 q 926 1128 914 1121 m -1630 1126 l -1624 1126 q -1616 1109 -1616 1123 l -1616 1107 l -1624 1099 l -1630 1099 l -1635 1104 l -1635 1120 l -1630 1126 m -1508 1112 l -1502 1112 l -1502 1090 l -1510 1090 l -1516 1096 l -1508 1112 m 1674 1096 l 1677 1093 l 1677 1090 q 1666 1072 1677 1076 l 1631 1072 l 1631 1077 l 1674 1096 m 1677 1036 l 1677 985 q 1669 979 1677 979 q 1636 1028 1653 979 q 1677 1036 1651 1036 m 888 1028 l 890 1028 l 890 1009 l 885 1004 l 880 1009 l 880 1020 l 888 1028 m 923 1015 l 926 1015 q 966 963 944 1003 l 994 963 q 983 925 994 925 l 964 922 q 942 928 942 924 q 896 857 896 911 q 947 806 896 806 q 961 789 961 801 l 964 789 q 991 814 964 808 l 1015 814 l 1015 817 l 1013 841 l 1026 852 l 1026 865 q 1007 857 1016 857 l 1002 857 q 972 887 979 857 l 994 884 q 1031 925 1027 884 q 1042 933 1031 932 l 1064 920 l 1064 898 q 1053 890 1064 890 l 1053 887 q 1083 846 1083 869 q 1064 811 1069 832 q 1026 792 1046 811 l 1018 792 l 1015 795 l 972 776 l 972 757 q 958 749 972 752 l 956 751 l 956 773 l 934 784 l 926 776 l 926 773 q 937 765 937 772 l 937 762 l 896 719 l 893 719 q 885 730 886 719 l 890 765 l 858 770 l 858 746 l 869 732 l 869 730 l 828 722 l 820 727 l 852 806 l 855 819 l 852 836 l 852 841 q 885 966 885 886 q 915 1009 905 966 l 923 1015 m -127 903 l -124 901 l -124 898 q -159 863 -130 863 q -127 903 -159 886 m -987 833 l -981 827 l -981 822 l -984 819 l -984 817 q -998 830 -991 817 l -995 833 l -987 833 m 1455 830 l 1457 827 l 1457 814 l 1452 808 l 1449 808 l 1433 814 q 1455 830 1433 823 m -1011 825 l -1008 822 l -1008 817 q -1025 808 -1008 811 l -1027 811 l -1027 817 q -1011 825 -1027 821 m 1135 808 l 1137 806 l 1137 795 l 1135 795 l 1121 800 l 1121 806 l 1135 808 m 1566 795 l 1615 762 q 1585 727 1615 731 q 1517 749 1517 733 l 1517 757 q 1547 779 1517 762 q 1566 795 1547 795 m -922 787 l -916 735 l -919 732 l -922 732 q -943 768 -943 732 l -943 776 q -922 787 -943 781 m -862 787 l -857 765 l -857 762 l -859 760 l -859 757 q -884 770 -876 757 l -884 776 q -862 787 -884 784 m 12 779 l 17 779 l 25 768 q 12 746 25 753 l 6 751 l 6 773 l 12 779 m -1006 773 l -1006 762 l -1011 757 l -1017 770 l -1014 773 l -1006 773 m 1384 773 l 1387 770 q 1376 749 1380 749 l 1362 749 l 1357 754 q 1384 773 1377 773 m 1341 746 l 1346 746 l 1352 741 q 1338 708 1345 708 l 1333 713 q 1341 746 1334 746 m 1140 730 l 1140 727 q 1126 692 1137 692 l 1116 700 l 1116 703 q 1140 730 1122 730 m -268 722 q -243 692 -243 708 l -254 684 l -271 684 l -287 705 l -287 708 q -268 722 -284 716 m 1045 722 l 1048 719 l 1048 711 q 1034 705 1048 705 l 1031 697 q 1021 708 1021 700 q 1045 722 1021 718 m -37 716 l -35 713 l -40 700 l -45 700 l -48 711 l -37 716 m 1495 716 l 1498 713 l 1498 711 l 1490 703 l 1487 705 l 1487 713 l 1495 716 m 1593 689 l 1598 684 l 1598 665 l 1593 659 l 1585 659 q 1593 689 1587 689 m 1037 686 l 1040 686 l 1045 681 l 1045 675 l 1037 675 l 1037 686 m 1398 684 q 1406 648 1406 671 q 1395 632 1406 637 q 1368 667 1368 659 q 1398 684 1379 678 m 226 675 l 229 675 q 234 667 229 667 l 234 659 l 223 654 l 220 654 l 220 670 l 226 675 m 1219 640 l 1221 637 l 1221 632 q 1211 605 1218 605 l 1205 605 q 1186 616 1191 605 l 1186 621 l 1219 640 m 1004 637 l 1010 637 q 1021 629 1010 631 l 1023 627 l 1023 610 l 1004 610 l 999 616 l 1004 637 m 1395 627 l 1400 621 l 1400 608 l 1392 600 l 1373 600 l 1365 608 l 1365 613 q 1395 627 1365 623 m 1447 621 l 1457 613 l 1457 589 q 1438 578 1457 585 q 1414 613 1414 589 l 1447 621 m 1322 618 l 1324 618 l 1330 613 l 1324 581 l 1322 581 q 1300 605 1300 581 l 1316 610 q 1322 618 1316 618 m -349 594 l -336 583 q -347 567 -341 567 l -355 567 l -360 572 l -360 583 l -349 594 m 1056 594 l 1061 594 l 1061 591 q 1053 575 1061 577 l 1050 575 l 1050 589 l 1056 594 m 861 589 l 861 581 l 850 570 q 842 581 846 570 l 861 589 m 652 575 l 654 567 q 627 548 654 558 l 616 556 l 616 567 l 652 575 m 503 567 l 508 562 l 508 556 l 503 551 q 492 564 497 552 l 494 567 l 503 567 m 698 556 q 741 534 741 542 l 741 521 q 701 502 723 502 l 665 524 l 665 540 q 698 556 675 556 m 790 532 l 795 532 l 795 518 l 790 513 l 785 513 l 782 515 l 779 515 q 790 532 785 532 m 882 526 l 885 524 l 885 515 l 880 510 l 871 510 l 866 515 l 866 518 q 882 526 869 526 m 1110 518 l 1110 494 l 1105 488 l 1102 488 l 1097 494 l 1097 510 q 1110 518 1097 516 m 570 510 q 578 494 578 507 l 576 491 l 570 491 q 559 507 565 491 l 562 510 l 570 510 m 82 499 l 90 499 q 104 475 96 499 l 101 472 l 93 472 q 82 499 85 472 m 953 499 l 958 494 l 958 488 l 950 480 l 945 486 q 953 499 948 499 m 1623 496 q 1628 488 1628 496 l 1620 477 l 1612 486 l 1623 496 m 484 488 l 484 480 l 478 475 l 473 480 l 473 483 l 484 488 m 1457 437 q 1466 401 1463 437 l 1463 399 l 1430 399 l 1425 404 l 1425 410 l 1457 437 m 478 410 l 481 410 l 484 396 l 478 391 l 475 391 q 470 399 470 391 l 478 410 m 1254 393 q 1267 372 1267 380 l 1286 372 l 1292 366 l 1292 363 q 1249 345 1270 345 l 1243 345 l 1232 350 l 1232 355 l 1254 361 l 1254 369 q 1235 377 1254 374 l 1235 385 q 1254 393 1235 391 m 180 382 q 193 363 193 374 q 177 350 189 350 l 177 353 l 172 369 l 172 374 l 180 382 m 744 358 q 736 334 742 334 l 714 334 l 711 336 l 709 336 q 744 358 709 358 m 885 339 l 888 339 q 863 307 888 322 q 844 290 863 290 l 836 290 l 828 298 l 828 315 q 880 334 828 321 l 885 339 m 1305 320 l 1308 320 l 1308 317 q 1273 296 1304 306 l 1273 307 q 1305 320 1273 313 m -805 298 l -800 271 q -838 247 -825 247 l -848 247 l -854 252 q -805 298 -827 298 m -905 293 q -916 263 -908 263 l -924 263 q -932 282 -930 263 q -905 293 -915 293 m 1276 293 l 1278 293 l 1278 290 q 1257 258 1278 273 l 1254 258 l 1246 266 l 1246 282 q 1276 293 1246 289 m 942 274 q 966 260 966 264 l 966 241 q 939 231 966 236 l 915 209 q 928 184 921 209 l 920 163 q 945 155 930 155 l 945 157 l 939 193 l 939 195 l 945 201 q 966 190 966 201 q 953 117 966 149 l 926 127 l 907 106 l 899 106 l 893 111 l 893 141 q 907 168 907 159 l 904 184 q 888 171 890 184 l 882 171 l 882 174 l 871 239 l 942 274 m -778 271 l -775 269 l -775 258 l -781 252 l -786 252 l -791 258 l -791 269 l -778 271 m 1205 250 l 1211 244 l 1211 239 l 1205 233 l 1200 239 l 1200 244 l 1205 250 m 253 241 l 258 236 l 258 233 q 248 225 258 229 l 245 228 l 245 231 l 253 241 m 1550 231 l 1555 214 l 1552 212 l 1544 212 l 1541 214 l 1539 214 q 1550 231 1545 231 m 801 201 q 839 171 832 183 l 839 165 q 787 141 787 159 q 760 109 766 141 l 758 106 l 755 106 q 730 114 730 108 l 730 125 q 760 136 730 131 l 760 146 l 758 187 q 801 201 781 201 m 858 193 l 863 187 l 858 182 l 850 182 l 850 184 l 858 193 m 1607 182 l 1612 176 l 1612 168 l 1607 163 l 1604 163 q 1596 179 1596 165 l 1598 182 l 1607 182 m 1468 160 l 1471 157 q 1485 152 1471 152 l 1487 149 l 1487 144 q 1419 127 1487 134 l 1417 130 l 1428 157 l 1447 152 l 1468 160 m 188 152 l 191 152 l 191 144 l 185 138 l 174 138 l 174 141 l 188 152 m 242 146 l 248 146 q 275 103 248 138 l 277 92 l 248 84 q 229 100 231 90 q 242 146 237 146 m -227 141 l -224 141 l -222 122 l -227 79 l -230 79 q -243 125 -239 83 l -243 133 q -227 141 -241 141 m 1040 130 q 1056 79 1056 127 l 1056 73 l 1050 68 l 1045 68 q 1037 125 1037 68 l 1040 127 l 1040 130 m 939 100 l 950 100 q 942 81 947 81 l 934 90 l 934 95 l 939 100 m -108 87 q -40 68 -50 79 q -83 16 -40 16 l -105 16 l -105 52 q -124 60 -105 58 l -124 71 q -108 87 -117 85 z "},"&":{"ha":1322,"x_min":-3093,"x_max":4268,"o":"m 922 1508 l 977 1495 q 1017 1468 986 1495 q 1109 1408 1029 1468 q 1123 1400 1109 1401 q 1169 1375 1123 1387 q 1194 1275 1194 1354 l 1196 1272 q 1150 1101 1177 1147 l 1150 1096 l 1153 1085 q 1134 1061 1152 1075 l 1134 1055 l 1137 1042 q 1126 1023 1131 1042 q 1107 982 1113 1023 q 1020 873 1086 969 q 895 830 952 830 q 841 814 884 830 l 822 814 q 784 781 810 795 l 770 784 q 716 743 770 777 l 716 738 q 703 700 716 711 l 708 678 l 708 675 l 692 648 q 722 627 692 637 q 787 570 732 612 q 819 502 811 539 q 827 472 827 502 q 838 437 836 472 q 895 515 864 437 q 914 556 895 545 l 914 559 l 909 567 l 914 572 q 930 562 914 567 l 944 581 l 944 591 l 933 594 q 960 618 933 599 q 1006 665 966 635 l 1020 662 q 1061 697 1020 692 q 1101 722 1088 722 l 1104 719 q 1180 751 1143 751 q 1223 768 1187 768 l 1259 770 q 1326 705 1326 751 q 1343 665 1339 684 l 1343 646 q 1308 540 1343 613 q 1221 442 1289 524 l 1204 429 l 1196 429 q 1166 445 1177 429 q 1082 491 1102 445 l 1077 507 q 1118 589 1103 589 q 1172 534 1123 589 l 1188 532 q 1270 581 1228 537 l 1294 624 l 1291 640 l 1297 646 l 1297 648 q 1275 681 1297 660 l 1272 689 q 1245 681 1252 686 l 1242 681 l 1242 686 l 1240 686 l 1215 675 l 1213 678 l 1213 681 q 1226 686 1213 686 l 1226 689 l 1221 694 l 1218 694 q 1210 684 1214 694 q 1145 648 1202 684 l 1139 648 l 1131 654 l 1134 667 l 1134 670 l 1120 673 l 1115 673 q 1061 618 1082 673 q 1012 578 1038 609 q 941 467 991 578 q 914 412 930 467 q 909 385 909 412 q 873 342 888 381 q 833 285 863 342 l 836 277 q 795 217 808 249 l 765 187 q 727 163 765 180 l 724 146 l 727 149 l 732 149 q 741 136 737 149 q 749 130 749 136 l 749 125 l 735 119 q 716 138 716 125 l 694 138 q 651 111 651 130 q 570 76 578 84 l 575 60 q 480 30 568 35 l 407 11 l 393 14 l 358 0 l 345 0 q 203 46 290 0 q 141 54 194 51 q 71 130 97 85 l 68 130 l 71 144 q 43 193 52 165 q 33 201 33 193 l 35 220 l 22 220 q 5 250 18 220 l 8 274 l 3 282 l 3 288 l 5 312 l 0 336 l 3 339 l 5 339 l 11 334 l 14 334 q 19 342 19 334 q 3 374 12 363 q 27 453 19 414 q 60 494 46 484 q 152 600 60 528 q 298 692 222 668 q 342 713 298 699 q 456 768 372 740 q 532 789 461 774 q 597 808 538 800 q 635 852 635 827 q 708 1069 681 1017 q 727 1099 708 1077 q 808 1234 751 1154 l 808 1245 l 800 1245 q 760 1202 792 1245 q 724 1166 742 1179 q 719 1156 724 1156 l 716 1158 l 727 1180 l 724 1188 q 735 1207 735 1188 q 749 1240 749 1207 l 757 1248 l 754 1259 l 776 1280 l 781 1280 q 798 1267 781 1267 q 838 1297 817 1274 l 836 1305 l 830 1305 l 787 1283 l 784 1283 l 784 1286 q 811 1321 784 1299 q 849 1354 811 1327 l 857 1354 l 876 1351 q 930 1367 876 1361 q 966 1389 959 1378 q 925 1405 966 1400 l 906 1405 q 863 1386 891 1405 l 838 1389 q 789 1362 789 1377 q 692 1294 762 1358 q 654 1232 692 1282 q 613 1166 629 1166 l 610 1169 l 613 1183 l 613 1191 l 608 1199 l 608 1202 q 624 1213 608 1206 l 621 1226 q 651 1280 621 1234 q 678 1316 662 1316 q 711 1356 678 1338 q 765 1389 736 1383 q 789 1405 765 1399 q 836 1427 808 1427 q 909 1449 836 1435 q 947 1440 926 1440 l 977 1440 l 987 1432 l 996 1432 q 955 1462 975 1462 q 944 1470 955 1469 l 944 1473 l 949 1481 l 949 1484 l 936 1487 l 903 1484 l 898 1500 l 922 1508 m 963 1286 l 966 1283 l 966 1261 l 955 1251 l 939 1267 q 906 1229 939 1244 l 876 1177 q 860 1161 876 1166 l 863 1147 l 863 1142 q 825 1080 833 1107 q 806 1047 817 1075 l 808 1017 l 808 1006 q 789 998 808 998 l 765 936 l 746 906 l 746 901 l 749 890 l 743 882 l 746 868 l 746 863 l 741 854 l 751 846 q 792 857 769 857 l 795 857 l 798 854 l 800 854 q 860 882 834 882 l 868 879 l 895 890 l 914 890 q 963 928 914 905 l 963 930 q 925 963 925 936 q 963 998 954 998 q 985 971 985 988 l 985 963 l 982 944 l 985 944 l 1020 966 l 1028 963 l 1028 971 l 1023 979 l 1023 982 l 1028 987 l 1031 998 l 1034 1001 l 1039 1001 l 1047 996 l 1055 996 l 1055 1004 q 1042 1009 1042 1004 q 1074 1034 1047 1019 l 1069 1050 l 1069 1053 l 1080 1055 q 1050 1080 1080 1071 l 1050 1085 q 1101 1145 1088 1125 l 1101 1153 q 1077 1213 1101 1171 l 1077 1221 l 1080 1223 l 1080 1226 q 1044 1280 1054 1249 l 1061 1286 l 1069 1286 l 1072 1294 l 1069 1297 l 1063 1297 l 1042 1291 q 1009 1316 1031 1316 l 1004 1316 q 963 1286 984 1286 m 1034 987 l 1039 982 l 1042 982 l 1042 987 l 1034 987 m 285 578 l 288 575 l 288 572 l 285 570 q 266 551 272 562 l 241 537 l 247 532 l 247 524 q 239 518 247 518 q 233 502 239 502 l 228 502 l 225 505 l 222 505 q 209 491 222 491 l 195 464 l 198 456 q 174 347 187 425 l 163 328 l 174 290 q 165 263 165 290 l 163 260 l 155 260 q 146 271 148 260 l 144 271 l 138 252 q 171 236 150 241 q 258 152 193 204 q 277 144 258 147 l 285 146 q 377 100 285 125 l 396 98 l 491 106 q 526 133 491 119 q 578 144 526 139 q 608 163 583 154 q 651 206 651 199 l 651 209 q 637 217 651 214 l 640 231 q 632 255 632 241 q 624 271 624 255 q 602 307 611 271 q 589 355 589 307 l 575 388 l 575 393 q 583 399 575 399 q 562 461 562 446 l 572 464 l 572 469 q 559 475 559 469 l 559 486 l 562 488 l 562 491 q 551 510 556 491 l 567 515 l 567 518 l 548 526 q 540 513 548 513 l 510 513 q 477 486 497 494 q 453 458 474 458 q 442 399 453 438 l 439 399 l 429 401 l 420 399 l 420 393 q 480 342 420 347 q 526 320 492 320 l 543 320 q 553 298 549 320 l 551 296 l 534 296 l 510 301 l 505 296 l 472 301 l 456 301 l 448 296 q 396 345 396 321 q 382 388 382 345 q 475 548 382 462 q 532 586 477 557 q 556 594 532 591 q 586 694 568 594 l 578 711 l 564 708 l 562 708 l 553 713 q 524 694 534 694 l 515 708 l 518 711 l 518 713 q 505 727 516 727 l 505 730 q 426 697 456 705 q 391 667 426 684 q 382 646 382 661 q 307 600 349 634 q 285 578 307 578 m 716 572 l 708 564 l 705 564 l 703 567 l 700 567 q 686 537 700 557 l 684 524 l 684 491 l 686 480 l 684 472 l 697 363 q 708 320 697 328 l 708 296 l 703 274 l 703 260 l 708 250 q 762 298 729 250 q 779 350 779 323 l 787 366 l 787 391 l 781 412 l 784 426 l 779 439 l 781 458 l 770 510 l 770 526 q 738 562 751 526 q 716 572 726 572 m 1158 488 l 1158 483 q 1185 461 1169 461 q 1213 477 1198 463 l 1158 488 m 586 201 l 600 201 q 610 176 610 197 l 608 174 l 597 174 l 581 187 l 581 195 l 586 201 m 746 117 l 757 117 q 765 106 765 117 l 768 106 q 776 117 769 117 l 784 117 l 779 100 q 792 87 792 100 l 808 87 l 814 92 l 865 84 l 865 81 l 863 79 l 863 76 q 892 65 881 65 l 914 68 l 925 54 l 949 62 l 960 54 l 1012 57 l 1015 54 l 1015 46 l 977 33 l 949 35 l 917 33 q 849 54 907 44 l 830 71 l 817 71 l 803 68 l 795 79 l 781 76 q 743 106 781 82 l 741 109 l 741 111 l 746 117 m 775 1702 q 791 1680 791 1696 q 767 1650 791 1669 q 734 1683 734 1654 q 775 1702 734 1702 m 686 1560 l 688 1560 q 694 1544 694 1560 l 696 1533 q 705 1528 705 1533 l 705 1517 q 683 1485 705 1485 q 645 1509 645 1485 l 642 1533 q 686 1560 686 1539 m 398 1552 l 401 1550 q 385 1520 391 1520 l 371 1520 q 398 1552 371 1552 m 498 1547 l 501 1544 l 501 1536 q 463 1514 483 1514 l 460 1517 l 460 1533 q 498 1547 460 1542 m -1973 1509 l -1970 1506 l -1970 1501 l -1978 1436 q -1954 1409 -1973 1436 l -1946 1409 q -1986 1376 -1946 1376 l -1992 1376 q -2011 1441 -2001 1376 l -2011 1447 q -1984 1474 -2011 1462 q -1973 1509 -1982 1509 m 466 1476 l 469 1474 l 469 1468 q 452 1460 466 1460 l 444 1460 l 444 1466 q 466 1476 444 1472 m 366 1474 q 379 1449 374 1474 l 379 1425 l 360 1409 q 387 1368 387 1383 l 387 1362 q 333 1346 387 1354 l 330 1349 q 344 1390 344 1378 l 344 1398 l 309 1381 l 309 1368 q 322 1346 320 1368 l 292 1333 l 290 1341 l 292 1373 q 268 1384 268 1381 q 295 1411 268 1390 q 306 1425 295 1425 q 349 1471 342 1425 l 352 1474 l 366 1474 m 640 1403 q 629 1379 640 1379 q 604 1395 614 1379 l 604 1400 l 640 1406 l 640 1403 m -2507 1387 l -2502 1387 l -2502 1379 l -2491 1308 l -2494 1305 q -2561 1333 -2561 1305 l -2561 1354 q -2515 1381 -2529 1381 l -2507 1381 l -2507 1387 m 816 1373 l 819 1371 l 819 1362 l 813 1357 l 802 1360 l 802 1362 q 816 1373 804 1368 m -2304 1322 l -2301 1319 l -2298 1319 l -2301 1305 l -2301 1297 l -2306 1297 l -2315 1319 l -2312 1322 l -2304 1322 m -2971 1295 q -2963 1259 -2963 1282 q -2979 1251 -2966 1251 l -3001 1251 l -3006 1257 l -3006 1273 q -2971 1295 -3006 1278 m -3055 1284 l -3042 1249 q -3063 1197 -3042 1225 l -3074 1197 q -3093 1221 -3093 1197 l -3093 1238 l -3090 1240 l -3069 1249 l -3069 1276 q -3055 1284 -3069 1282 m -2385 1284 l -2380 1257 l -2382 1254 q -2442 1265 -2442 1257 l -2442 1270 q -2391 1281 -2442 1278 l -2388 1284 l -2385 1284 m -1254 1281 l -1249 1265 l -1249 1262 q -1259 1230 -1249 1243 l -1278 1232 l -1286 1230 l -1289 1232 l -1289 1246 q -1270 1278 -1275 1259 l -1254 1281 m -2754 1276 l -2751 1276 l -2749 1262 l -2751 1259 l -2759 1259 l -2759 1270 l -2754 1276 m -1927 1276 l -1924 1276 l -1921 1273 l -1919 1273 q -1954 1249 -1919 1249 l -1959 1249 l -1959 1259 q -1927 1276 -1949 1276 m -1992 1246 l -1986 1246 l -1986 1240 l -1994 1232 l -2000 1232 l -2000 1238 l -1992 1246 m -820 1219 l -809 1219 l -798 1216 l -787 1219 l -785 1219 q -812 1194 -785 1198 l -814 1194 l -820 1200 l -820 1219 m -874 1213 l -855 1213 q -880 1186 -855 1186 l -882 1189 l -882 1192 q -874 1213 -880 1213 m -975 1211 l -975 1208 q -1015 1159 -981 1159 q -988 1208 -994 1208 l -975 1211 m -597 1202 l -595 1202 q -608 1170 -599 1170 l -622 1170 l -627 1175 l -627 1178 l -597 1202 m -2887 1200 l -2882 1194 l -2882 1186 l -2887 1181 l -2895 1189 l -2895 1192 l -2887 1200 m -2545 1194 l -2534 1194 l -2534 1189 q -2556 1129 -2534 1152 q -2589 1140 -2589 1133 l -2570 1164 l -2548 1164 l -2553 1189 l -2545 1194 m 230 1194 l 235 1194 l 211 1126 l 203 1126 q 192 1154 195 1126 l 192 1164 q 230 1194 192 1187 m -2757 1178 l -2749 1167 l -2749 1162 l -2754 1156 l -2773 1156 l -2773 1170 q -2757 1178 -2773 1175 m -2616 1178 q -2608 1159 -2608 1168 l -2608 1154 q -2637 1135 -2615 1135 q -2659 1162 -2654 1135 q -2616 1178 -2635 1167 m -869 1148 l -863 1148 l -863 1135 q -874 1126 -863 1131 l -877 1129 q -869 1148 -874 1148 m -1758 1143 q -1731 1097 -1751 1143 q -1707 1075 -1707 1095 l -1707 1072 l -1710 1069 l -1710 1067 q -1799 1072 -1742 1072 l -1802 1075 l -1805 1075 q -1783 1097 -1805 1084 l -1791 1121 l -1791 1126 q -1758 1143 -1780 1143 m 512 1099 l 517 1099 l 523 1067 q 479 1042 494 1042 l 477 1045 l 477 1075 q 490 1080 477 1080 q 512 1099 512 1091 m 596 1094 l 607 1094 l 610 1091 l 612 1091 q 604 1069 610 1069 l 596 1069 l 591 1075 l 591 1088 l 596 1094 m -649 1088 l -646 1069 l -646 1059 l -654 1059 q -663 1078 -661 1059 q -657 1086 -657 1078 l -654 1088 l -649 1088 m 67 1083 l 86 1067 l 86 1037 l 81 1037 l 78 1056 l 64 1056 l 64 1040 l 59 1034 l 54 1034 l 48 1040 q 67 1083 56 1076 m -2488 1080 l -2483 1080 q -2475 1064 -2475 1078 l -2475 1061 l -2483 1053 l -2488 1053 l -2494 1059 l -2494 1075 l -2488 1080 m -2366 1067 l -2361 1067 l -2361 1045 l -2369 1045 l -2374 1050 l -2366 1067 m 816 1050 l 819 1048 l 819 1045 q 808 1026 819 1031 l 772 1026 l 772 1031 l 816 1050 m -2651 1048 l -2646 1042 l -2646 1037 l -2654 1037 l -2659 1042 l -2651 1048 m -833 1045 l -812 945 q -861 931 -836 931 l -866 953 l -885 953 q -904 994 -904 970 q -833 1045 -861 1036 m 819 991 l 819 939 q 810 934 819 934 q 778 983 795 934 q 819 991 793 991 m 29 983 l 32 983 l 32 964 l 26 958 l 21 964 l 21 975 l 29 983 m -1805 975 l -1799 961 l -1802 958 l -1807 958 l -1815 966 l -1805 975 m 583 975 l 585 972 l 583 969 l 583 961 q 569 901 583 901 q 558 885 564 901 q 574 847 574 868 l 574 839 q 536 812 561 812 l 534 812 q 507 823 507 815 l 523 839 l 542 833 l 517 896 l 520 915 l 515 956 q 583 975 549 975 m 64 969 l 67 969 q 108 918 85 958 l 135 918 q 124 880 135 880 l 105 877 q 83 882 83 879 q 37 812 37 865 q 89 760 37 760 q 102 744 102 755 l 105 744 q 132 768 105 762 l 157 768 l 157 771 l 154 795 l 168 806 l 168 820 q 149 812 157 812 l 143 812 q 113 842 121 812 l 135 839 q 173 880 169 839 q 184 888 173 886 l 205 874 l 205 852 q 195 844 205 844 l 195 842 q 224 801 224 823 q 205 766 210 787 q 168 747 187 766 l 159 747 l 157 749 l 113 730 l 113 711 q 100 703 113 707 l 97 706 l 97 728 l 75 739 l 67 730 l 67 728 q 78 720 78 726 l 78 717 l 37 673 l 35 673 q 26 684 28 673 l 32 720 l -1 725 l -1 701 l 10 687 l 10 684 l -31 676 l -39 682 l -6 760 l -3 774 l -6 790 l -6 795 q 26 920 26 840 q 56 964 47 920 l 64 969 m -795 947 l -787 939 l -787 934 l -793 928 l -798 928 q -806 945 -804 928 l -804 947 l -795 947 m -985 858 l -983 855 l -983 852 q -1018 817 -988 817 q -985 858 -1018 841 m -1845 787 l -1840 782 l -1840 777 l -1843 774 l -1843 771 q -1856 785 -1849 771 l -1853 787 l -1845 787 m 596 785 l 599 782 l 599 768 l 593 763 l 591 763 l 574 768 q 596 785 574 778 m -1870 779 l -1867 777 l -1867 771 q -1883 763 -1867 766 l -1886 766 l -1886 771 q -1870 779 -1886 776 m 276 763 l 279 760 l 279 749 l 276 749 l 262 755 l 262 760 l 276 763 m 707 749 l 756 717 q 726 682 756 686 q 659 703 659 688 l 659 711 q 688 733 659 716 q 707 749 688 749 m -1780 741 l -1775 690 l -1777 687 l -1780 687 q -1802 722 -1802 687 l -1802 730 q -1780 741 -1802 736 m -1721 741 l -1715 720 l -1715 717 l -1718 714 l -1718 711 q -1742 725 -1734 711 l -1742 730 q -1721 741 -1742 739 m -847 733 l -842 733 l -833 722 q -847 701 -833 708 l -852 706 l -852 728 l -847 733 m -1864 728 l -1864 717 l -1870 711 l -1875 725 l -1872 728 l -1864 728 m 526 728 l 528 725 q 517 703 522 703 l 504 703 l 498 709 q 526 728 518 728 m 482 701 l 488 701 l 493 695 q 479 663 487 663 l 474 668 q 482 701 475 701 m 281 684 l 281 682 q 268 646 279 646 l 257 654 l 257 657 q 281 684 263 684 m -1126 676 q -1102 646 -1102 663 l -1113 638 l -1129 638 l -1145 660 l -1145 663 q -1126 676 -1143 671 m 186 676 l 189 673 l 189 665 q 176 660 189 660 l 173 652 q 162 663 162 654 q 186 676 162 673 m -896 671 l -893 668 l -899 654 l -904 654 l -907 665 l -896 671 m 637 671 l 640 668 l 640 665 l 631 657 l 629 660 l 629 668 l 637 671 m 734 644 l 740 638 l 740 619 l 734 614 l 726 614 q 734 644 728 644 m 178 641 l 181 641 l 186 635 l 186 630 l 178 630 l 178 641 m 539 638 q 547 603 547 625 q 536 587 547 592 q 509 622 509 613 q 539 638 520 633 m -633 630 l -630 630 q -625 622 -630 622 l -625 614 l -635 608 l -638 608 l -638 625 l -633 630 m 360 595 l 363 592 l 363 587 q 352 559 359 559 l 347 559 q 328 570 332 559 l 328 576 l 360 595 m 146 592 l 151 592 q 162 584 151 585 l 165 581 l 165 565 l 146 565 l 140 570 l 146 592 m 536 581 l 542 576 l 542 562 l 534 554 l 515 554 l 507 562 l 507 568 q 536 581 507 577 m 588 576 l 599 568 l 599 543 q 580 532 599 539 q 555 568 555 544 l 588 576 m 463 573 l 466 573 l 471 568 l 466 535 l 463 535 q 441 559 441 535 l 458 565 q 463 573 458 573 m -1208 549 l -1194 538 q -1205 522 -1200 522 l -1213 522 l -1219 527 l -1219 538 l -1208 549 m 197 549 l 203 549 l 203 546 q 195 530 203 532 l 192 530 l 192 543 l 197 549 m 2 543 l 2 535 l -9 524 q -17 535 -13 524 l 2 543 m -1463 541 l -1460 541 q -1490 492 -1460 505 l -1493 494 l -1493 527 q -1463 541 -1493 531 m -207 530 l -204 522 q -231 503 -204 513 l -242 511 l -242 522 l -207 530 m -356 522 l -351 516 l -351 511 l -356 505 q -367 519 -361 507 l -364 522 l -356 522 m -161 511 q -117 489 -117 496 l -117 475 q -158 456 -135 456 l -193 478 l -193 494 q -161 511 -183 511 m -68 486 l -63 486 l -63 473 l -68 467 l -74 467 l -77 470 l -79 470 q -68 486 -73 486 m 24 481 l 26 478 l 26 470 l 21 465 l 13 465 l 7 470 l 7 473 q 24 481 10 481 m 252 473 l 252 448 l 246 443 l 243 443 l 238 448 l 238 465 q 252 473 238 471 m -288 465 q -280 448 -280 462 l -283 446 l -288 446 q -299 462 -293 446 l -296 465 l -288 465 m -1916 462 l -1913 462 l -1913 446 l -1919 440 l -1924 448 l -1924 454 l -1916 462 m -777 454 l -768 454 q -755 429 -763 454 l -758 427 l -766 427 q -777 454 -773 427 m 94 454 l 100 448 l 100 443 l 92 435 l 86 440 q 94 454 90 454 m 764 451 q 770 443 770 451 l 762 432 l 753 440 l 764 451 m -375 443 l -375 435 l -380 429 l -386 435 l -386 437 l -375 443 m -2008 437 l -2003 432 l -2003 424 l -2008 418 l -2013 418 l -2016 435 l -2013 437 l -2008 437 m -1520 408 l -1512 399 l -1512 391 l -1525 389 q -1533 405 -1531 389 l -1531 408 l -1520 408 m -1666 399 q -1623 386 -1623 393 l -1623 372 q -1639 364 -1626 364 l -1658 364 q -1677 375 -1672 364 l -1677 383 q -1666 399 -1677 399 m -953 394 l -939 380 l -939 375 q -985 342 -939 349 l -988 345 l -988 364 q -953 394 -988 389 m 599 391 q 607 356 605 391 l 604 353 l 572 353 l 566 359 l 566 364 l 599 391 m -918 370 q -909 353 -909 367 l -915 348 l -923 348 q -934 367 -927 348 l -931 370 l -918 370 m -380 364 l -378 364 l -375 351 l -380 345 l -383 345 q -389 353 -389 345 l -380 364 m 395 348 q 409 326 409 334 l 428 326 l 433 321 l 433 318 q 390 299 411 299 l 385 299 l 374 304 l 374 310 l 395 315 l 395 323 q 376 332 395 328 l 376 340 q 395 348 376 345 m -679 337 q -665 318 -665 329 q -682 304 -669 304 l -682 307 l -687 323 l -687 329 l -679 337 m -367 337 q -342 321 -353 321 l -340 318 l -340 307 l -345 302 l -389 304 l -389 307 q -367 337 -389 321 m -888 332 l -882 332 l -874 326 q -915 302 -874 303 l -918 302 l -918 304 q -888 332 -907 332 m -1479 326 l -1479 313 q -1487 296 -1479 298 l -1503 296 l -1509 302 l -1509 315 q -1479 326 -1509 323 m -115 313 q -123 288 -117 288 l -144 288 l -147 291 l -150 291 q -115 313 -150 313 m 26 294 l 29 294 q 5 261 29 277 q -14 245 5 245 l -22 245 l -31 253 l -31 269 q 21 288 -31 275 l 26 294 m -98 280 l -87 280 l -87 239 l -93 234 l -109 250 q -98 280 -107 280 m 447 275 l 450 275 l 450 272 q 414 250 446 260 l 414 261 q 447 275 414 267 m -372 272 q -348 253 -369 264 l -348 220 l -356 212 l -370 212 l -372 215 l -375 215 l -364 242 l -389 267 l -389 269 l -372 272 m -1664 253 l -1658 226 q -1696 201 -1683 201 l -1707 201 l -1712 207 q -1664 253 -1686 253 m -1764 248 q -1775 218 -1767 218 l -1783 218 q -1791 237 -1788 218 q -1764 248 -1773 248 m 417 248 l 420 248 l 420 245 q 398 212 420 228 l 395 212 l 387 220 l 387 237 q 417 248 387 243 m 83 229 q 108 215 108 219 l 108 196 q 81 185 108 191 l 56 163 q 70 139 62 163 l 62 117 q 86 109 72 109 l 86 112 l 81 147 l 81 150 l 86 155 q 108 144 108 155 q 94 71 108 103 l 67 82 l 48 60 l 40 60 l 35 66 l 35 96 q 48 123 48 113 l 45 139 q 29 125 31 139 l 24 125 l 24 128 l 13 193 l 83 229 m -1636 226 l -1634 223 l -1634 212 l -1639 207 l -1645 207 l -1650 212 l -1650 223 l -1636 226 m 347 204 l 352 199 l 352 193 l 347 188 l 341 193 l 341 199 l 347 204 m -606 196 l -600 191 l -600 188 q -611 180 -600 184 l -614 182 l -614 185 l -606 196 m 691 185 l 696 169 l 694 166 l 686 166 l 683 169 l 680 169 q 691 185 686 185 m -58 155 q -20 125 -26 138 l -20 120 q -71 96 -71 114 q -98 63 -93 96 l -101 60 l -104 60 q -128 68 -128 62 l -128 79 q -98 90 -128 85 l -98 101 l -101 142 q -58 155 -77 155 m -1 147 l 5 142 l -1 136 l -9 136 l -9 139 l -1 147 m 748 136 l 753 131 l 753 123 l 748 117 l 745 117 q 737 134 737 120 l 740 136 l 748 136 m 610 115 l 612 112 q 626 106 612 106 l 629 104 l 629 98 q 561 82 629 88 l 558 85 l 569 112 l 588 106 l 610 115 m -671 106 l -668 106 l -668 98 l -673 93 l -684 93 l -684 96 l -671 106 m -616 101 l -611 101 q -584 58 -611 93 l -581 47 l -611 39 q -630 55 -627 45 q -616 101 -622 101 m -1086 96 l -1083 96 l -1080 77 l -1086 33 l -1088 33 q -1102 79 -1098 37 l -1102 87 q -1086 96 -1099 96 m -405 93 l -397 93 l -397 82 q -410 71 -397 77 l -413 74 l -413 85 l -405 93 m 181 85 q 197 33 197 81 l 197 28 l 192 22 l 186 22 q 178 79 178 22 l 181 82 l 181 85 m 81 55 l 92 55 q 83 36 89 36 l 75 44 l 75 50 l 81 55 m -966 41 q -899 22 -908 34 q -942 -29 -899 -29 l -964 -29 l -964 6 q -983 14 -964 12 l -983 25 q -966 41 -975 39 m -220 28 l -215 12 l -218 9 l -229 9 l -229 20 l -220 28 m -1596 22 l -1593 22 q -1577 -10 -1584 22 l -1579 -13 l -1612 -13 l -1620 -5 l -1620 3 q -1596 22 -1619 8 m -391 12 l -386 6 l -386 -10 l -391 -16 l -405 -16 q -413 9 -410 -16 l -410 12 l -391 12 m -2586 3 l -2578 3 l -2570 -5 l -2570 -18 l -2575 -24 l -2586 -24 l -2594 -16 l -2594 -5 l -2586 3 m -416 -43 l -413 -45 l -413 -54 q -435 -67 -413 -60 l -437 -64 l -437 -59 q -416 -43 -433 -50 m 1059 2563 l 1075 2563 l 1080 2558 l 1080 2542 l 1072 2534 l 1069 2534 l 1050 2553 l 1059 2563 m 2068 1663 l 2108 1652 q 2079 1598 2108 1622 q 2038 1563 2066 1563 q 2016 1590 2016 1571 l 2013 1617 q 2068 1663 2041 1630 m 2784 1628 l 2787 1625 l 2787 1590 l 2781 1584 l 2776 1584 q 2751 1622 2751 1607 l 2784 1628 m 1948 1606 l 1954 1600 l 1943 1592 l 1938 1603 l 1940 1606 l 1948 1606 m 1571 1592 l 1582 1592 l 1588 1587 l 1588 1584 q 1571 1576 1585 1576 l 1566 1576 l 1566 1587 l 1571 1592 m 2673 1592 l 2675 1590 q 2662 1565 2668 1565 l 2656 1573 l 2656 1584 q 2673 1592 2656 1589 m 2485 1581 q 2445 1552 2485 1556 l 2439 1568 q 2485 1581 2456 1581 m 2613 1557 l 2648 1557 l 2648 1554 q 2618 1525 2648 1546 l 2610 1525 l 2605 1544 q 2613 1557 2608 1557 m 2754 1527 l 2754 1514 q 2735 1492 2745 1498 l 2730 1492 l 2724 1497 l 2724 1511 q 2754 1527 2724 1520 m 2656 1508 l 2662 1508 q 2675 1487 2675 1501 l 2673 1484 l 2665 1484 l 2651 1497 l 2651 1503 l 2656 1508 m 2445 1500 l 2448 1497 l 2450 1497 q 2437 1478 2445 1480 q 2429 1497 2431 1478 l 2431 1500 l 2445 1500 m 2423 1492 l 2423 1487 l 2404 1462 l 2391 1484 l 2423 1492 m 1954 1457 l 1959 1451 q 1948 1443 1959 1447 l 1946 1446 l 1954 1457 m 2420 1449 q 2442 1405 2442 1426 l 2442 1402 q 2418 1386 2439 1393 q 2410 1432 2412 1391 q 2420 1449 2415 1449 m 2325 1440 l 2331 1440 l 2339 1432 l 2339 1397 l 2334 1392 l 2320 1392 q 2315 1400 2315 1392 q 2325 1440 2317 1440 m 2605 1432 l 2608 1432 l 2608 1430 l 2610 1397 l 2575 1392 q 2556 1427 2556 1411 l 2559 1427 l 2605 1432 m 2662 1411 l 2675 1411 l 2675 1386 l 2670 1381 l 2667 1381 q 2656 1400 2656 1385 l 2656 1405 l 2662 1411 m 2708 1408 l 2713 1400 l 2713 1375 q 2681 1364 2713 1369 l 2675 1373 l 2675 1375 q 2708 1389 2675 1384 l 2697 1402 l 2708 1408 m 2537 1381 l 2548 1381 l 2553 1375 l 2553 1364 q 2532 1351 2553 1358 l 2532 1354 l 2529 1364 q 2537 1381 2532 1381 m 2442 1345 l 2445 1343 l 2445 1340 q 2380 1283 2445 1297 l 2377 1286 q 2399 1318 2377 1311 q 2442 1345 2413 1345 m 1476 1316 l 1479 1316 l 1493 1313 l 1493 1305 q 1474 1294 1489 1294 l 1471 1297 l 1471 1310 l 1476 1316 m 2667 1299 l 2670 1297 l 2670 1280 l 2665 1275 l 2659 1275 l 2659 1283 q 2667 1299 2661 1299 m 2703 1286 l 2705 1286 l 2716 1272 l 2713 1270 l 2705 1270 l 2703 1272 l 2700 1272 l 2703 1286 m 2358 1283 l 2369 1283 l 2374 1278 l 2374 1275 l 2369 1270 l 2358 1270 l 2353 1275 l 2353 1278 l 2358 1283 m 2746 1261 l 2751 1256 l 2751 1245 q 2735 1237 2751 1240 l 2730 1259 l 2732 1261 l 2746 1261 m 2195 1177 q 2212 1166 2212 1177 q 2195 1153 2207 1153 l 2187 1164 l 2187 1172 q 2195 1177 2187 1177 m 597 1169 l 619 1169 l 619 1164 q 597 1147 608 1147 l 592 1164 l 597 1169 m 1938 1161 q 1946 1147 1942 1161 l 1929 1142 l 1924 1158 l 1927 1161 l 1938 1161 m 2545 1090 l 2548 1090 l 2556 1082 l 2556 1077 l 2551 1072 l 2545 1072 l 2540 1077 l 2540 1085 l 2545 1090 m 622 1053 l 641 1053 l 644 1050 l 646 1050 q 625 1025 646 1038 l 616 1036 l 616 1047 l 622 1053 m 1609 1006 l 1612 1006 l 1617 1001 l 1617 996 l 1612 990 l 1607 990 l 1601 996 l 1601 998 l 1609 1006 m 1297 968 l 1308 968 l 1316 960 l 1316 955 q 1297 941 1314 947 l 1292 949 l 1292 963 l 1297 968 m 1482 844 l 1490 844 l 1495 838 l 1495 830 l 1468 808 l 1463 808 l 1460 827 l 1460 836 q 1482 844 1462 844 m 676 833 l 687 833 l 692 827 l 692 811 q 657 795 692 800 l 657 800 q 676 833 666 833 m 806 825 q 844 808 844 825 l 844 800 l 861 800 q 882 787 876 800 l 882 776 q 858 762 871 762 q 844 781 844 772 q 823 800 823 781 l 806 819 l 806 825 m 1786 814 q 1796 798 1791 814 l 1794 795 l 1786 795 l 1780 800 l 1780 808 l 1786 814 m 2515 643 l 2523 643 l 2523 629 l 2518 624 l 2504 624 l 2504 632 l 2515 643 m 2410 562 l 2423 562 q 2429 553 2429 562 l 2437 553 l 2453 556 q 2469 548 2469 553 l 2469 537 q 2437 524 2469 528 q 2393 534 2429 529 q 2410 562 2404 561 m 2629 548 l 2654 548 l 2662 540 l 2662 537 q 2635 515 2650 515 q 2624 524 2624 519 l 2624 543 l 2629 548 m 1390 499 l 1395 499 l 1395 496 l 1392 483 l 1387 483 l 1390 499 m 2627 336 l 2651 336 l 2659 328 l 2640 307 q 2618 326 2618 318 q 2627 336 2622 336 m 2675 331 q 2719 323 2719 331 l 2719 312 q 2697 298 2719 306 q 2670 326 2670 307 l 2675 331 m 1194 309 l 1197 309 l 1197 293 l 1192 288 l 1181 288 l 1178 290 l 1175 290 q 1194 309 1177 309 m 2163 304 l 2171 304 q 2182 277 2177 304 l 2201 277 l 2209 282 l 2212 274 q 2190 247 2206 247 q 2155 293 2155 277 l 2155 296 l 2163 304 m 2738 282 l 2740 279 q 2732 263 2737 263 l 2730 263 l 2721 271 l 2721 274 q 2738 282 2721 279 m 1059 277 l 1067 277 l 1072 271 l 1072 269 q 1056 260 1072 263 l 1053 263 l 1053 271 l 1059 277 m 2735 247 l 2743 220 q 2708 195 2743 195 q 2700 214 2700 205 l 2700 228 q 2735 247 2713 247 m 1173 206 l 1178 201 q 1159 182 1178 182 l 1154 203 l 1156 206 l 1173 206 m 1433 95 q 1444 87 1444 91 l 1436 81 l 1433 81 l 1430 92 l 1433 95 m 1018 -30 l 1023 -30 l 1029 -41 l 1026 -43 l 1018 -43 l 1013 -38 q 1018 -30 1018 -38 m 1447 -165 l 1466 -165 l 1471 -171 l 1471 -176 q 1447 -190 1471 -182 l 1441 -182 l 1441 -171 l 1447 -165 m 983 -168 l 994 -168 q 983 -193 994 -189 l 977 -187 l 977 -174 l 983 -168 m 3167 963 l 3172 963 l 3178 958 q 3159 925 3166 925 l 3156 928 l 3156 939 q 3167 963 3161 963 m 4255 941 l 4263 941 l 4268 936 l 4252 930 l 4249 933 l 4249 936 l 4255 941 m 3097 901 l 3110 901 q 3099 873 3107 873 l 3088 873 l 3088 884 q 3097 901 3090 901 m 3116 865 l 3129 865 l 3129 860 q 3124 852 3124 860 l 3121 849 l 3116 849 l 3110 854 l 3110 860 l 3116 865 m 3381 846 l 3384 838 q 3349 803 3384 824 l 3346 806 q 3381 846 3350 846 m 2969 827 q 2993 768 2979 827 q 3002 762 3002 768 l 3002 760 q 2980 746 3002 753 q 2953 787 2953 772 l 2953 795 q 2969 827 2961 827 m 4111 817 l 4119 817 q 4144 768 4128 817 l 4135 765 l 4095 781 q 4068 765 4084 765 l 4060 798 l 4081 808 q 4097 798 4087 798 q 4111 817 4107 817 m 4214 798 l 4222 798 l 4228 792 l 4228 787 q 4211 776 4222 776 l 4211 779 l 4209 789 l 4209 792 l 4214 798 m 3145 792 l 3148 792 l 3151 779 l 3151 770 l 3143 762 l 3137 762 l 3137 784 l 3145 792 m 3134 749 l 3137 746 q 3113 716 3128 716 l 3102 713 l 3091 722 q 3134 749 3091 743 m 4011 738 l 4013 730 q 3994 708 4009 718 l 3989 724 l 3989 727 q 4011 738 3989 734 m 3305 713 q 3324 675 3324 694 l 3324 667 l 3319 662 l 3284 662 q 3251 675 3263 662 q 3303 713 3251 708 l 3305 713 m 3229 673 l 3235 665 q 3202 635 3235 643 l 3197 635 l 3197 637 q 3229 673 3210 673 m 3601 656 l 3604 656 l 3609 651 l 3609 635 q 3571 624 3609 629 l 3569 627 l 3569 632 q 3601 656 3569 656 m 2985 637 q 3002 624 2997 634 l 3002 618 l 2993 610 l 2985 610 l 2972 613 l 2972 616 q 2985 637 2972 635 m 3457 621 l 3463 621 l 3463 618 q 3449 567 3457 567 l 3441 567 q 3422 608 3422 580 q 3457 621 3441 621 m 3512 618 q 3550 564 3535 618 l 3552 562 l 3550 559 l 3514 559 l 3498 572 q 3512 618 3505 618 m 2969 610 q 2996 597 2989 610 l 2996 578 l 2966 564 l 2966 567 l 2961 608 l 2969 610 m 3970 608 l 3973 608 l 4000 583 l 4000 564 l 3973 540 q 3962 559 3962 545 l 3962 567 l 3970 608 m 3617 586 l 3620 586 l 3625 581 l 3623 572 l 3617 572 l 3617 586 m 3110 578 l 3116 578 q 3124 562 3120 578 l 3121 559 l 3110 559 l 3105 564 l 3105 572 l 3110 578 z "},"'":{"ha":629,"x_min":545,"x_max":913,"o":"m 797 1817 l 805 1817 l 821 1803 l 829 1806 q 851 1771 834 1771 q 867 1763 867 1769 l 876 1765 q 913 1754 893 1765 q 881 1673 913 1720 l 878 1659 l 878 1640 l 876 1638 l 876 1635 l 886 1632 l 886 1613 q 859 1597 876 1597 q 854 1605 854 1597 l 857 1616 l 854 1624 l 843 1624 q 764 1532 843 1613 q 748 1505 759 1531 q 664 1361 726 1505 q 585 1288 645 1361 l 566 1288 q 545 1304 545 1299 l 547 1312 l 545 1320 q 577 1385 559 1333 q 588 1421 585 1385 q 634 1518 634 1494 q 721 1673 648 1573 q 748 1700 721 1684 q 824 1773 752 1718 l 819 1795 l 805 1792 l 802 1792 q 786 1803 802 1803 l 786 1806 l 797 1817 m 759 1776 l 764 1768 l 764 1752 l 756 1752 q 705 1711 732 1748 q 686 1697 699 1711 l 672 1711 l 677 1716 l 691 1714 q 713 1752 701 1752 q 734 1768 713 1761 l 743 1765 q 759 1776 748 1776 m 650 1687 l 669 1684 l 672 1687 l 675 1684 l 675 1676 q 629 1600 659 1668 q 591 1529 614 1597 l 574 1510 l 572 1513 l 569 1513 q 596 1611 580 1524 q 629 1657 629 1637 q 650 1687 647 1672 m 862 1654 l 854 1632 q 865 1619 865 1626 l 870 1619 l 873 1638 q 862 1654 867 1654 z "},"(":{"ha":526,"x_min":-15,"x_max":2801,"o":"m 1375 1771 l 1397 1771 l 1416 1747 q 1438 1733 1431 1747 l 1438 1723 q 1378 1706 1438 1713 q 1316 1685 1365 1685 q 1248 1657 1297 1685 q 1223 1638 1248 1638 q 1131 1560 1173 1613 l 1118 1565 l 1118 1549 q 1012 1468 1090 1549 l 998 1462 l 998 1449 q 982 1440 998 1440 q 898 1354 982 1433 q 849 1297 898 1348 q 830 1270 849 1270 q 708 1090 718 1143 q 581 914 661 1042 l 583 911 l 583 909 q 448 656 467 743 q 372 496 415 626 l 372 494 l 374 480 q 353 429 366 480 q 296 241 296 273 q 288 236 288 241 l 290 233 l 293 233 l 290 231 l 290 228 q 274 146 290 146 q 252 136 252 140 l 255 111 q 236 65 236 111 q 217 27 231 27 l 212 68 l 231 92 l 217 106 q 241 217 236 148 q 293 399 277 321 l 285 420 l 290 426 l 285 426 q 179 220 244 387 l 133 109 q 84 -22 99 -22 l 81 -24 l 84 -41 l 81 -49 q 90 -54 90 -49 l 90 -68 q 68 -114 74 -81 l 76 -109 l 79 -109 l 79 -111 l 76 -130 l 57 -125 l 57 -127 q 76 -193 76 -176 q 49 -258 76 -210 l 46 -258 q 16 -239 16 -254 q 30 -182 24 -182 l 38 -184 l 38 -182 q 22 -152 22 -170 l 22 -133 q 16 -144 16 -133 l 11 -144 l 11 -125 l 0 -125 l 5 -109 l 3 -90 l 8 -76 l 5 -38 l 16 -19 l 14 8 l 24 27 l 22 41 q 43 90 27 41 l 41 109 l 71 195 l 68 195 l 62 201 l 62 206 q 81 252 81 220 l 76 258 l 76 266 q 119 339 90 266 l 117 342 q 133 366 117 366 l 133 369 l 122 380 q 109 361 122 369 l 98 361 l 92 366 q 100 382 98 366 l 122 393 l 127 399 l 146 396 l 165 437 l 163 437 q 144 426 151 426 l 144 429 l 236 597 q 136 640 136 620 q 87 719 87 682 l 87 741 q 152 879 130 879 q 174 868 174 876 l 174 865 q 165 860 174 860 l 165 852 l 171 844 l 155 836 l 155 803 q 136 765 138 787 l 144 749 l 136 727 q 155 711 155 715 l 155 678 q 217 648 182 648 q 269 665 217 661 q 331 754 298 754 l 353 784 l 353 787 l 336 787 l 331 792 q 415 882 389 882 l 410 903 q 420 917 420 903 q 475 960 475 949 l 472 979 q 483 996 479 979 q 534 1047 534 1016 q 643 1166 568 1074 q 922 1446 732 1262 q 979 1500 958 1500 l 1069 1579 q 1158 1660 1131 1630 l 1161 1660 l 1175 1657 q 1183 1666 1175 1666 l 1183 1682 q 1245 1742 1201 1695 l 1259 1744 l 1310 1736 q 1316 1750 1310 1750 l 1324 1742 l 1326 1742 q 1375 1771 1326 1755 m 279 925 l 282 922 l 282 920 q 255 895 279 913 l 252 898 l 250 898 l 217 882 l 214 884 l 214 911 q 279 925 214 918 m 2214 441 l 2220 429 l 2220 413 l 2214 405 l 2190 405 l 2183 413 l 2183 421 q 2214 441 2183 430 m 2794 445 l 2801 437 l 2801 417 l 2794 409 l 2780 409 q 2794 445 2780 439 m 2750 224 l 2757 216 q 2750 204 2750 216 l 2743 204 l 2736 220 l 2740 224 l 2750 224 m 2342 93 l 2345 93 l 2348 82 l 2345 79 l 2334 87 l 2342 93 m 1613 1880 l 1618 1858 l 1615 1855 l 1599 1855 l 1594 1861 q 1613 1880 1594 1880 m 1544 741 q 1552 722 1552 731 l 1552 709 q 1516 690 1539 690 l 1508 717 q 1544 741 1508 741 m 2062 690 q 2097 644 2097 659 l 2097 641 l 2089 633 l 2081 633 q 2070 660 2075 633 l 2051 660 l 2043 654 l 2040 663 q 2062 690 2045 690 m 1716 1801 l 1718 1799 l 1718 1790 l 1713 1785 l 1705 1785 l 1699 1790 l 1699 1793 q 1716 1801 1699 1799 m 1519 673 l 1522 673 l 1530 665 l 1530 663 q 1514 654 1530 657 l 1511 657 q 1519 673 1514 673 m 1580 1774 l 1591 1774 l 1594 1771 l 1596 1771 q 1577 1752 1594 1752 l 1575 1752 l 1575 1769 l 1580 1774 m 1554 638 q 1581 611 1581 629 l 1576 606 q 1533 614 1533 606 l 1533 625 q 1554 638 1533 631 m 1611 630 q 1633 611 1633 618 l 1625 600 l 1600 600 l 1592 608 l 1611 630 m 1379 1579 l 1385 1579 l 1382 1563 l 1377 1563 l 1377 1565 l 1379 1579 m 1617 421 l 1628 413 l 1628 394 l 1622 389 l 1598 389 l 1590 397 l 1590 399 q 1617 421 1602 421 m 1815 413 q 1858 402 1822 408 q 1842 375 1847 376 l 1828 375 q 1823 383 1823 375 l 1815 383 l 1799 380 q 1782 389 1782 384 l 1782 399 q 1815 413 1782 409 m 1733 313 l 1747 313 l 1747 304 l 1736 294 l 1728 294 l 1728 307 l 1733 313 m 1914 1299 l 1925 1291 q 1941 1280 1925 1280 q 1965 1242 1948 1263 l 1965 1237 q 1927 1253 1927 1237 l 1927 1261 l 1911 1261 q 1889 1275 1896 1261 l 1889 1286 q 1914 1299 1901 1299 m 986 1267 l 991 1261 l 991 1253 l 986 1248 q 975 1264 981 1248 l 978 1267 l 986 1267 m 2115 1267 l 2115 1261 q 2096 1229 2106 1229 l 2085 1229 l 2079 1234 l 2079 1251 q 2115 1267 2079 1261 m 1303 1253 l 1309 1253 l 1312 1234 l 1312 1226 q 1290 1218 1310 1218 l 1282 1218 l 1276 1223 l 1276 1232 l 1303 1253 m 1474 1120 l 1480 1112 l 1480 1099 l 1474 1093 l 1463 1093 l 1455 1101 l 1455 1107 q 1474 1120 1457 1115 m 1160 1072 l 1165 1072 l 1171 1066 l 1171 1063 l 1162 1055 l 1160 1055 l 1154 1061 l 1154 1066 l 1160 1072 m 2147 1036 l 2155 1025 l 2155 1015 l 2150 1009 l 2131 1009 l 2128 1012 l 2125 1012 q 2147 1036 2125 1024 m 221 990 l 227 990 l 232 985 l 232 977 l 227 971 l 224 971 l 216 979 l 216 985 l 221 990 m 842 920 l 848 903 l 845 901 l 834 901 q 826 914 829 901 l 842 920 m 2174 914 l 2180 898 l 2174 892 l 2153 892 l 2153 898 q 2174 914 2163 914 m 576 909 l 585 898 l 585 890 q 576 884 585 884 q 560 895 560 884 q 576 909 565 909 m 37 825 l 42 803 l 39 800 l 26 800 l 20 806 l 20 817 q 37 825 20 822 m 66 792 l 69 789 l 72 789 l 69 776 l 66 776 l 56 789 l 58 792 l 66 792 m 403 792 l 414 792 l 419 787 l 419 784 l 414 779 l 403 779 l 397 784 l 397 787 l 403 792 m 107 787 l 113 787 l 113 779 q 104 762 113 764 l 102 765 l 102 781 l 107 787 m 392 779 l 395 776 q 373 743 395 751 q 330 716 359 716 l 327 719 l 327 722 q 392 779 327 765 m 1298 768 l 1301 765 l 1301 751 l 1295 746 l 1293 746 l 1279 749 l 1279 757 q 1298 768 1284 768 m 240 708 l 243 697 q 235 681 239 681 l 224 681 l 218 686 l 218 697 q 240 711 218 704 l 240 708 m 91 697 l 96 689 l 96 686 q 64 673 96 677 l 75 659 l 64 654 l 58 662 l 58 686 q 91 697 58 693 m 102 681 l 104 681 q 115 662 115 677 l 115 656 l 110 651 l 96 651 l 96 675 l 102 681 m 354 675 q 362 629 360 671 q 351 613 357 613 q 330 656 330 636 l 330 659 q 354 675 333 669 m 197 670 q 216 635 216 651 l 213 635 l 167 629 l 164 629 l 164 632 l 161 665 l 197 670 m 438 670 l 452 670 q 457 662 457 670 q 446 621 454 621 l 441 621 l 433 629 l 433 665 l 438 670 m 823 618 l 826 616 q 818 605 822 605 l 812 610 l 823 618 m 368 600 l 381 578 l 349 570 l 349 575 l 368 600 m 335 583 q 343 564 341 583 l 340 562 l 327 562 l 324 564 l 321 564 q 335 583 327 581 m 107 578 l 121 564 l 121 559 l 115 553 l 110 553 q 96 575 96 561 l 99 578 l 107 578 m 37 570 l 42 570 l 47 564 l 47 551 q 18 534 47 541 l 18 548 q 37 570 26 564 m 153 537 l 161 537 l 167 518 q 159 505 163 505 l 123 505 l 123 507 q 153 537 123 516 m 327 510 l 332 494 q 286 480 315 480 q 327 510 286 505 m 734 499 q 755 472 755 491 l 758 445 q 704 399 730 432 l 663 410 q 693 464 663 439 q 734 499 705 499 m 110 496 l 115 488 l 115 477 q 99 469 115 473 l 96 472 q 110 496 104 496 m 1200 486 l 1206 486 l 1206 475 l 1200 469 l 1190 469 l 1184 475 l 1184 477 q 1200 486 1187 486 m -9 477 l -4 477 q 20 439 20 456 l -12 434 l -15 437 l -15 472 l -9 477 m 829 469 l 834 458 l 831 456 l 823 456 l 818 461 q 829 469 818 465 m 1699 -472 l 1702 -472 l 1721 -491 q 1713 -502 1717 -502 l 1697 -502 l 1691 -496 l 1691 -480 l 1699 -472 z "},")":{"ha":1280,"x_min":-1474,"x_max":1542,"o":"m 1420 1567 l 1426 1567 l 1431 1561 q 1306 1265 1396 1438 q 1257 1176 1280 1226 q 1195 1048 1227 1147 q 1176 994 1187 1038 q 1157 972 1162 985 q 1165 945 1165 959 l 1165 935 q 1100 753 1165 874 l 1081 736 l 1065 742 l 1062 742 l 1062 720 l 1046 704 q 1059 677 1059 686 l 1059 666 q 1027 614 1059 653 q 989 538 1027 573 q 916 430 976 509 q 867 408 887 430 q 728 305 841 408 q 685 267 696 267 l 685 270 l 734 335 l 709 340 l 709 343 q 772 378 758 375 q 826 438 772 387 q 856 471 826 450 q 943 598 856 485 q 1000 677 959 627 q 1019 726 1005 715 q 1035 769 1035 751 q 1027 774 1035 774 q 983 718 1013 769 l 937 652 q 878 571 880 593 l 810 498 q 793 457 797 481 q 742 406 777 457 q 696 349 720 370 q 707 343 696 343 l 707 338 q 642 275 642 287 q 633 264 637 264 l 644 248 q 633 235 639 247 l 655 213 q 880 397 734 269 l 880 395 q 796 300 880 372 l 785 289 l 774 292 l 774 289 l 777 281 q 745 254 759 278 q 707 235 726 239 q 666 194 707 218 l 652 180 l 647 180 l 655 202 l 650 202 l 628 197 q 601 213 627 202 q 566 183 601 193 l 530 159 q 452 85 530 151 l 444 66 l 465 66 l 465 64 q 452 56 465 58 l 438 58 q 430 42 438 42 l 425 42 l 406 45 q 311 -33 405 29 q 224 -90 248 -85 q 156 -139 221 -96 q 148 -155 148 -148 l 145 -155 l 142 -153 l 64 -201 l 45 -204 l 45 -207 l 50 -215 l 34 -220 l 31 -220 q 1 -210 31 -210 l 4 -196 l 4 -177 l 34 -177 l 34 -158 q 69 -125 34 -142 q 167 -52 75 -111 q 202 -25 172 -41 q 311 61 203 -18 q 349 94 311 69 q 387 132 349 106 l 387 137 l 403 137 q 522 245 505 245 l 519 248 l 519 251 q 552 262 552 256 l 552 267 l 549 281 q 571 324 571 286 q 633 406 633 396 l 628 422 l 628 425 q 745 579 628 437 q 793 639 764 639 l 804 647 l 804 650 l 793 661 q 864 753 857 753 q 899 791 871 753 q 905 804 905 791 q 972 886 921 830 l 1043 1008 q 1032 1062 1035 1029 l 1021 1062 l 991 1051 q 943 1024 967 1051 l 943 1000 l 940 1000 l 916 1002 l 916 1000 q 910 991 916 991 l 907 994 l 899 967 l 910 956 l 891 932 l 888 932 l 888 964 q 867 945 867 962 l 869 926 l 883 926 l 888 921 q 815 823 833 838 l 810 834 l 812 872 l 804 897 l 804 905 q 864 1002 804 937 q 940 1065 867 1019 q 1016 1119 1016 1096 q 1043 1138 1029 1138 l 1054 1138 q 1111 1108 1091 1138 q 1141 1143 1111 1128 l 1187 1219 q 1230 1298 1230 1265 l 1227 1312 q 1249 1328 1249 1312 q 1276 1382 1262 1345 q 1312 1444 1312 1418 l 1306 1450 l 1306 1453 q 1320 1493 1320 1465 l 1333 1496 l 1336 1537 l 1339 1537 q 1369 1510 1365 1518 l 1369 1507 q 1352 1480 1352 1492 q 1360 1463 1354 1463 l 1360 1480 q 1388 1523 1369 1480 q 1420 1567 1388 1541 m 1040 1070 l 1059 1038 q 1081 1057 1072 1042 l 1081 1059 q 1057 1078 1081 1078 q 1040 1070 1040 1077 m 1124 940 q 1095 861 1095 911 q 1078 812 1090 861 l 1084 796 l 1078 788 l 1078 780 l 1084 780 q 1133 921 1097 780 l 1133 924 q 1124 940 1133 938 m 1078 777 l 1067 753 l 1070 750 l 1070 747 q 1089 761 1089 753 l 1081 777 l 1078 777 m 897 495 l 897 490 l 899 490 q 970 563 928 490 q 1013 647 972 575 l 1010 647 q 970 593 970 620 q 954 568 961 593 q 918 522 937 568 q 907 503 907 522 q 897 495 897 499 m -15 -245 q 1 -264 1 -245 q -18 -291 1 -279 l -23 -291 q -31 -280 -30 -291 q -15 -245 -22 -245 m 194 1240 l 197 1237 l 197 1232 l 189 1166 q 213 1139 193 1166 l 221 1139 q 180 1107 221 1107 l 175 1107 q 156 1172 165 1107 l 156 1177 q 183 1204 156 1193 q 194 1240 185 1240 m -340 1118 l -335 1118 l -335 1109 l -324 1039 l -327 1036 q -395 1063 -395 1036 l -395 1085 q -349 1112 -362 1112 l -340 1112 l -340 1118 m -137 1053 l -134 1050 l -132 1050 l -134 1036 l -134 1028 l -140 1028 l -148 1050 l -145 1053 l -137 1053 m -1352 1055 q -1343 1020 -1343 1042 q -1360 1012 -1346 1012 l -1381 1012 l -1387 1017 l -1387 1034 q -1352 1055 -1387 1039 m -1436 1044 l -1422 1009 q -1444 958 -1422 986 l -1455 958 q -1474 982 -1474 958 l -1474 998 l -1471 1001 l -1449 1009 l -1449 1036 q -1436 1044 -1449 1042 m -218 1015 l -213 987 l -216 985 q -275 996 -275 988 l -275 1001 q -224 1012 -275 1008 l -221 1015 l -218 1015 m 913 1012 l 918 996 l 918 993 q 907 960 918 974 l 888 963 l 880 960 l 878 963 l 878 977 q 897 1009 892 990 l 913 1012 m -1135 1036 l -1132 1036 l -1129 1023 l -1132 1020 l -1140 1020 l -1140 1031 l -1135 1036 m 240 1006 l 243 1006 l 245 1004 l 248 1004 q 213 979 248 979 l 208 979 l 208 990 q 240 1006 217 1006 m 175 977 l 180 977 l 180 971 l 172 963 l 167 963 l 167 968 l 175 977 m -777 557 l -766 557 l -755 555 l -744 557 l -741 557 q -768 533 -741 537 l -771 533 l -777 538 l -777 557 m -831 552 l -812 552 q -836 525 -812 525 l -839 528 l -839 530 q -831 552 -836 552 m 1192 941 l 1192 939 q 1152 890 1185 890 q 1179 939 1173 939 l 1192 941 m -554 541 l -551 541 q -565 509 -555 509 l -578 509 l -584 514 l -584 517 l -554 541 m -1267 960 l -1262 955 l -1262 947 l -1267 941 l -1276 949 l -1276 952 l -1267 960 m -378 925 l -368 925 l -368 920 q -389 860 -368 882 q -422 871 -422 863 l -403 895 l -381 895 l -387 920 l -378 925 m -1137 939 l -1129 928 l -1129 922 l -1135 917 l -1154 917 l -1154 930 q -1137 939 -1154 936 m -449 909 q -441 890 -441 899 l -441 884 q -471 865 -448 865 q -492 892 -487 865 q -449 909 -468 898 m -825 487 l -820 487 l -820 473 q -831 465 -820 469 l -833 468 q -825 487 -831 487 m 408 873 q 435 827 416 873 q 460 806 460 826 l 460 803 l 457 800 l 457 798 q 368 803 425 803 l 365 806 l 362 806 q 384 827 362 814 l 376 852 l 376 857 q 408 873 387 873 m -606 427 l -603 408 l -603 397 l -611 397 q -619 416 -617 397 q -614 425 -614 416 l -611 427 l -606 427 m -321 811 l -316 811 q -308 795 -308 808 l -308 792 l -316 784 l -321 784 l -327 789 l -327 806 l -321 811 m -199 798 l -194 798 l -194 776 l -202 776 l -208 781 l -199 798 m -484 779 l -479 773 l -479 768 l -487 768 l -492 773 l -484 779 m -790 384 l -768 283 q -817 270 -793 270 l -823 292 l -842 292 q -861 332 -861 309 q -790 384 -817 374 m 362 705 l 368 692 l 365 689 l 359 689 l 351 697 l 362 705 m -752 286 l -744 278 l -744 273 l -749 267 l -755 267 q -763 283 -760 267 l -760 286 l -752 286 m 1181 589 l 1184 586 l 1184 583 q 1149 548 1178 548 q 1181 589 1149 572 m 321 518 l 327 513 l 327 507 l 324 505 l 324 502 q 311 515 317 502 l 313 518 l 321 518 m 297 510 l 300 507 l 300 502 q 283 494 300 496 l 281 496 l 281 502 q 297 510 281 507 m 387 472 l 392 420 l 389 418 l 387 418 q 365 453 365 418 l 365 461 q 387 472 365 467 m 446 472 l 452 450 l 452 448 l 449 445 l 449 442 q 425 456 432 442 l 425 461 q 446 472 425 469 m 1320 464 l 1325 464 l 1333 453 q 1320 431 1333 439 l 1314 437 l 1314 458 l 1320 464 m 302 458 l 302 448 l 297 442 l 292 456 l 294 458 l 302 458 m 1040 407 q 1065 377 1065 393 l 1054 369 l 1038 369 l 1021 391 l 1021 393 q 1040 407 1023 401 m 1271 401 l 1274 399 l 1268 385 l 1263 385 l 1260 396 l 1271 401 m 1534 361 l 1537 361 q 1542 353 1537 353 l 1542 345 l 1531 339 l 1529 339 l 1529 355 l 1534 361 m 959 279 l 972 269 q 962 252 967 252 l 954 252 l 948 258 l 948 269 l 959 279 m 704 271 l 707 271 q 677 222 707 236 l 674 225 l 674 258 q 704 271 674 262 m 251 193 l 254 193 l 254 176 l 248 171 l 243 179 l 243 184 l 251 193 m 1390 184 l 1398 184 q 1412 160 1404 184 l 1409 157 l 1401 157 q 1390 184 1394 157 m 159 168 l 164 163 l 164 155 l 159 149 l 153 149 l 151 165 l 153 168 l 159 168 m 647 138 l 655 130 l 655 122 l 642 119 q 633 136 636 119 l 636 138 l 647 138 m 500 130 q 544 117 544 124 l 544 103 q 528 95 541 95 l 509 95 q 490 106 494 95 l 490 114 q 500 130 490 130 m 688 57 l 688 43 q 680 27 688 29 l 663 27 l 658 33 l 658 46 q 688 57 658 54 m 503 -16 l 509 -43 q 471 -67 484 -67 l 460 -67 l 454 -62 q 503 -16 481 -16 m 403 -21 q 392 -51 400 -51 l 384 -51 q 376 -32 378 -51 q 403 -21 393 -21 m 530 -43 l 533 -45 l 533 -56 l 528 -62 l 522 -62 l 517 -56 l 517 -45 l 530 -43 m 1081 -173 l 1084 -173 l 1086 -192 l 1081 -235 l 1078 -235 q 1065 -189 1068 -231 l 1065 -181 q 1081 -173 1067 -173 m 571 -246 l 574 -246 q 590 -279 583 -246 l 587 -281 l 555 -281 l 547 -273 l 547 -265 q 571 -246 547 -260 m -419 -265 l -411 -265 l -403 -273 l -403 -287 l -408 -292 l -419 -292 l -427 -284 l -427 -273 l -419 -265 z "},"*":{"ha":541,"x_min":138,"x_max":832,"o":"m 523 1788 q 661 1666 655 1678 l 664 1653 l 680 1653 q 762 1571 725 1653 l 762 1533 q 810 1387 762 1491 q 832 1305 832 1329 l 832 1267 q 794 1132 832 1189 l 791 1135 l 791 1140 l 802 1173 l 802 1197 q 786 1208 797 1208 q 756 1189 766 1189 l 756 1192 l 762 1202 l 756 1219 l 781 1251 l 781 1254 l 775 1262 l 775 1278 q 767 1305 775 1305 l 772 1357 q 726 1476 772 1373 q 699 1506 708 1505 q 648 1452 648 1488 q 680 1357 648 1440 l 694 1270 l 688 1270 q 659 1371 666 1270 q 631 1417 647 1401 l 577 1362 l 615 1308 q 683 1192 644 1192 q 691 1208 686 1208 l 696 1202 l 696 1175 q 672 1164 693 1164 l 667 1181 l 661 1181 q 642 1173 651 1173 q 542 1262 621 1173 q 504 1292 517 1292 q 493 1257 497 1284 q 501 1183 501 1213 l 501 1181 l 490 1170 l 466 1175 q 431 1151 456 1151 l 422 1151 l 404 1167 l 385 1143 l 387 1140 l 387 1137 l 385 1135 l 376 1135 l 371 1140 l 379 1162 q 374 1183 374 1162 l 368 1189 l 371 1211 q 363 1227 363 1213 l 366 1227 q 385 1211 378 1222 l 385 1205 l 376 1197 l 379 1189 l 404 1194 l 406 1192 l 409 1192 l 409 1194 l 406 1205 l 409 1238 l 409 1319 l 406 1352 l 398 1352 l 395 1335 l 401 1330 q 390 1314 390 1330 l 387 1314 l 390 1311 l 390 1295 q 371 1267 390 1280 l 368 1267 q 355 1319 359 1267 l 357 1368 l 355 1368 q 238 1292 331 1368 l 211 1284 l 205 1297 l 149 1286 l 138 1303 q 184 1341 140 1309 q 246 1411 184 1350 q 268 1457 268 1434 q 243 1490 268 1463 q 208 1539 243 1497 q 195 1550 205 1550 l 195 1566 l 197 1569 l 181 1598 q 189 1620 189 1600 l 189 1634 q 205 1655 203 1634 l 295 1664 l 295 1661 q 344 1623 296 1656 q 366 1699 349 1628 l 376 1699 l 374 1702 l 374 1704 q 439 1748 374 1729 q 490 1710 467 1737 l 501 1718 l 504 1718 l 504 1715 q 488 1683 492 1683 q 520 1582 508 1634 q 564 1563 544 1563 l 596 1577 l 623 1560 l 626 1560 l 648 1571 l 648 1579 q 615 1636 648 1598 q 569 1674 615 1657 q 561 1693 564 1675 l 577 1693 l 577 1696 q 558 1721 563 1720 l 528 1693 l 507 1702 q 515 1721 509 1721 l 531 1718 l 536 1734 l 536 1750 l 517 1767 l 517 1783 l 523 1788 m 393 1664 l 387 1669 l 387 1645 l 404 1628 l 414 1634 l 406 1650 l 414 1672 l 404 1672 l 393 1664 m 686 1636 l 686 1628 q 705 1617 690 1617 l 710 1617 q 686 1636 696 1636 m 471 1607 l 479 1588 q 496 1596 496 1592 q 482 1631 487 1631 q 471 1607 475 1631 m 254 1620 l 254 1617 l 262 1601 l 271 1601 l 271 1615 l 254 1620 m 390 1596 q 412 1579 395 1579 l 409 1598 l 412 1607 l 406 1607 q 390 1596 390 1607 m 789 1249 l 783 1221 l 791 1221 l 805 1238 l 805 1240 q 789 1249 802 1249 m 691 1240 l 696 1235 l 696 1219 l 688 1211 l 686 1211 l 683 1213 l 680 1213 q 691 1240 684 1240 z "},"+":{"ha":811,"x_min":0,"x_max":0,"o":""},",":{"ha":392,"x_min":-89,"x_max":356,"o":"m 204 271 l 218 271 l 258 265 l 269 268 q 342 197 317 268 q 356 132 356 156 l 356 121 q 296 13 356 62 l 286 10 l 283 18 q 315 78 283 27 l 321 113 l 321 124 q 261 230 321 215 l 207 238 l 188 230 q 220 184 210 184 l 218 170 l 218 138 q 242 108 218 124 q 231 100 242 100 l 239 92 l 231 56 q 264 37 264 42 l 264 21 q 218 -9 228 21 l 212 -9 l 210 -6 l 207 -6 l 212 16 l 196 26 q 163 -66 189 26 q 131 -125 148 -125 l 125 -101 l 136 -98 l 136 -82 l 125 -79 q 33 -166 51 -166 l 22 -169 l -7 -158 q -43 -177 -33 -162 q -89 -153 -89 -157 l -73 -112 l -64 -112 q -45 -123 -52 -123 q 93 -17 23 -96 q 120 48 120 16 l 117 51 l 104 51 q 66 16 87 51 l 63 18 l 63 21 l 68 51 l 33 59 q -2 124 23 69 q -24 157 -24 139 l -24 162 l -10 176 l 17 173 q 115 260 80 260 l 123 265 l 161 260 l 204 271 m 3 -142 l 3 -150 q 22 -139 22 -145 q 14 -134 22 -134 l 3 -142 z "},"-":{"ha":673,"x_min":149,"x_max":637,"o":"m 545 741 l 547 738 l 566 741 q 637 722 623 741 l 637 708 q 591 681 633 696 l 591 678 l 599 662 l 596 659 l 593 659 l 542 667 l 534 665 q 517 673 531 673 l 507 665 q 488 673 496 673 l 482 667 l 460 670 l 376 651 l 360 654 l 355 648 l 344 648 l 341 651 l 338 651 l 330 643 l 309 648 l 317 637 l 317 635 q 287 624 317 628 l 281 629 l 268 627 l 260 635 q 230 618 242 618 l 227 621 l 224 621 l 227 624 l 227 635 l 219 635 q 197 624 199 631 l 197 618 l 205 602 l 203 600 l 200 600 q 149 656 162 600 l 168 659 l 165 662 l 165 670 l 184 667 q 203 681 201 674 l 203 684 l 200 686 l 200 689 l 181 681 l 181 684 l 178 716 l 181 719 l 186 719 l 189 716 l 192 716 q 197 724 192 724 l 219 722 l 252 727 l 268 719 l 284 724 l 290 719 l 295 719 l 314 724 l 317 722 l 317 719 l 355 724 l 387 722 l 545 741 z "},".":{"ha":311,"x_min":-7,"x_max":280,"o":"m 229 306 l 248 306 q 280 205 280 264 l 280 176 q 253 70 273 107 q 204 -17 226 2 l 191 -17 l 180 5 q 120 -25 128 -25 l 117 -22 l 177 37 l 182 51 l 174 54 q 150 35 163 50 q 134 26 134 35 q 106 40 106 31 l 93 35 q 79 51 90 51 l 79 54 l 82 62 l 52 83 q 47 94 52 94 l 28 92 l 28 94 q 39 100 28 100 l 41 102 l 41 111 l 31 124 q 55 159 39 125 q 123 214 64 172 q 153 241 123 222 q 177 268 153 248 q 229 306 177 288 m 182 233 q 237 195 182 212 q 248 214 248 207 q 220 273 227 270 l 215 273 q 182 233 189 252 m 22 92 q 28 83 28 92 l 25 81 l 28 67 l 22 32 l 22 21 q 58 -14 22 -14 q 77 -25 73 -14 l 77 -28 l 60 -44 l 39 -44 q -7 7 0 -44 l -7 18 q 22 92 -7 56 m 112 26 l 112 21 q 93 10 108 10 l 90 10 l 87 24 l 112 26 z "},"/":{"ha":666,"x_min":-1095,"x_max":1716,"o":"m 1364 1583 l 1367 1583 q 1372 1575 1372 1583 l 1356 1548 l 1361 1534 q 1372 1545 1372 1534 q 1437 1580 1390 1545 l 1445 1580 q 1453 1561 1453 1570 q 1372 1466 1426 1511 l 1369 1463 l 1367 1463 l 1364 1466 l 1375 1493 l 1372 1501 q 1339 1480 1364 1501 q 1285 1439 1285 1461 q 1263 1420 1263 1434 l 1258 1412 q 1250 1407 1250 1412 l 1253 1407 l 1285 1415 l 1288 1415 l 1288 1412 q 1204 1374 1275 1396 q 1084 1263 1203 1367 q 1030 1208 1053 1236 q 960 1135 960 1154 q 938 1111 938 1135 l 924 1114 q 881 1051 881 1076 q 870 1046 881 1046 q 854 1035 870 1035 q 802 970 854 1013 q 764 926 802 960 q 748 910 764 914 q 734 899 748 899 l 740 886 l 737 883 l 721 883 q 686 834 721 862 q 672 818 686 823 q 634 769 672 805 l 637 758 q 610 742 624 757 l 610 728 q 602 720 602 728 l 585 715 q 566 682 585 699 q 517 617 534 646 q 501 587 505 617 q 488 574 488 587 q 474 557 483 574 q 441 503 452 557 l 431 500 l 433 487 q 393 441 414 487 q 309 343 353 408 q 287 313 309 332 q 154 107 191 188 l 92 -4 l 35 -126 l -3 -197 l -6 -199 l -9 -199 q -20 -178 -16 -178 q -39 -208 -30 -178 l -36 -216 l -22 -216 q -17 -205 -17 -216 l -14 -202 l -12 -202 l -6 -216 l -36 -267 l -41 -267 l -47 -251 q -36 -243 -36 -247 l -50 -240 l -55 -240 l -55 -248 l -52 -251 l -52 -254 l -66 -264 l -66 -275 l -63 -278 l -50 -289 l -50 -292 q -60 -305 -55 -304 q -66 -289 -66 -305 l -87 -289 l -96 -281 l -96 -275 q -63 -180 -63 -203 q -17 -80 -33 -125 q -6 -56 -6 -77 l -9 -56 q -36 -99 -22 -60 q -98 -172 -49 -103 q -172 -262 -98 -189 l -174 -259 l -174 -254 l -166 -245 l -169 -232 q -134 -180 -155 -203 l -139 -167 q -128 -153 -128 -167 q -90 -104 -90 -130 l -85 -99 l -85 -85 q -68 -75 -68 -85 q -28 -20 -68 -67 q 18 56 -28 3 q 64 134 18 75 q 78 161 64 153 q 100 213 94 187 q 116 229 108 213 q 135 243 125 243 l 135 256 q 157 281 145 280 q 192 332 163 310 q 224 384 201 355 q 262 430 224 393 q 281 457 262 437 q 311 490 281 467 q 347 538 311 498 q 393 593 366 555 l 398 593 q 422 623 398 612 q 493 712 422 638 q 604 840 515 751 l 629 875 q 650 894 629 881 q 672 913 650 911 l 694 948 q 721 975 694 954 q 827 1086 821 1086 q 916 1165 884 1165 q 962 1214 916 1178 l 973 1217 q 981 1230 977 1230 l 984 1227 l 987 1227 q 1000 1244 987 1244 q 1017 1263 1000 1256 q 1060 1301 1017 1272 q 1093 1331 1061 1307 q 1128 1363 1093 1343 l 1201 1439 l 1247 1480 q 1307 1515 1247 1503 l 1312 1515 q 1320 1523 1312 1523 l 1318 1526 l 1318 1531 q 1331 1537 1318 1537 q 1356 1569 1331 1569 q 1364 1583 1358 1583 m 1326 1534 l 1326 1529 l 1329 1529 l 1329 1534 l 1326 1534 m -82 -321 l -66 -324 l -55 -321 l -52 -330 q -77 -359 -60 -347 l -85 -351 l -85 -346 q -77 -340 -85 -340 l -77 -338 q -87 -330 -87 -338 l -87 -327 l -82 -321 m -13 2293 l 3 2293 l 9 2287 l 9 2271 l 1 2263 l -2 2263 l -21 2282 l -13 2293 m 996 1392 l 1037 1381 q 1007 1327 1037 1352 q 966 1292 995 1292 q 945 1319 945 1300 l 942 1346 q 996 1392 970 1359 m 1246 846 l 1249 844 l 1249 808 l 1244 803 l 1238 803 q 1214 841 1214 825 l 1246 846 m 877 1335 l 882 1330 l 871 1322 l 866 1333 l 869 1335 l 877 1335 m 500 1322 l 511 1322 l 516 1316 l 516 1314 q 500 1305 513 1305 l 494 1305 l 494 1316 l 500 1322 m 1135 811 l 1138 808 q 1124 784 1131 784 l 1119 792 l 1119 803 q 1135 811 1119 808 m 948 800 q 907 770 948 775 l 902 787 q 948 800 919 800 m 1076 776 l 1111 776 l 1111 773 q 1081 743 1111 764 l 1073 743 l 1067 762 q 1076 776 1071 776 m 1217 746 l 1217 732 q 1198 711 1208 717 l 1192 711 l 1187 716 l 1187 730 q 1217 746 1187 739 m 1119 727 l 1124 727 q 1138 705 1138 720 l 1135 703 l 1127 703 l 1114 716 l 1114 722 l 1119 727 m 907 719 l 910 716 l 913 716 q 899 697 907 699 q 891 716 893 697 l 894 719 l 907 719 m 886 711 l 886 705 l 867 681 l 853 703 l 886 711 m 882 1186 l 888 1181 q 877 1173 888 1177 l 874 1175 l 882 1186 m 883 667 q 905 624 905 644 l 905 621 q 880 605 901 612 q 872 651 874 610 q 883 667 878 667 m 788 659 l 793 659 l 802 651 l 802 616 l 796 610 l 783 610 q 777 618 777 610 q 788 659 780 659 m 1067 651 l 1070 651 l 1070 648 l 1073 616 l 1038 610 q 1019 646 1019 629 l 1021 646 l 1067 651 m 1124 629 l 1138 629 l 1138 605 l 1133 600 l 1130 600 q 1119 618 1119 604 l 1119 624 l 1124 629 m 1171 627 l 1176 618 l 1176 594 q 1143 583 1176 587 l 1138 591 l 1138 594 q 1171 608 1138 603 l 1160 621 l 1171 627 m 1000 600 l 1010 600 l 1016 594 l 1016 583 q 994 570 1016 576 l 994 572 l 991 583 q 1000 600 995 600 m 905 564 l 907 562 l 907 559 q 842 502 907 515 l 840 505 q 861 537 840 530 q 905 564 876 564 m 405 1045 l 408 1045 l 421 1042 l 421 1034 q 402 1023 417 1023 l 399 1026 l 399 1040 l 405 1045 m 1130 518 l 1133 515 l 1133 499 l 1127 494 l 1122 494 l 1122 502 q 1130 518 1124 518 m 1165 505 l 1168 505 l 1179 491 l 1176 488 l 1168 488 l 1165 491 l 1162 491 l 1165 505 m 821 502 l 831 502 l 837 496 l 837 494 l 831 488 l 821 488 l 815 494 l 815 496 l 821 502 m 1208 480 l 1214 475 l 1214 464 q 1198 456 1214 458 l 1192 477 l 1195 480 l 1208 480 m 1124 907 q 1140 896 1140 907 q 1124 882 1136 882 l 1116 893 l 1116 901 q 1124 907 1116 907 m -474 899 l -452 899 l -452 893 q -474 877 -463 877 l -479 893 l -474 899 m 866 890 q 874 877 871 890 l 858 871 l 852 888 l 855 890 l 866 890 m 1008 309 l 1010 309 l 1019 301 l 1019 296 l 1013 290 l 1008 290 l 1002 296 l 1002 304 l 1008 309 m -450 782 l -431 782 l -428 779 l -425 779 q -447 755 -425 767 l -455 766 l -455 777 l -450 782 m 538 736 l 541 736 l 546 730 l 546 725 l 541 720 l 535 720 l 530 725 l 530 728 l 538 736 m 226 698 l 237 698 l 245 690 l 245 684 q 226 671 243 676 l 220 679 l 220 692 l 226 698 m 410 573 l 418 573 l 424 568 l 424 559 l 397 538 l 391 538 l 389 557 l 389 565 q 410 573 391 573 m -395 562 l -385 562 l -379 557 l -379 541 q -414 524 -379 530 l -414 530 q -395 562 -405 562 m -265 554 q -227 538 -227 554 l -227 530 l -211 530 q -189 516 -196 530 l -189 505 q -214 492 -200 492 q -227 511 -227 501 q -249 530 -249 511 l -265 549 l -265 554 m 714 543 q 725 527 720 543 l 722 524 l 714 524 l 709 530 l 709 538 l 714 543 m 1570 431 l 1578 431 l 1578 418 l 1573 412 l 1559 412 l 1559 420 l 1570 431 m 1464 350 l 1478 350 q 1483 342 1483 350 l 1491 342 l 1508 345 q 1524 336 1524 341 l 1524 326 q 1491 312 1524 316 q 1448 323 1484 317 q 1464 350 1459 349 m 1684 336 l 1708 336 l 1716 328 l 1716 326 q 1689 304 1704 304 q 1678 312 1678 308 l 1678 331 l 1684 336 m 318 229 l 323 229 l 323 226 l 321 212 l 315 212 l 318 229 m -1086 917 l -1062 917 l -1054 909 l -1073 887 q -1095 906 -1095 899 q -1086 917 -1090 917 m -1038 911 q -994 903 -994 911 l -994 892 q -1016 879 -994 886 q -1043 906 -1043 888 l -1038 911 m 123 39 l 125 39 l 125 22 l 120 17 l 109 17 l 106 20 l 104 20 q 123 39 106 39 m 1091 33 l 1099 33 q 1110 6 1105 33 l 1129 6 l 1137 12 l 1140 3 q 1118 -24 1135 -24 q 1083 22 1083 7 l 1083 25 l 1091 33 m -975 863 l -972 860 q -981 844 -976 844 l -983 844 l -991 852 l -991 854 q -975 863 -991 860 m -13 6 l -5 6 l 1 1 l 1 -2 q -16 -10 1 -7 l -18 -7 l -18 1 l -13 6 m -978 827 l -970 800 q -1005 776 -970 776 q -1013 795 -1013 786 l -1013 808 q -978 827 -1000 827 m 101 -64 l 106 -70 q 87 -89 106 -89 l 82 -67 l 85 -64 l 101 -64 m 361 -176 q 372 -184 372 -180 l 364 -189 l 361 -189 l 359 -178 l 361 -176 m -54 -300 l -48 -300 l -43 -311 l -45 -314 l -54 -314 l -59 -309 q -54 -300 -54 -309 m 375 -436 l 394 -436 l 399 -441 l 399 -447 q 375 -460 399 -453 l 370 -452 l 370 -441 l 375 -436 m -89 -439 l -78 -439 q -89 -463 -78 -459 l -94 -458 l -94 -444 l -89 -439 z "},":":{"ha":585,"x_min":0,"x_max":651,"o":"m 534 811 l 553 811 q 594 765 594 787 l 600 765 l 600 789 q 624 768 624 789 l 610 754 l 594 754 l 591 757 l 589 757 q 575 751 589 751 l 572 738 q 586 716 577 738 l 586 713 l 567 684 l 567 678 l 583 678 q 605 686 583 686 l 648 727 l 651 727 l 651 708 q 605 648 651 692 q 551 621 588 631 l 548 618 l 548 613 l 551 610 l 551 608 l 564 610 l 578 610 l 589 600 l 589 591 l 551 581 l 543 581 l 505 591 l 475 586 l 467 586 q 439 602 439 598 l 445 608 q 418 694 418 678 q 483 781 441 781 q 534 811 500 781 m 141 239 q 195 212 180 239 l 212 184 q 220 179 220 184 l 217 160 q 228 138 224 160 q 160 57 228 111 l 160 54 l 176 54 q 195 62 185 54 l 201 62 l 206 57 l 206 49 q 152 16 205 39 q 92 0 152 0 q 22 38 22 18 q 0 87 0 66 l 0 100 q 16 152 9 109 q 33 179 25 158 q 57 203 43 179 q 141 239 114 239 m 155 163 l 157 144 l 157 130 l 152 122 l 155 109 l 144 106 q 152 100 144 100 q 206 144 185 117 l 206 149 q 193 155 206 155 l 184 163 l 155 163 z "},";":{"ha":651,"x_min":-149,"x_max":687,"o":"m 600 882 q 644 846 618 882 q 665 825 652 846 l 665 822 l 663 819 l 663 817 l 649 819 q 625 806 640 806 q 611 789 611 798 l 616 773 q 597 743 608 744 l 592 732 l 595 716 q 587 697 587 706 l 587 694 l 611 703 q 625 692 612 695 l 606 662 l 608 662 l 627 651 q 684 667 641 659 l 687 665 l 687 662 q 625 621 652 621 q 538 651 578 621 l 524 654 l 500 654 l 492 659 l 478 659 q 473 667 478 667 q 448 656 458 667 l 443 656 l 437 662 l 454 686 q 446 700 448 686 l 473 751 q 481 768 481 754 l 481 779 l 475 787 l 475 789 q 527 822 475 813 l 554 846 l 565 846 l 578 844 l 578 838 l 576 836 l 576 833 l 578 830 l 581 830 l 600 846 q 589 860 589 852 q 600 882 594 882 m 614 743 l 619 743 q 625 735 625 743 l 627 732 l 630 732 l 633 735 l 635 732 l 630 722 l 633 705 l 630 703 l 627 703 l 611 708 l 619 735 l 614 741 l 614 743 m 166 282 l 174 277 l 177 277 l 193 279 q 258 233 239 268 q 286 160 286 195 l 286 155 q 185 0 270 79 q 25 -125 86 -104 q -86 -163 -49 -163 l -111 -163 q -149 -141 -149 -163 l -146 -138 l -143 -138 q -130 -144 -130 -138 q -43 -103 -58 -126 q 3 -57 -19 -93 q 44 -19 32 -41 l 41 3 l 52 11 l 39 27 l 39 30 l 41 30 l 55 24 q 93 87 93 45 l 93 90 l 85 136 l 93 144 l 93 157 l 96 184 l 93 184 q 55 152 75 184 q 28 109 45 152 l 6 95 l -2 106 l -2 109 l 1 111 l 1 114 l -5 119 l -5 122 l 1 127 q 14 160 9 127 q 63 209 16 166 q 93 228 63 225 q 134 263 93 263 q 155 271 136 271 l 161 271 q 166 282 161 282 z "},"<":{"ha":1773,"x_min":-102,"x_max":1870,"o":"m 481 981 l 516 981 l 606 960 q 682 922 606 941 q 717 881 717 886 l 709 848 q 733 829 712 841 l 749 843 q 755 816 755 838 l 758 813 q 771 797 758 801 l 771 789 q 752 648 758 713 q 701 593 738 627 q 606 512 645 512 q 562 496 577 496 l 551 496 q 524 509 543 496 l 503 507 q 462 566 462 530 q 473 580 467 578 l 481 580 q 505 569 491 580 l 527 569 q 543 593 543 578 q 503 623 503 600 q 527 634 503 631 l 557 585 l 559 585 q 646 737 646 618 l 646 775 q 635 802 643 802 l 622 800 q 546 862 581 862 q 527 835 542 862 q 489 800 501 820 l 467 808 q 503 867 467 840 q 481 884 496 884 l 408 889 q 356 859 404 880 q 299 813 349 845 q 207 694 240 764 q 155 553 160 624 q 142 469 144 517 q 223 243 142 393 l 326 127 q 356 102 340 127 l 437 59 q 443 40 443 53 q 467 18 449 40 q 541 -3 522 -3 l 573 -1 q 638 -28 625 -28 l 679 -12 q 760 -36 723 -36 l 768 -36 q 806 -17 779 -36 l 828 -25 l 844 -25 l 882 -14 l 926 -20 q 985 -3 941 -10 q 1031 16 999 16 q 1126 54 1031 35 q 1232 105 1213 105 q 1343 159 1271 111 l 1414 200 q 1512 249 1433 200 q 1658 328 1625 304 q 1832 474 1739 385 q 1853 496 1843 474 l 1862 496 l 1870 488 l 1843 444 l 1840 428 q 1867 417 1867 422 l 1867 414 l 1851 414 q 1821 387 1842 387 q 1753 325 1770 361 q 1712 279 1712 304 q 1661 208 1670 214 q 1636 173 1653 180 q 1579 75 1617 133 q 1539 -93 1539 -14 q 1569 -125 1539 -118 l 1566 -128 l 1566 -144 q 1596 -196 1567 -165 q 1653 -215 1614 -215 q 1702 -182 1653 -201 q 1775 -139 1710 -167 q 1796 -96 1796 -106 l 1802 -90 l 1807 -90 l 1813 -96 q 1786 -136 1813 -121 q 1740 -204 1778 -178 q 1655 -253 1683 -253 l 1612 -253 q 1539 -201 1588 -253 q 1495 -112 1495 -134 l 1495 -74 q 1531 48 1495 -43 q 1566 121 1531 62 q 1631 216 1582 165 q 1645 249 1645 240 l 1636 254 q 1455 140 1597 253 l 1354 86 q 1303 59 1339 59 q 1243 35 1276 41 q 1110 -36 1239 24 q 966 -90 1036 -75 q 855 -120 960 -101 q 730 -147 855 -133 l 630 -144 q 543 -134 612 -136 q 332 -74 429 -112 q 182 2 229 -45 q 71 62 87 62 q 36 78 55 62 l 33 78 q -21 29 -21 78 q -32 7 -26 7 q -5 -55 -15 -55 l 25 -63 q 44 -74 30 -74 q 82 -22 63 -22 q 109 -60 109 -22 q 74 -128 109 -113 q 17 -158 34 -157 l 12 -158 q -102 -28 -74 -158 l -102 24 q -24 143 -102 78 q 33 181 6 143 q 50 208 50 192 q 28 379 28 286 q 50 507 28 454 l 63 545 q 98 645 67 594 q 172 789 105 684 q 234 865 177 789 l 302 919 q 361 960 308 919 q 481 981 416 981 z "},"=":{"ha":811,"x_min":0,"x_max":0,"o":""},">":{"ha":1305,"x_min":-45,"x_max":5247,"o":"m 1748 2835 l 1821 2835 q 2016 2734 1905 2817 q 2087 2536 2079 2620 l 2068 2479 q 1986 2241 2068 2397 q 1910 2089 1964 2214 q 1875 2024 1875 2039 l 1875 2016 l 1878 2016 q 2038 2113 1885 2016 q 2271 2208 2097 2145 q 2442 2268 2308 2228 q 2613 2325 2554 2311 l 2629 2325 l 2646 2322 l 2759 2371 l 2770 2371 q 2797 2363 2784 2371 l 2787 2338 l 2789 2336 l 2795 2336 q 2822 2352 2795 2352 q 2854 2368 2854 2356 q 2901 2401 2854 2380 l 2920 2401 q 3099 2425 2972 2425 q 3256 2463 3182 2441 q 3701 2493 3369 2479 l 3722 2493 q 3950 2458 3859 2479 q 4102 2425 4034 2458 q 4284 2360 4209 2399 q 4737 2072 4350 2360 q 4970 1883 4841 2015 q 5201 1546 5201 1586 q 5247 1356 5247 1412 l 5223 1050 l 5225 1025 q 5160 909 5189 1025 q 5101 795 5129 840 q 4881 420 5050 674 q 4694 236 4738 255 q 4637 190 4667 190 l 4498 103 q 4338 30 4382 56 l 4314 30 q 4181 0 4298 30 l 4175 0 q 3785 49 3857 0 q 3611 117 3721 49 q 3489 241 3611 125 q 3356 562 3356 450 q 3386 629 3356 595 q 3421 705 3394 705 q 3467 773 3430 710 q 3652 865 3573 865 l 3663 865 q 3804 803 3804 850 l 3804 798 q 3793 789 3804 789 l 3663 808 q 3573 760 3628 805 q 3484 629 3541 704 q 3457 534 3457 585 l 3457 469 q 3541 296 3457 456 q 3592 231 3541 283 q 3744 136 3592 215 q 3864 111 3786 136 l 3904 109 l 4070 109 q 4311 149 4311 133 q 4466 203 4336 163 q 4577 252 4527 252 q 4658 304 4580 267 q 4908 692 4816 507 q 5025 882 4937 728 q 5090 1147 5090 1072 l 5090 1188 q 5003 1527 5090 1294 q 4992 1592 4999 1527 q 4886 1725 4973 1622 l 4865 1777 q 4818 1831 4846 1779 l 4542 2097 q 4341 2211 4451 2166 q 4070 2311 4279 2247 q 3679 2398 3855 2398 l 3484 2398 q 3267 2360 3360 2398 q 2732 2238 3033 2314 l 2730 2238 q 2684 2254 2707 2254 q 2526 2189 2620 2219 q 2426 2159 2492 2159 q 1905 1921 2398 2159 q 1647 1769 1785 1864 l 1544 1693 l 1479 1638 q 1357 1489 1470 1609 q 1107 1278 1218 1380 q 852 1055 876 1059 l 850 1058 l 850 1069 q 866 1074 850 1074 l 866 1099 q 820 1047 820 1069 q 760 1015 820 1034 q 630 911 705 992 q 237 553 454 768 q -13 342 171 504 l -40 320 l -45 320 l -45 328 q -13 382 -45 348 q 22 467 22 434 q 58 510 22 475 q 142 581 60 530 q 508 949 242 644 q 589 1012 517 975 l 806 1226 q 812 1234 806 1234 l 844 1234 q 1183 1473 872 1234 q 1338 1628 1265 1522 l 1533 1801 q 1674 1923 1601 1836 q 1802 2097 1786 2038 q 1894 2322 1864 2201 q 1935 2539 1935 2479 q 1881 2645 1935 2597 q 1769 2721 1809 2721 l 1750 2721 q 1702 2702 1729 2721 l 1672 2702 q 1579 2582 1579 2641 q 1647 2450 1579 2557 l 1655 2412 l 1653 2409 l 1628 2409 q 1547 2493 1604 2452 q 1498 2596 1498 2541 l 1498 2634 q 1664 2818 1498 2742 q 1748 2835 1710 2835 m 3435 2129 q 3674 2081 3514 2105 q 3785 2048 3741 2070 q 4151 1934 3885 2048 q 4216 1864 4216 1891 l 4216 1853 q 4276 1820 4245 1848 q 4368 1698 4302 1803 l 4430 1579 q 4447 1516 4430 1563 q 4496 1367 4447 1488 l 4496 1335 q 4474 1316 4496 1316 l 4455 1318 l 4455 1316 q 4341 1158 4381 1158 l 4338 1158 q 4363 1248 4341 1248 q 4395 1375 4395 1300 l 4395 1383 q 4357 1533 4395 1508 l 4344 1554 l 4355 1573 q 4276 1687 4336 1631 q 4051 1874 4144 1824 q 3869 1948 3998 1907 q 3538 2002 3735 1983 q 3389 2018 3461 2018 l 3326 2018 q 3044 1969 3234 2018 l 3033 1959 l 3020 1961 l 3009 1961 q 2990 1950 2997 1950 l 2990 1956 q 2735 1885 2817 1912 q 2429 1774 2534 1801 q 2374 1747 2419 1747 l 2361 1736 l 2336 1742 q 2222 1676 2306 1704 q 2141 1628 2155 1652 q 1696 1405 2069 1628 q 1390 1207 1585 1337 q 1164 1061 1316 1174 l 991 952 q 866 863 954 919 q 720 757 795 793 q 622 681 669 707 q 513 591 583 637 q 427 505 504 570 q 288 401 398 505 q 253 388 264 388 q 226 407 226 399 q 269 439 226 427 q 356 540 304 503 q 551 689 441 618 q 706 822 631 752 q 1143 1139 1017 1055 q 1284 1251 1213 1211 q 1403 1337 1360 1324 q 1742 1538 1727 1538 q 2567 1902 2469 1902 q 2735 1959 2621 1931 q 3177 2081 2901 2027 q 3435 2129 3343 2129 z "},"?":{"ha":4936,"x_min":-302,"x_max":4990,"o":"m 3550 3411 q 3767 3362 3617 3411 q 3886 3291 3856 3315 q 3992 3169 3981 3204 l 4030 3101 l 4051 3107 l 4054 3104 q 4043 3055 4043 3083 l 4043 3050 l 4057 2960 l 4057 2955 l 4030 2876 q 3981 2759 4030 2786 q 3894 2665 3922 2705 q 3856 2646 3878 2649 q 3729 2548 3856 2605 q 3639 2483 3703 2515 q 3219 2342 3539 2419 q 3061 2306 3086 2306 q 2646 2171 2888 2258 l 2511 2127 q 2277 2049 2445 2127 q 2090 1973 2162 1994 q 1941 1894 2066 1973 q 1887 1851 1907 1878 l 1841 1818 q 1794 1788 1813 1807 q 1781 1807 1786 1790 q 1868 1889 1783 1833 q 1954 1976 1954 1969 l 1949 2013 l 1957 2019 l 1979 2003 q 2128 2079 1979 2024 q 2169 2114 2157 2079 q 2207 2133 2177 2133 q 2285 2168 2273 2168 l 2383 2168 l 2386 2171 q 2391 2187 2391 2171 q 2467 2198 2391 2195 q 2511 2228 2467 2219 l 2513 2225 l 2516 2225 q 2554 2241 2524 2225 q 2871 2350 2768 2300 q 3012 2377 2910 2368 q 3449 2521 3170 2420 q 3677 2610 3648 2609 q 3810 2697 3731 2651 q 3899 2822 3863 2736 l 3967 2974 q 3899 3161 3967 3013 q 3639 3326 3852 3250 q 3555 3362 3569 3362 l 3539 3362 q 3408 3297 3478 3352 l 3381 3261 l 3381 3259 q 3398 3188 3398 3221 q 3373 3145 3398 3178 l 3373 3137 q 3408 3085 3381 3085 l 3408 3082 l 3400 3055 q 3411 3042 3406 3054 l 3395 3004 l 3389 3004 q 3324 3150 3343 3053 l 3322 3177 q 3376 3329 3322 3251 q 3520 3405 3433 3381 q 3550 3411 3520 3411 m 2717 2909 l 2733 2909 l 2738 2903 l 2738 2887 l 2728 2876 l 2709 2898 q 2717 2909 2713 2909 m 3254 2152 q 3324 2144 3280 2144 l 3465 2144 l 3544 2141 l 3571 2146 l 3691 2141 l 3742 2144 q 3959 2111 3786 2130 q 4062 2092 4001 2099 q 4358 1978 4301 1978 q 4431 1929 4358 1954 q 4409 1965 4409 1951 l 4431 1970 l 4445 1970 l 4445 1935 q 4626 1826 4527 1876 q 4686 1791 4635 1817 q 4773 1723 4706 1758 q 4854 1623 4788 1723 q 4900 1506 4862 1611 q 4987 1270 4987 1345 l 4990 1243 q 4968 1107 4980 1107 q 4862 931 4906 971 q 4833 899 4853 931 q 4806 885 4817 885 l 4787 885 l 4759 882 l 4759 888 q 4830 988 4829 959 q 4881 1159 4857 1029 q 4911 1192 4894 1192 l 4914 1192 l 4933 1189 l 4936 1230 l 4936 1240 q 4797 1601 4936 1345 q 4637 1742 4681 1733 q 4513 1826 4576 1773 q 4409 1859 4478 1848 q 4390 1834 4409 1848 q 4380 1843 4380 1839 q 4393 1864 4380 1864 q 4309 1902 4382 1876 q 4268 1867 4285 1867 l 4263 1889 l 4263 1891 q 4304 1902 4263 1902 l 4304 1905 l 4116 1970 l 3929 2011 l 3691 2041 l 3536 2049 l 3476 2046 l 3330 2051 q 3097 2016 3118 2016 l 3097 2013 l 3105 1973 l 3102 1970 l 3099 1973 l 3050 1973 l 3018 1976 l 3018 1973 q 3124 1938 3018 1963 l 3224 1927 q 3232 1938 3225 1938 l 3240 1938 l 3246 1932 l 3246 1927 l 3243 1924 l 3243 1921 l 3441 1826 q 3807 1655 3741 1702 q 4051 1330 4020 1441 q 4108 1004 4108 1173 q 4138 926 4108 971 l 4125 901 l 4127 885 l 4127 882 q 4108 869 4127 878 l 4097 842 l 4103 814 q 4060 777 4089 777 q 3918 546 3967 578 q 3756 394 3807 426 q 3487 223 3648 311 q 3354 166 3470 201 q 3170 106 3303 125 l 3094 101 l 3064 101 q 2985 115 3036 101 q 2847 174 2936 115 q 2692 334 2791 195 q 2597 568 2613 467 q 2673 695 2642 652 q 2828 782 2748 782 l 2858 782 q 3059 663 2968 782 l 3072 570 q 3029 467 3072 543 q 2917 416 2941 416 q 2828 465 2887 416 q 2871 516 2834 516 l 2874 516 l 2958 508 q 3018 570 3002 508 l 3018 576 q 2947 654 3018 610 q 2874 703 2903 703 l 2871 703 q 2711 638 2781 703 l 2687 568 l 2687 524 q 2725 478 2687 494 l 2725 475 l 2722 475 l 2690 486 q 2706 448 2700 448 l 2725 462 q 2782 348 2743 462 q 2893 239 2825 278 q 2931 193 2909 193 q 3061 180 2936 182 l 3086 180 q 3265 191 3167 191 l 3276 188 q 3297 215 3276 215 q 3693 416 3357 215 q 3918 682 3918 649 q 3984 852 3952 705 q 3997 1037 3997 962 q 3954 1257 3973 1257 q 3777 1490 3895 1414 q 3598 1642 3653 1642 q 3476 1685 3547 1642 q 3395 1740 3441 1740 l 3137 1821 q 3023 1856 3063 1849 q 2947 1872 2971 1872 l 2869 1867 l 2733 1872 q 2372 1758 2585 1872 q 2036 1645 2254 1707 q 1835 1566 1940 1645 q 1681 1476 1725 1525 q 1412 1349 1651 1443 l 1246 1284 l 1065 1173 q 812 1007 935 1074 l 823 985 q 815 975 819 975 l 810 975 l 804 980 l 804 999 l 802 999 q 680 912 745 951 l 652 888 l 652 885 q 674 852 674 880 l 674 850 l 671 850 q 644 877 656 850 l 642 877 q 506 785 595 839 q 422 720 473 749 q 321 638 377 669 q 197 532 231 532 q 85 437 144 492 l 50 427 l 47 427 l 26 437 q 61 473 26 473 q 102 532 80 491 q 302 695 210 632 q 525 877 335 708 q 753 1048 753 1040 l 753 1053 l 758 1053 l 758 1048 q 991 1224 924 1162 q 1124 1324 1107 1308 q 1246 1403 1145 1349 q 1317 1444 1270 1421 l 1317 1455 l 1314 1457 l 1314 1460 q 1482 1550 1446 1521 l 1480 1552 l 1480 1555 q 1512 1566 1496 1566 l 1512 1563 q 1778 1710 1696 1655 l 1819 1731 l 1819 1734 q 1800 1745 1800 1740 l 1800 1750 l 1808 1758 l 1813 1758 q 1841 1745 1825 1758 q 2030 1843 2009 1824 l 2036 1848 l 2044 1845 q 2345 1978 2309 1978 q 2524 2051 2473 2051 q 2823 2100 2716 2100 q 3243 2146 2823 2115 l 3254 2152 m 1710 2038 l 1718 2038 q 1740 2011 1740 2022 l 1737 2011 q 1705 2032 1724 2011 l 1710 2038 m 1811 2019 l 1827 2000 l 1819 1994 l 1813 1994 q 1794 2011 1794 2006 q 1811 2019 1797 2019 m 3723 2005 q 3764 1997 3742 2005 q 3737 1943 3764 1958 q 3715 1913 3731 1920 l 3699 1905 q 3672 1943 3672 1913 l 3672 1959 q 3723 2005 3710 1984 m 1811 1978 l 1816 1973 l 1816 1965 l 1813 1965 l 1794 1967 l 1794 1970 q 1811 1978 1797 1978 m 3601 1951 l 3606 1951 l 3612 1946 l 3604 1938 l 3596 1946 l 3601 1951 m 4130 1924 l 4144 1924 l 4144 1921 q 4100 1894 4129 1894 l 4097 1897 l 4097 1910 q 4130 1924 4109 1924 m 1816 1902 l 1822 1902 q 1838 1878 1828 1902 l 1835 1875 l 1830 1875 q 1816 1897 1816 1882 l 1816 1902 m 4309 1851 l 4320 1851 l 4331 1840 l 4331 1829 l 4320 1829 l 4309 1840 l 4309 1851 m 4087 1845 l 4106 1845 l 4106 1834 l 4092 1821 l 4087 1843 l 4087 1845 m 1613 1837 l 1634 1813 l 1634 1810 l 1621 1810 q 1583 1829 1596 1810 q 1613 1837 1594 1837 m 4079 1837 l 4079 1829 q 4062 1807 4066 1807 q 4049 1829 4049 1822 l 4079 1837 m 3612 1802 l 3615 1799 l 3615 1794 l 3609 1788 l 3604 1788 l 3604 1791 q 3612 1802 3608 1802 m 4076 1791 q 4100 1745 4100 1775 q 4070 1731 4087 1731 l 4068 1780 q 4076 1791 4072 1791 m 3981 1786 l 3997 1780 l 3994 1761 l 3994 1742 l 3989 1737 l 3978 1737 l 3973 1742 l 3973 1750 q 3981 1786 3973 1773 m 4260 1777 l 4268 1742 l 4247 1737 l 4233 1737 q 4214 1767 4214 1750 l 4214 1772 l 4217 1772 l 4260 1777 m 1748 1764 l 1751 1764 q 1781 1745 1767 1764 l 1781 1742 q 1729 1702 1773 1724 l 1727 1702 q 1713 1726 1718 1702 l 1713 1748 q 1748 1764 1725 1764 m 4328 1753 l 4333 1748 l 4333 1731 l 4328 1726 l 4323 1726 q 4312 1750 4316 1726 l 4315 1753 l 4328 1753 m 4361 1750 l 4369 1750 l 4369 1718 q 4336 1710 4369 1710 l 4333 1712 l 4333 1721 q 4363 1734 4333 1727 l 4363 1737 l 4355 1745 l 4361 1750 m 4195 1726 l 4206 1726 l 4211 1721 l 4211 1710 q 4190 1696 4211 1703 l 4187 1699 l 4187 1710 q 4195 1726 4189 1726 m 4100 1688 l 4103 1685 l 4103 1683 q 4038 1628 4103 1642 l 4035 1631 l 4035 1634 q 4057 1664 4035 1655 q 4100 1688 4067 1688 m 566 1674 l 571 1674 l 576 1631 l 576 1628 l 574 1609 q 555 1620 559 1609 l 555 1623 q 566 1674 555 1649 m 1040 1666 l 1046 1666 q 1076 1658 1076 1666 q 1043 1607 1076 1649 l 1040 1607 q 1027 1655 1034 1607 l 1040 1666 m 3140 1661 l 3151 1653 l 3151 1650 q 3132 1636 3149 1642 l 3129 1639 l 3129 1653 q 3140 1661 3129 1657 m 4323 1642 l 4328 1636 l 4328 1626 q 4317 1617 4328 1622 l 4315 1620 q 4323 1642 4317 1642 m 4363 1628 l 4374 1615 l 4371 1612 l 4363 1612 l 4358 1617 l 4358 1623 l 4363 1628 m 4016 1626 l 4027 1626 l 4032 1620 l 4032 1617 l 4027 1612 l 4016 1612 l 4011 1617 l 4011 1620 l 4016 1626 m 986 1615 l 989 1612 l 989 1601 l 983 1601 l 972 1607 l 972 1612 l 986 1615 m 4393 1604 l 4404 1604 l 4409 1598 l 4409 1590 l 4401 1582 l 4396 1582 l 4388 1590 l 4388 1598 l 4393 1604 m 1051 1525 l 1057 1520 l 1057 1517 l 1051 1512 l 1043 1522 l 1046 1525 l 1051 1525 m 2275 1514 l 2277 1512 l 2280 1512 q 2256 1493 2272 1493 l 2253 1493 l 2250 1512 l 2253 1514 l 2275 1514 m 3588 1506 l 3593 1506 l 3601 1498 l 3601 1490 l 3588 1487 l 3582 1495 l 3582 1501 l 3588 1506 m 780 1487 l 785 1482 l 785 1479 l 780 1474 l 766 1474 l 766 1476 l 780 1487 m 997 1455 l 1013 1455 q 1027 1425 1021 1455 l 1013 1419 l 991 1425 l 981 1400 l 991 1390 l 991 1384 l 978 1371 l 970 1379 l 970 1381 l 972 1395 l 962 1387 q 954 1419 954 1396 l 954 1438 q 967 1447 954 1444 l 989 1438 q 997 1455 991 1455 m 4203 1436 l 4206 1436 q 4214 1419 4211 1436 l 4211 1417 l 4203 1417 q 4195 1430 4197 1417 l 4203 1436 m 1111 1433 l 1119 1414 l 1116 1411 l 1111 1411 q 1089 1425 1096 1411 l 1089 1428 l 1111 1433 m 156 1411 l 170 1411 q 178 1395 178 1409 l 178 1384 l 175 1381 l 175 1379 q 148 1390 148 1385 l 148 1403 l 156 1411 m 766 1403 q 783 1379 783 1392 l 769 1373 q 739 1400 756 1373 l 742 1403 l 766 1403 m 2283 1398 l 2299 1398 l 2304 1392 q 2285 1371 2300 1380 l 2283 1371 q 2275 1387 2275 1373 l 2275 1390 l 2283 1398 m 886 1381 l 897 1362 l 894 1360 l 880 1360 q 872 1373 876 1360 l 886 1381 m 674 1362 l 677 1362 q 720 1327 713 1362 q 696 1314 706 1314 q 669 1349 672 1314 l 669 1357 l 674 1362 m 736 1360 l 742 1360 l 747 1354 l 747 1352 q 739 1335 747 1337 l 728 1335 l 726 1338 l 723 1338 q 736 1360 723 1352 m 3265 1349 l 3273 1349 l 3273 1341 l 3265 1333 l 3259 1338 l 3259 1343 l 3265 1349 m 4 1343 q 34 1335 34 1343 l 34 1322 q -12 1308 34 1312 q -20 1324 -20 1311 l -20 1330 q 4 1343 -14 1343 m 132 1319 q 148 1311 148 1316 l 137 1297 l 129 1297 l 126 1300 l 123 1300 q 132 1319 126 1319 m 2955 1314 l 2966 1314 q 2974 1297 2974 1311 q 2955 1286 2970 1286 l 2950 1292 l 2950 1308 l 2955 1314 m 891 1281 l 897 1281 l 902 1276 q 886 1251 892 1252 l 880 1251 l 880 1254 q 891 1281 884 1281 m -259 1267 l -256 1265 l -256 1246 l -259 1246 q -267 1257 -266 1246 q -259 1267 -263 1267 m 167 1213 l 170 1213 q 197 1175 197 1200 l 197 1164 l 191 1164 q 170 1173 191 1173 l 164 1181 l 167 1211 l 167 1213 m 449 1186 q 463 1167 463 1182 l 446 1159 l 438 1170 l 438 1178 q 449 1186 438 1185 m 3124 1186 l 3148 1186 l 3153 1181 l 3153 1175 l 3124 1151 l 3121 1151 l 3118 1170 l 3118 1181 l 3124 1186 m 2334 1178 l 2345 1178 l 2351 1173 l 2351 1154 q 2321 1140 2351 1144 l 2315 1140 q 2334 1178 2315 1163 m 2462 1170 q 2500 1159 2500 1170 l 2502 1143 l 2516 1145 q 2543 1126 2535 1145 q 2513 1107 2543 1111 q 2486 1129 2499 1129 q 2462 1167 2486 1138 l 2462 1170 m 3444 1159 q 3455 1143 3448 1159 l 3452 1140 l 3444 1140 l 3438 1145 l 3438 1154 l 3444 1159 m 1325 1110 l 1331 1110 l 1336 1105 l 1336 1097 l 1331 1091 l 1322 1091 l 1320 1094 l 1317 1094 q 1325 1110 1320 1110 m 1024 1099 l 1032 1088 l 1032 1086 q 1027 1075 1027 1086 l 1021 1075 l 1019 1088 l 1019 1094 l 1024 1099 m 1138 1072 l 1157 1072 l 1165 1067 q 1146 1034 1156 1034 l 1122 1056 l 1122 1064 q 1138 1072 1124 1072 m 530 1069 l 544 1069 q 555 1056 555 1064 q 533 1031 547 1038 q 511 1045 518 1031 l 511 1048 l 530 1069 m -121 1021 l -118 1013 q -123 966 -118 966 q -145 977 -145 971 l -145 983 q -121 1021 -145 1021 m -210 994 l -208 994 l -208 980 l -216 980 l -216 988 l -210 994 m -66 994 l -64 994 l -58 988 l -58 985 l -61 966 l -66 966 q -83 975 -80 966 l -83 985 q -66 994 -80 994 m 4179 988 l 4182 985 l 4182 983 q 4163 966 4182 968 l 4160 969 q 4179 988 4163 988 m -224 942 l -218 942 l -210 934 l -216 928 q -229 937 -229 932 l -224 942 m -189 934 l -183 934 l -183 923 l -189 918 l -194 918 l -199 923 l -189 934 m 4287 890 l 4312 890 l 4317 885 q 4290 858 4317 866 l 4279 871 q 4287 890 4282 890 m 1043 858 q 1084 831 1061 858 l 1081 806 l 1073 806 q 1029 855 1029 834 l 1032 858 l 1043 858 m 1095 852 q 1108 844 1108 849 l 1108 839 l 1103 833 l 1092 836 l 1092 847 l 1095 850 l 1095 852 m 959 842 l 970 842 q 978 812 976 842 l 975 812 l 951 820 q 959 842 954 842 m 3045 833 l 3050 833 l 3050 828 l 3045 828 l 3045 833 m 1371 804 q 1436 749 1436 804 q 1366 730 1436 741 q 1352 755 1352 745 l 1352 758 q 1371 766 1371 760 l 1371 795 l 1369 798 l 1369 801 l 1371 804 m 796 777 q 845 763 823 774 l 826 663 q 753 714 800 667 q 785 755 753 755 l 791 755 l 796 777 m -151 749 l -148 749 q -142 741 -142 749 l -145 733 l -148 733 l -159 744 l -151 749 m 4293 682 l 4309 682 l 4315 676 l 4315 671 q 4301 649 4301 659 l 4298 649 l 4274 665 q 4293 682 4274 682 m 4333 676 q 4377 665 4377 675 l 4377 654 q 4355 644 4377 649 q 4328 663 4341 644 l 4328 671 l 4333 676 m 2852 654 l 2855 652 l 2855 638 l 2850 633 l 2839 633 l 2836 635 l 2833 635 q 2852 654 2835 654 m 1005 649 l 1010 649 l 1010 635 l 1008 616 l 1002 616 l 994 635 q 1005 649 1000 648 m 3821 649 l 3826 649 q 3840 619 3834 649 l 3843 619 l 3870 625 l 3870 622 q 3845 592 3866 592 l 3818 619 l 3810 641 l 3821 649 m -53 641 l -50 638 l -50 625 q -77 606 -50 619 q -99 562 -86 578 q -134 581 -118 562 l -134 584 l -126 611 l -129 611 q -148 633 -143 621 l -145 635 l -115 635 q -53 641 -66 635 m 4393 627 l 4396 625 l 4396 622 q 4388 606 4396 608 l 4380 614 l 4380 619 q 4393 627 4380 624 m 2717 619 l 2725 619 l 2730 614 q 2714 606 2728 606 l 2711 608 l 2711 614 l 2717 619 m 4390 592 l 4399 570 l 4399 565 q 4382 543 4399 543 l 4363 541 q 4355 568 4355 555 q 4390 592 4369 592 m 788 578 l 793 573 l 793 559 l 788 559 q 780 576 783 559 l 783 578 l 788 578 m 2831 551 l 2836 546 q 2825 527 2833 527 l 2820 527 q 2812 549 2814 527 l 2814 551 l 2831 551 m 1035 538 l 1048 538 q 1062 505 1057 538 l 1059 505 q 1029 527 1048 518 l 1029 532 l 1035 538 m 774 519 l 783 519 q 802 494 802 519 l 799 492 q 777 505 777 492 l 774 519 m 845 513 q 872 489 872 509 l 869 486 l 867 489 l 845 489 l 842 486 l 840 486 l 837 489 l 837 508 q 845 513 837 513 m 370 478 l 378 475 l 400 478 l 408 446 l 408 443 q 400 427 408 429 q 378 454 381 427 q 368 462 368 454 l 368 473 l 370 475 l 370 478 m -297 459 q -264 446 -264 459 l -262 432 l -273 432 q -302 448 -294 432 l -302 454 l -297 459 m 3088 437 l 3099 437 l 3097 424 l 3091 424 l 3088 437 m 2679 313 l 2684 307 l 2684 302 l 2673 302 l 2673 307 l 2679 313 m 658 264 l 661 264 q 699 212 699 245 l 682 212 q 658 264 676 216 m 2652 177 q 2641 153 2652 157 l 2635 153 l 2635 169 q 2652 177 2638 177 z "},"@":{"ha":1894,"x_min":-1179,"x_max":2968,"o":"m 899 1291 l 929 1283 l 937 1291 l 943 1291 l 951 1280 l 964 1289 q 989 1278 977 1289 l 1024 1283 l 1040 1275 l 1059 1278 l 1111 1272 l 1160 1272 q 1257 1253 1171 1265 l 1257 1248 l 1268 1256 q 1317 1234 1282 1256 q 1469 1153 1432 1186 q 1553 1112 1489 1153 q 1580 1101 1553 1105 l 1613 1053 q 1634 1034 1628 1044 l 1634 1023 q 1613 1034 1619 1023 l 1613 1036 l 1615 1039 l 1615 1042 l 1607 1042 l 1599 1034 q 1637 993 1617 993 l 1640 993 l 1637 1012 l 1651 1012 l 1659 1004 l 1659 979 q 1686 898 1686 952 q 1705 827 1697 880 q 1735 708 1719 827 q 1756 635 1738 635 q 1743 575 1756 613 l 1746 559 q 1727 502 1727 529 l 1729 491 q 1713 442 1721 479 q 1697 418 1704 441 l 1702 404 l 1699 404 q 1664 350 1684 404 l 1621 285 l 1624 260 q 1558 171 1624 210 q 1450 114 1520 131 l 1379 84 l 1322 65 q 1225 35 1280 35 q 1114 87 1142 35 l 1084 111 l 1070 111 l 1070 127 q 1051 152 1064 127 l 1051 165 q 1010 193 1031 165 l 1010 217 l 1013 247 l 1010 250 l 1010 252 q 1029 328 1021 281 l 1040 355 l 1038 358 l 1035 358 q 1008 323 1035 347 q 989 307 1008 315 q 943 255 989 296 q 869 195 928 231 q 818 141 850 179 l 772 100 q 736 81 751 100 l 671 54 q 582 95 582 78 q 525 152 566 95 l 517 144 l 514 144 l 509 149 l 506 146 l 503 146 q 487 190 490 146 q 506 250 487 232 l 503 260 q 514 323 504 290 l 511 331 l 522 353 l 519 355 l 519 358 q 557 426 522 388 q 587 461 572 461 l 585 464 l 585 467 q 617 507 585 484 q 707 591 618 514 q 742 621 715 591 l 788 654 q 897 708 878 708 l 902 708 l 918 703 l 948 708 l 943 716 l 1000 735 q 1010 730 1010 734 q 1084 743 1031 743 l 1100 738 l 1105 743 l 1108 743 q 1135 730 1120 743 q 1181 757 1172 757 l 1181 746 q 1195 762 1195 748 l 1198 762 l 1195 765 l 1195 776 q 1203 787 1203 776 l 1208 787 l 1217 781 l 1233 795 q 1249 773 1240 795 l 1249 768 l 1246 754 q 1274 730 1252 754 q 1295 719 1292 730 l 1295 705 q 1274 681 1285 682 l 1249 643 l 1252 632 l 1233 591 l 1238 586 q 1222 559 1222 573 l 1222 543 q 1203 515 1215 543 q 1190 477 1195 477 l 1192 475 l 1192 467 q 1184 461 1192 461 l 1184 453 q 1165 418 1184 443 l 1168 404 q 1149 374 1164 404 l 1152 361 q 1138 336 1138 350 l 1141 320 q 1122 296 1134 320 l 1122 288 l 1127 279 l 1119 277 l 1119 258 q 1127 252 1127 258 l 1116 250 l 1116 236 l 1108 222 l 1114 209 l 1108 198 q 1122 184 1110 191 l 1122 187 l 1119 190 l 1119 193 q 1138 214 1124 205 l 1141 212 l 1141 209 l 1138 187 q 1195 111 1157 111 l 1206 114 q 1236 92 1221 92 l 1241 92 l 1241 103 l 1274 100 l 1401 184 l 1412 182 q 1442 209 1431 182 l 1439 212 l 1439 214 q 1453 233 1446 232 q 1463 228 1453 228 l 1463 222 l 1458 222 l 1455 225 l 1453 225 l 1450 222 l 1450 220 l 1453 212 q 1477 241 1477 214 l 1496 250 l 1482 266 l 1496 271 l 1496 285 q 1545 334 1528 327 l 1550 353 l 1548 353 q 1542 361 1542 353 q 1556 401 1553 379 l 1572 407 l 1569 420 l 1569 426 q 1596 475 1587 443 l 1591 480 q 1605 486 1591 486 l 1607 502 l 1605 518 q 1626 605 1615 533 l 1629 608 l 1626 610 l 1626 613 q 1643 684 1643 652 q 1607 822 1643 744 q 1586 884 1607 851 q 1515 939 1586 914 l 1493 941 l 1482 939 q 1447 944 1477 944 l 1444 947 l 1444 955 q 1461 977 1461 969 q 1385 1009 1413 1004 q 1339 998 1339 1004 q 1355 968 1339 987 l 1352 966 l 1350 966 q 1312 987 1341 966 l 1309 985 l 1306 985 q 1260 1006 1274 1006 l 1255 1001 l 1249 1001 l 1241 1006 l 1238 1006 q 1179 990 1238 990 q 1154 968 1179 985 q 1141 944 1154 951 l 1141 941 l 1133 941 l 1133 949 q 1152 979 1133 964 l 1152 985 l 1146 990 l 1141 990 q 1089 979 1116 990 l 1076 982 q 1008 971 1053 974 q 954 944 1008 962 l 937 947 l 918 933 l 907 930 l 905 947 l 880 930 l 878 930 q 842 941 871 938 l 837 952 l 837 955 l 840 955 l 850 947 q 878 971 878 956 q 864 993 864 979 l 848 993 q 791 952 791 977 l 788 949 l 783 949 l 783 952 l 788 968 l 783 974 q 742 952 768 974 q 696 917 728 952 l 693 917 l 693 906 l 696 906 l 715 914 l 723 911 l 731 914 l 731 890 l 723 890 q 718 898 723 898 l 712 898 l 712 895 l 720 892 l 712 879 l 709 882 l 704 882 q 671 868 677 882 l 661 876 l 625 852 l 620 857 q 585 838 598 857 l 566 838 q 555 827 566 827 q 536 808 555 808 l 495 760 q 481 749 487 760 l 490 749 l 490 746 l 484 741 l 473 743 l 465 732 l 471 727 q 430 684 471 714 l 414 689 l 400 689 q 376 627 376 641 q 368 589 368 627 l 365 586 l 359 586 l 354 591 l 354 594 l 359 613 q 330 605 343 605 l 330 602 l 327 575 l 335 575 l 343 581 l 351 581 l 351 575 l 340 562 l 340 553 l 346 545 q 332 518 346 532 l 335 515 l 335 507 q 264 412 268 444 l 270 401 q 248 372 248 389 l 245 355 l 254 342 l 254 336 l 240 320 l 243 307 q 235 293 237 307 l 262 271 l 262 269 q 235 201 235 252 l 235 193 q 251 98 245 180 l 248 73 q 254 65 254 73 l 251 54 q 267 41 256 41 l 267 38 l 259 14 q 308 -114 259 -43 q 327 -144 327 -136 l 335 -144 l 335 -141 l 311 -100 l 324 -90 l 368 -152 q 384 -187 382 -152 q 430 -220 405 -187 q 444 -225 430 -225 l 446 -233 l 449 -233 l 468 -231 q 503 -247 468 -242 l 519 -244 l 525 -244 q 571 -277 537 -277 l 579 -279 l 595 -274 l 625 -288 l 625 -293 q 609 -301 623 -301 l 601 -301 q 595 -317 601 -317 l 590 -317 q 585 -309 590 -309 l 579 -315 l 604 -326 l 647 -323 l 655 -323 q 620 -315 655 -317 l 620 -312 l 636 -298 l 650 -298 l 669 -312 l 666 -315 l 666 -320 q 682 -328 669 -328 q 690 -307 688 -328 l 696 -307 l 712 -323 l 736 -323 l 747 -312 l 818 -323 q 853 -296 853 -314 q 891 -309 878 -309 q 910 -301 900 -309 l 945 -301 l 948 -304 l 951 -304 q 1010 -282 951 -295 l 1029 -271 l 1032 -271 l 1043 -279 l 1048 -279 q 1059 -263 1054 -279 l 1062 -266 l 1070 -266 l 1067 -263 l 1067 -260 l 1073 -255 l 1081 -260 l 1095 -260 l 1095 -266 q 1122 -244 1122 -266 l 1138 -250 l 1143 -244 l 1160 -250 q 1200 -236 1173 -241 q 1244 -212 1202 -225 q 1271 -176 1251 -193 l 1274 -176 l 1282 -182 l 1290 -182 l 1290 -165 q 1309 -157 1290 -159 q 1314 -141 1309 -141 l 1331 -144 l 1333 -141 l 1333 -138 q 1325 -133 1325 -138 l 1325 -130 l 1331 -114 l 1333 -114 l 1341 -122 l 1358 -117 l 1360 -117 q 1377 -141 1360 -129 l 1377 -144 l 1339 -193 q 1301 -225 1339 -205 q 1165 -326 1193 -317 q 1081 -380 1143 -355 q 1038 -391 1067 -391 l 1032 -396 l 1027 -396 l 1008 -393 q 1000 -401 1008 -401 l 970 -388 l 812 -407 q 625 -382 625 -407 q 473 -339 539 -366 q 381 -304 381 -322 q 370 -296 381 -296 q 340 -258 349 -285 q 335 -241 335 -258 q 316 -222 316 -241 q 305 -206 316 -210 l 308 -203 l 308 -195 l 289 -198 l 281 -198 q 256 -163 256 -183 q 227 -117 233 -151 l 202 -71 q 194 -35 196 -71 q 180 -11 180 -30 q 142 81 168 6 l 145 127 l 145 206 l 140 214 l 140 231 l 137 260 l 140 263 l 137 277 l 137 298 l 159 415 l 170 445 l 183 513 l 180 526 q 227 648 195 551 q 262 708 250 673 q 278 727 271 727 l 294 722 q 330 749 323 749 l 330 760 q 411 849 330 774 q 427 868 420 849 l 498 914 q 598 993 514 916 q 699 1058 684 1058 l 723 1044 q 891 1118 869 1118 l 921 1109 q 1092 1137 1013 1131 l 1133 1137 l 1157 1112 q 1219 1123 1219 1112 l 1219 1126 l 1225 1126 q 1255 1099 1225 1104 l 1257 1099 l 1298 1101 l 1298 1104 l 1295 1112 l 1298 1115 l 1301 1115 q 1312 1104 1303 1104 l 1331 1107 l 1331 1112 q 1312 1123 1331 1118 l 1295 1120 q 1252 1131 1284 1131 l 1227 1161 l 1200 1166 l 1190 1164 l 1179 1175 l 1162 1175 l 1160 1172 l 1157 1172 l 1154 1180 l 1130 1177 l 1114 1183 l 1097 1177 l 1092 1183 l 1086 1183 l 1081 1177 q 1000 1194 1081 1186 l 994 1194 q 728 1147 796 1172 q 642 1120 677 1128 q 533 1082 587 1092 q 492 1066 533 1074 l 476 1066 q 452 1053 476 1053 q 416 1031 446 1053 q 330 993 385 1031 q 256 914 304 972 l 232 911 l 235 903 q 205 876 222 876 l 202 879 l 202 887 l 208 895 l 208 903 l 205 906 l 205 909 q 243 949 243 928 l 224 963 q 275 998 224 968 q 332 1047 303 1035 q 362 1061 332 1061 l 362 1077 l 370 1085 l 373 1085 q 378 1077 373 1077 l 387 1082 l 400 1082 q 476 1134 400 1111 q 495 1145 476 1145 q 528 1164 495 1156 q 557 1177 528 1170 q 650 1213 587 1194 q 669 1223 650 1223 l 715 1234 l 726 1232 l 728 1234 l 731 1234 l 734 1232 l 736 1232 q 761 1256 750 1232 l 764 1253 l 769 1253 q 802 1261 774 1259 l 804 1259 l 807 1259 q 850 1280 828 1259 l 861 1278 l 867 1283 l 872 1283 l 888 1270 q 899 1291 895 1291 m 1252 1009 l 1252 1006 l 1257 1006 l 1257 1009 l 1252 1009 m 1000 605 l 978 616 q 905 575 951 611 l 905 570 l 913 559 l 913 553 l 902 551 l 894 556 q 758 464 797 556 q 734 366 739 410 l 745 331 l 736 323 l 731 323 q 704 385 704 340 q 726 480 726 464 q 652 391 700 480 q 620 274 640 391 q 636 214 623 248 l 633 195 q 666 146 633 158 l 677 144 l 682 144 q 831 228 793 185 q 905 285 870 253 q 954 331 917 306 q 1021 415 988 365 q 1081 521 1065 456 l 1086 521 l 1089 518 l 1092 518 l 1108 562 q 1119 578 1108 578 l 1127 610 l 1122 616 l 1122 624 l 1124 627 l 1116 654 l 1092 654 q 1008 613 1008 638 l 1000 605 m 1515 187 l 1518 187 q 1561 228 1544 187 l 1548 228 l 1515 187 m 365 -195 q 378 -222 378 -203 q 444 -274 418 -263 q 468 -288 444 -282 l 490 -288 l 495 -282 l 495 -279 q 484 -263 484 -279 l 441 -247 q 419 -225 432 -247 q 392 -209 403 -225 l 397 -201 l 370 -190 l 365 -195 m 1024 -353 l 1024 -358 l 1029 -363 l 1035 -363 q 1097 -328 1067 -363 l 1116 -315 l 1111 -315 q 1029 -353 1097 -315 l 1024 -353 m 545 2534 l 561 2534 l 566 2528 l 566 2512 l 558 2504 l 555 2504 l 536 2523 l 545 2534 m 2582 922 l 2623 911 q 2593 857 2623 882 q 2553 822 2581 822 q 2531 849 2531 830 l 2528 876 q 2582 922 2556 889 m 2966 1013 l 2968 1010 l 2968 975 l 2963 970 l 2957 970 q 2933 1008 2933 992 l 2966 1013 m 2463 865 l 2469 860 l 2458 852 l 2452 863 l 2455 865 l 2463 865 m 2086 852 l 2097 852 l 2102 846 l 2102 844 q 2086 836 2100 836 l 2081 836 l 2081 846 l 2086 852 m 2854 978 l 2857 975 q 2844 951 2850 951 l 2838 959 l 2838 970 q 2854 978 2838 975 m 2800 397 q 2759 367 2800 372 l 2754 383 q 2800 397 2771 397 m 2647 676 l 2682 676 l 2682 673 q 2652 644 2682 665 l 2644 644 l 2639 663 q 2647 676 2642 676 m 2936 913 l 2936 899 q 2917 878 2927 884 l 2911 878 l 2906 883 l 2906 897 q 2936 913 2906 906 m 2838 894 l 2844 894 q 2857 872 2857 886 l 2854 869 l 2846 869 l 2833 883 l 2833 888 l 2838 894 m 2759 315 l 2762 313 l 2765 313 q 2751 294 2759 296 q 2743 313 2745 294 l 2746 315 l 2759 315 m 2738 307 l 2738 302 l 2719 277 l 2705 299 l 2738 307 m 2469 716 l 2474 711 q 2463 703 2474 707 l 2460 705 l 2469 716 m 2735 264 q 2757 220 2757 241 l 2757 218 q 2732 201 2753 208 q 2724 248 2726 206 q 2735 264 2730 264 m 2640 256 l 2646 256 l 2654 248 l 2654 212 l 2648 207 l 2635 207 q 2629 215 2629 207 q 2640 256 2632 256 m 2639 551 l 2641 551 l 2641 549 l 2644 516 l 2609 511 q 2590 546 2590 530 l 2593 546 l 2639 551 m 2696 530 l 2709 530 l 2709 505 l 2704 500 l 2701 500 q 2690 519 2690 505 l 2690 524 l 2696 530 m 2742 527 l 2747 519 l 2747 494 q 2715 484 2747 488 l 2709 492 l 2709 494 q 2742 508 2709 503 l 2731 522 l 2742 527 m 2571 500 l 2582 500 l 2587 494 l 2587 484 q 2566 470 2587 477 l 2566 473 l 2563 484 q 2571 500 2566 500 m 1928 1316 l 1931 1313 l 1931 1310 q 1866 1253 1931 1267 l 1863 1256 q 1885 1289 1863 1281 q 1928 1316 1899 1316 m 962 1286 l 965 1286 l 979 1283 l 979 1275 q 960 1264 975 1264 l 957 1267 l 957 1280 l 962 1286 m 2153 1270 l 2156 1267 l 2156 1251 l 2150 1245 l 2145 1245 l 2145 1253 q 2153 1270 2147 1270 m 2188 1256 l 2191 1256 l 2202 1242 l 2199 1240 l 2191 1240 l 2188 1242 l 2186 1242 l 2188 1256 m 1844 1253 l 1855 1253 l 1860 1248 l 1860 1245 l 1855 1240 l 1844 1240 l 1839 1245 l 1839 1248 l 1844 1253 m 2232 1232 l 2237 1226 l 2237 1215 q 2221 1207 2237 1210 l 2216 1229 l 2218 1232 l 2232 1232 m 1681 1147 q 1697 1137 1697 1147 q 1681 1123 1693 1123 l 1673 1134 l 1673 1142 q 1681 1147 1673 1147 m 83 1139 l 105 1139 l 105 1134 q 83 1118 94 1118 l 78 1134 l 83 1139 m 1423 1131 q 1432 1118 1428 1131 l 1415 1112 l 1410 1128 l 1413 1131 l 1423 1131 m 2031 1061 l 2034 1061 l 2042 1053 l 2042 1047 l 2037 1042 l 2031 1042 l 2026 1047 l 2026 1055 l 2031 1061 m 108 1023 l 127 1023 l 130 1020 l 132 1020 q 111 996 132 1008 l 102 1006 l 102 1017 l 108 1023 m 1095 977 l 1098 977 l 1103 971 l 1103 966 l 1098 960 l 1093 960 l 1087 966 l 1087 968 l 1095 977 m 783 939 l 794 939 l 802 930 l 802 925 q 783 911 800 917 l 778 920 l 778 933 l 783 939 m 968 814 l 976 814 l 981 808 l 981 800 l 954 779 l 949 779 l 946 798 l 946 806 q 968 814 948 814 m 162 803 l 173 803 l 178 798 l 178 781 q 143 765 178 770 l 143 770 q 162 803 152 803 m 292 795 q 330 779 330 795 l 330 770 l 347 770 q 368 757 361 770 l 368 746 q 344 732 357 732 q 330 751 330 742 q 309 770 309 751 l 292 789 l 292 795 m 1272 784 q 1282 768 1277 784 l 1280 765 l 1272 765 l 1266 770 l 1266 779 l 1272 784 m 2001 613 l 2009 613 l 2009 600 l 2004 594 l 1990 594 l 1990 602 l 2001 613 m 1895 532 l 1909 532 q 1914 524 1914 532 l 1923 524 l 1939 526 q 1955 518 1955 523 l 1955 507 q 1923 494 1955 498 q 1879 505 1915 499 q 1895 532 1890 531 m 2115 518 l 2140 518 l 2148 510 l 2148 507 q 2121 486 2136 486 q 2110 494 2110 490 l 2110 513 l 2115 518 m 876 469 l 881 469 l 881 467 l 878 453 l 873 453 l 876 469 m 2112 307 l 2137 307 l 2145 298 l 2126 277 q 2104 296 2104 288 q 2112 307 2108 307 m 2161 301 q 2205 293 2205 301 l 2205 282 q 2183 269 2205 276 q 2156 296 2156 277 l 2161 301 m 680 279 l 683 279 l 683 263 l 677 258 l 667 258 l 664 260 l 661 260 q 680 279 663 279 m 1649 274 l 1657 274 q 1668 247 1663 274 l 1687 247 l 1695 252 l 1697 244 q 1676 217 1692 217 q 1640 263 1640 248 l 1640 266 l 1649 274 m 2224 252 l 2226 250 q 2218 233 2223 233 l 2216 233 l 2207 241 l 2207 244 q 2224 252 2207 250 m 545 247 l 553 247 l 558 241 l 558 239 q 542 231 558 233 l 539 233 l 539 241 l 545 247 m 2221 217 l 2229 190 q 2194 165 2229 165 q 2186 184 2186 176 l 2186 198 q 2221 217 2199 217 m 659 176 l 664 171 q 645 152 664 152 l 640 174 l 642 176 l 659 176 m 919 65 q 930 57 930 61 l 922 52 l 919 52 l 916 62 l 919 65 m 504 -60 l 509 -60 l 515 -71 l 512 -73 l 504 -73 l 498 -68 q 504 -60 504 -68 m 932 -195 l 951 -195 l 957 -201 l 957 -206 q 932 -220 957 -212 l 927 -212 l 927 -201 l 932 -195 m 469 -198 l 479 -198 q 469 -222 479 -218 l 463 -217 l 463 -203 l 469 -198 m -233 830 l -228 830 l -222 825 q -241 792 -235 792 l -244 795 l -244 806 q -233 830 -239 830 m 115 764 l 123 764 l 128 759 l 112 753 l 109 756 l 109 759 l 115 764 m -304 768 l -290 768 q -301 741 -293 741 l -312 741 l -312 751 q -304 768 -310 768 m -285 732 l -271 732 l -271 727 q -277 719 -277 727 l -279 716 l -285 716 l -290 722 l -290 727 l -285 732 m -759 669 l -756 661 q -791 626 -756 647 l -794 629 q -759 669 -789 669 m -431 694 q -407 635 -422 694 q -399 629 -399 635 l -399 627 q -420 613 -399 620 q -448 654 -448 640 l -448 662 q -431 694 -439 694 m -29 640 l -21 640 q 3 591 -12 640 l -5 588 l -45 604 q -73 588 -56 588 l -81 621 l -59 631 q -43 621 -54 621 q -29 640 -33 640 m 74 621 l 82 621 l 87 615 l 87 610 q 71 599 82 599 l 71 602 l 68 612 l 68 615 l 74 621 m -255 659 l -252 659 l -250 646 l -250 637 l -258 629 l -263 629 l -263 651 l -255 659 m -1006 572 l -1003 569 q -1027 539 -1012 539 l -1038 536 l -1049 545 q -1006 572 -1049 566 m -130 561 l -127 553 q -146 531 -132 541 l -151 547 l -151 550 q -130 561 -151 557 m -835 536 q -816 498 -816 517 l -816 490 l -821 485 l -857 485 q -889 498 -878 485 q -838 536 -889 531 l -835 536 m -911 496 l -905 488 q -938 458 -905 466 l -943 458 l -943 460 q -911 496 -930 496 m -539 479 l -536 479 l -531 474 l -531 458 q -569 447 -531 452 l -572 450 l -572 455 q -539 479 -572 479 m -1155 460 q -1139 447 -1143 457 l -1139 441 l -1147 433 l -1155 433 l -1168 436 l -1168 439 q -1155 460 -1168 458 m -683 444 l -677 444 l -677 441 q -691 390 -683 390 l -699 390 q -718 431 -718 403 q -683 444 -699 444 m -629 441 q -591 387 -605 441 l -588 385 l -591 382 l -626 382 l -642 395 q -629 441 -635 441 m -1171 433 q -1144 420 -1151 433 l -1144 401 l -1174 387 l -1174 390 l -1179 431 l -1171 433 m -170 431 l -168 431 l -140 406 l -140 387 l -168 363 q -178 382 -178 368 l -178 390 l -170 431 m -523 409 l -520 409 l -515 404 l -517 395 l -523 395 l -523 409 m -1030 401 l -1025 401 q -1017 385 -1020 401 l -1019 382 l -1030 382 l -1036 387 l -1036 395 l -1030 401 z "},"A":{"ha":2608,"x_min":-26,"x_max":3612,"o":"m 3560 2214 l 3566 2214 q 3577 2184 3575 2214 l 3596 2184 l 3609 2186 l 3612 2184 l 3612 2173 l 3606 2162 l 3590 2162 q 3566 2146 3579 2162 l 3550 2148 q 3476 2059 3550 2131 q 3463 2048 3476 2053 q 3430 2002 3430 2025 q 3354 1902 3357 1925 q 3343 1891 3343 1902 q 3265 1782 3343 1876 q 3126 1544 3126 1557 l 3126 1538 l 3153 1538 q 3189 1560 3179 1560 l 3311 1595 l 3373 1587 q 3395 1598 3373 1597 l 3395 1600 l 3373 1630 l 3341 1622 l 3338 1625 l 3338 1641 q 3373 1657 3338 1652 l 3384 1657 q 3419 1641 3398 1647 l 3422 1614 q 3398 1592 3422 1607 l 3400 1590 l 3398 1576 l 3398 1573 q 3455 1449 3455 1511 l 3455 1443 q 3389 1286 3455 1338 l 3384 1286 q 3370 1299 3384 1299 l 3368 1299 q 3408 1443 3408 1396 q 3346 1527 3394 1527 l 3333 1527 l 3314 1503 q 3305 1516 3309 1503 l 3300 1516 q 3213 1489 3254 1516 q 3083 1386 3158 1466 q 3037 1305 3042 1332 q 3007 1267 3007 1290 q 2977 1223 2981 1249 q 2898 1134 2925 1185 q 2874 1093 2874 1107 l 2874 1090 q 2923 1066 2890 1066 q 2942 1055 2923 1061 l 2945 1058 l 2947 1058 l 2955 1053 l 2974 1058 l 3029 1050 l 3042 1058 l 3059 1058 l 3137 1055 l 3219 1058 l 3235 1058 l 3238 1066 l 3251 1058 l 3354 1074 l 3360 1069 q 3376 1085 3376 1069 q 3433 1104 3409 1104 l 3438 1104 q 3444 1096 3444 1104 l 3449 1096 q 3463 1109 3449 1109 l 3465 1109 l 3471 1104 l 3471 1093 l 3468 1090 l 3468 1088 l 3455 1090 q 3387 1063 3426 1063 l 3373 1069 l 3373 1066 q 3292 1034 3373 1052 l 3118 1004 l 3094 1004 l 3086 998 l 3059 1004 l 2825 998 l 2814 977 l 2817 977 l 2833 966 l 2852 968 l 2898 968 q 2936 958 2936 965 l 2939 960 l 2947 960 q 2974 936 2966 960 l 2972 933 l 2969 933 l 2828 930 l 2806 933 q 2782 911 2782 925 q 2749 852 2766 911 q 2703 773 2728 852 q 2698 757 2698 773 l 2684 741 l 2671 741 q 2630 681 2671 726 l 2589 621 q 2568 594 2589 610 l 2573 581 q 2540 526 2540 555 q 2497 475 2525 526 q 2519 458 2497 468 l 2519 464 q 2511 469 2511 464 l 2511 480 q 2532 507 2532 499 l 2535 510 l 2538 510 l 2554 505 q 2492 410 2513 422 l 2486 410 l 2486 420 q 2494 453 2486 444 l 2494 464 l 2492 464 q 2473 423 2481 464 l 2440 388 l 2443 385 l 2443 377 q 2375 271 2412 347 q 2391 250 2375 257 q 2402 271 2396 271 l 2407 266 l 2407 263 q 2389 233 2407 253 l 2372 244 l 2372 239 l 2383 212 l 2380 209 l 2367 209 q 2359 220 2360 209 l 2356 220 l 2353 206 l 2353 201 l 2356 201 l 2370 203 l 2372 201 l 2372 198 q 2356 187 2367 187 l 2348 190 l 2348 187 l 2345 179 l 2329 184 l 2304 144 l 2302 144 l 2302 122 l 2288 109 l 2291 95 q 2261 52 2262 70 l 2261 46 l 2275 30 l 2275 27 q 2239 0 2275 0 l 2123 -16 l 2117 -11 q 2041 -30 2117 -20 q 1992 -54 2007 -41 l 1979 -52 l 1971 -52 l 1935 -81 l 1914 -81 l 1914 -79 q 1930 -38 1919 -38 q 1944 -3 1944 -38 q 1979 14 1969 14 l 1979 19 l 1973 27 q 2020 98 1994 41 q 2058 133 2027 98 l 2077 136 l 2077 157 q 2098 171 2085 171 q 2136 209 2098 190 l 2136 233 l 2147 244 l 2155 239 q 2220 307 2220 283 l 2215 323 l 2218 326 q 2223 336 2223 326 q 2269 374 2245 336 q 2329 439 2317 417 q 2348 464 2341 439 l 2364 467 l 2364 483 l 2342 477 l 2342 486 q 2405 556 2342 511 q 2437 605 2437 590 l 2437 608 l 2424 608 q 2418 616 2418 608 q 2445 632 2418 627 q 2475 667 2445 647 q 2568 800 2522 720 q 2597 836 2581 800 l 2595 849 q 2649 922 2612 853 l 2662 930 l 2665 977 l 2665 993 q 2687 1006 2665 997 l 2690 1025 l 2684 1025 l 2627 1036 q 2608 1044 2613 1036 q 2511 933 2581 1034 q 2443 873 2450 873 l 2432 882 q 2416 854 2417 882 q 2372 795 2389 825 q 2356 781 2356 795 q 2345 776 2356 776 q 2318 738 2345 754 q 2275 689 2318 727 q 2253 673 2268 677 q 2207 648 2241 648 l 2207 632 q 2199 627 2207 627 l 2196 624 l 2196 621 l 2199 613 q 2180 591 2181 613 l 2036 442 l 1984 385 q 1971 380 1971 385 l 1973 372 l 1957 366 q 1922 334 1957 338 q 1892 293 1922 315 q 1813 222 1856 253 q 1784 203 1813 205 q 1721 163 1784 188 l 1718 171 q 1732 182 1718 182 q 1773 214 1749 214 l 1838 277 l 1841 290 q 1683 184 1824 290 q 1605 122 1605 128 l 1537 92 q 1407 22 1484 52 q 1350 -8 1363 -8 q 1298 -27 1350 -18 q 1162 -60 1257 -45 l 1116 -60 q 935 -73 1094 -73 l 907 -76 l 902 -71 l 810 -62 l 802 -62 l 783 -68 q 742 -54 755 -54 l 739 -54 l 739 -60 l 736 -60 q 666 -27 702 -57 l 587 0 l 574 -3 l 487 24 q 427 60 479 39 l 319 144 l 319 157 q 202 244 213 218 l 191 271 l 199 274 q 178 288 199 278 l 178 298 l 159 298 q 153 307 153 298 l 151 309 l 77 309 q 53 290 53 309 q 28 282 28 290 l 23 239 q 50 171 45 208 q 64 141 58 171 q 85 117 85 130 l 83 114 q 31 155 58 114 q -4 220 20 163 l -7 222 l -12 222 l -12 206 l -15 203 l -15 201 q -7 195 -7 201 l -7 187 l -9 187 l -26 203 l -26 225 q -18 244 -26 234 q -26 250 -26 244 q -7 293 -19 275 l -7 298 l -12 307 q 28 336 5 310 l 80 361 q 202 326 151 326 q 278 263 266 278 l 275 260 l 275 258 q 305 228 275 236 l 338 182 l 338 179 l 340 182 l 349 182 q 406 152 376 152 q 425 125 406 134 l 433 117 l 446 119 q 601 43 476 76 q 671 22 616 43 q 772 -5 760 7 l 785 -3 l 799 -3 q 831 -19 825 -11 q 878 -8 841 -8 l 888 3 l 918 -5 l 926 -5 l 937 0 l 954 -3 l 964 5 l 991 3 l 1043 3 q 1048 -5 1048 3 l 1054 -5 q 1059 3 1054 3 l 1081 3 l 1105 0 l 1135 8 l 1146 -3 q 1301 30 1238 8 q 1426 81 1400 81 q 1556 157 1432 96 q 1591 193 1591 184 l 1588 193 q 1482 163 1538 163 l 1420 130 q 1317 100 1350 120 l 1317 98 l 1298 98 q 1271 84 1280 84 l 1244 84 q 1016 57 1244 66 l 736 76 l 726 87 l 718 87 l 701 84 l 688 92 l 671 92 q 663 81 667 92 l 661 79 l 652 79 q 555 127 555 106 l 471 157 l 471 179 q 365 266 397 228 q 275 363 275 335 q 229 467 275 380 l 208 543 l 213 586 l 205 613 l 205 616 l 208 629 q 199 662 201 629 q 251 811 219 766 l 248 814 l 248 817 q 264 873 255 856 q 289 952 264 888 l 289 1006 l 305 1001 l 302 987 l 302 985 l 311 985 l 311 996 q 332 1039 311 1013 q 308 1082 308 1069 q 216 1044 248 1082 l 191 1034 l 186 1039 q 172 1012 175 1028 l 167 1012 l 172 996 l 172 993 q 164 987 164 993 l 170 971 l 159 966 q 134 1001 134 966 l 132 1004 q 205 1115 189 1115 q 227 1137 227 1124 q 264 1153 237 1137 l 281 1156 q 313 1139 313 1153 q 327 1134 313 1134 l 332 1120 l 330 1120 l 311 1126 l 308 1123 l 308 1118 l 313 1109 l 313 1104 l 311 1085 l 346 1077 q 359 1088 358 1082 l 340 1118 l 343 1118 q 376 1096 349 1118 q 441 1188 441 1173 q 465 1213 441 1203 q 636 1373 583 1346 l 669 1416 q 734 1457 695 1416 q 826 1511 791 1473 l 913 1560 q 986 1600 958 1600 q 1040 1628 1005 1628 q 1111 1666 1040 1640 l 1114 1657 q 1176 1682 1143 1676 q 1282 1704 1176 1691 l 1284 1706 l 1293 1704 q 1567 1714 1464 1714 q 1683 1701 1666 1708 q 1762 1676 1738 1676 q 1819 1644 1763 1671 q 1824 1630 1819 1630 q 1879 1581 1842 1630 q 1892 1538 1892 1581 q 1906 1497 1906 1514 l 1906 1487 q 1898 1470 1906 1472 q 1908 1446 1908 1454 l 1908 1443 q 1898 1435 1908 1435 l 1898 1430 q 1906 1411 1906 1419 l 1906 1402 l 1898 1381 q 1908 1305 1908 1334 q 1895 1289 1905 1294 l 1887 1289 q 1876 1343 1881 1289 l 1881 1359 l 1881 1378 q 1870 1386 1870 1378 l 1870 1394 q 1881 1413 1870 1406 l 1870 1438 l 1881 1451 q 1860 1478 1860 1463 l 1860 1497 q 1835 1530 1846 1497 l 1835 1535 l 1838 1538 l 1838 1541 q 1794 1584 1794 1556 q 1735 1628 1758 1628 l 1716 1611 l 1710 1611 l 1710 1630 q 1664 1652 1710 1639 q 1599 1668 1664 1666 l 1594 1674 l 1586 1674 l 1542 1657 l 1526 1660 l 1518 1660 l 1507 1652 l 1501 1652 l 1482 1657 q 1431 1625 1475 1657 l 1393 1609 l 1388 1614 l 1388 1633 q 1415 1647 1388 1638 l 1417 1657 l 1417 1660 q 1409 1666 1417 1666 q 1236 1617 1363 1666 q 1187 1598 1227 1617 l 1152 1587 l 1135 1587 l 1133 1576 q 1051 1552 1091 1576 q 1019 1538 1034 1552 l 994 1530 l 997 1516 l 997 1514 l 989 1514 q 981 1530 981 1516 q 921 1481 954 1481 q 823 1430 871 1451 q 745 1367 814 1407 q 552 1199 654 1300 q 533 1158 533 1182 q 509 1109 509 1135 q 498 1090 498 1109 l 487 1077 l 490 1069 l 492 1069 l 568 1123 l 704 1221 q 791 1245 768 1234 l 845 1245 q 932 1229 885 1245 q 1038 1183 972 1229 q 1078 1123 1078 1137 l 1081 1104 l 1073 1042 l 1076 1020 q 1002 882 1033 882 l 1000 884 l 1000 887 l 1016 930 q 970 952 987 930 l 970 955 l 983 955 l 994 947 l 1000 987 l 1000 990 q 975 1072 1000 1042 q 951 1107 975 1086 l 951 1123 l 935 1123 l 926 1128 l 916 1128 l 916 1120 l 913 1109 l 918 1096 l 902 1085 l 899 1085 q 880 1134 899 1110 l 856 1128 q 837 1150 856 1150 l 815 1150 l 807 1142 l 831 1112 l 834 1109 l 831 1107 l 831 1104 q 761 1118 781 1118 l 758 1118 q 723 1104 732 1118 q 680 1074 697 1104 l 674 1074 l 674 1082 l 677 1085 l 677 1088 l 650 1093 l 636 1077 l 639 1063 l 636 1061 l 620 1061 l 620 1055 l 625 1050 l 639 1053 l 644 1039 q 617 1017 644 1029 q 593 985 617 1005 l 587 985 l 579 990 l 552 990 l 547 985 q 582 968 582 974 q 568 960 582 962 l 568 949 l 566 936 q 595 920 595 925 l 590 914 l 587 914 q 560 933 560 926 l 555 933 q 517 890 517 922 q 498 879 517 886 q 414 697 431 763 q 408 684 409 697 l 408 678 l 430 689 l 430 686 l 438 670 q 425 627 431 659 q 416 600 418 619 l 416 551 q 454 393 416 525 q 473 345 473 371 q 538 290 485 322 l 549 271 l 555 271 q 650 236 564 271 l 826 233 l 826 231 q 861 239 857 234 l 869 239 q 1086 277 1086 260 q 1236 323 1236 294 l 1246 331 l 1255 331 l 1276 326 l 1287 326 l 1298 331 l 1309 326 l 1309 331 l 1306 353 l 1282 334 q 1244 347 1244 337 l 1244 350 q 1257 358 1251 350 l 1279 350 l 1284 358 l 1284 361 l 1279 361 l 1279 366 l 1287 374 l 1301 374 q 1331 382 1301 382 q 1385 407 1331 391 l 1404 404 l 1404 407 l 1409 412 l 1423 404 l 1461 404 q 1548 458 1479 404 l 1602 502 l 1615 502 q 1721 581 1630 524 q 1737 597 1737 582 q 1794 635 1756 604 l 1797 635 l 1797 637 l 1794 651 l 1781 648 l 1781 651 q 1800 667 1781 656 l 1803 667 q 1808 656 1808 667 l 1811 656 l 1816 670 l 1803 675 q 1729 635 1757 641 l 1724 640 l 1718 635 q 1705 662 1712 635 l 1718 662 l 1716 665 l 1716 670 q 1778 692 1716 674 q 1860 746 1783 701 q 1917 776 1884 776 q 1927 789 1917 784 l 1941 787 q 1987 822 1978 808 q 2025 836 2003 822 l 2033 836 q 2039 825 2039 836 l 2047 822 q 2220 963 2198 951 q 2269 1012 2243 968 q 2291 1072 2280 1012 l 2285 1072 q 2272 1055 2272 1072 l 2269 1055 q 2264 1063 2264 1055 l 2261 1066 l 2250 1066 l 2237 1055 l 2220 1069 q 2212 1058 2220 1058 l 2190 1058 q 2185 1047 2190 1047 l 2174 1055 q 2052 1012 2052 1047 q 1982 979 2042 1012 l 1949 974 l 1938 974 q 1900 955 1938 955 l 1892 958 q 1849 928 1863 928 l 1838 936 q 1876 974 1838 954 q 1887 990 1887 974 l 1887 1015 q 1770 944 1844 1000 q 1718 903 1770 928 q 1550 697 1550 727 l 1548 694 l 1545 694 q 1534 716 1538 694 l 1518 722 l 1520 762 l 1520 776 q 1507 781 1507 776 q 1526 830 1517 797 l 1567 901 q 1746 1044 1699 1043 q 1838 1088 1783 1088 q 1884 1112 1857 1112 q 2014 1175 1895 1137 q 2079 1202 2036 1190 q 2085 1213 2079 1213 l 2106 1213 q 2201 1221 2153 1213 q 2361 1194 2339 1211 l 2410 1180 q 2473 1210 2473 1191 q 2538 1289 2526 1251 q 2565 1324 2565 1312 l 2565 1335 q 2557 1343 2557 1335 q 2595 1392 2570 1392 l 2603 1394 l 2614 1392 l 2700 1473 q 2722 1465 2722 1470 l 2719 1449 l 2736 1438 q 2747 1446 2736 1446 l 2749 1473 l 2749 1484 l 2763 1495 q 2779 1514 2768 1514 l 2774 1519 l 2768 1519 l 2766 1516 l 2763 1516 l 2760 1519 q 2790 1595 2760 1533 q 2736 1571 2764 1571 l 2725 1571 l 2725 1573 q 2801 1617 2745 1601 l 2801 1619 l 2795 1636 l 2795 1641 l 2874 1720 q 2898 1739 2898 1720 q 2953 1799 2925 1775 l 2964 1799 q 2996 1785 2972 1799 q 3029 1815 3006 1785 q 3080 1855 3042 1815 q 3143 1902 3090 1855 l 3151 1902 l 3178 1885 q 3205 1912 3178 1902 l 3210 1907 l 3213 1907 l 3208 1926 q 3238 1956 3227 1936 q 3248 1964 3248 1956 q 3286 1999 3263 1988 l 3295 1997 l 3295 1999 q 3316 2029 3295 2019 q 3335 2040 3316 2039 q 3400 2102 3335 2066 l 3408 2100 l 3408 2102 q 3449 2127 3426 2127 q 3514 2176 3454 2140 l 3552 2208 l 3560 2214 m 2907 1457 l 2909 1438 q 2861 1405 2873 1427 l 2812 1356 q 2749 1289 2812 1348 l 2709 1194 l 2668 1147 l 2668 1134 q 2749 1109 2668 1124 l 2755 1109 l 2776 1123 l 2771 1142 q 2812 1183 2771 1152 q 2844 1242 2844 1222 l 2847 1253 q 2871 1264 2852 1261 q 2915 1332 2915 1326 q 2939 1373 2915 1347 q 3004 1484 2990 1444 q 3061 1573 3040 1517 q 3102 1625 3069 1573 q 3116 1660 3111 1625 q 3167 1723 3132 1660 l 3167 1725 q 3097 1649 3159 1725 q 2907 1457 2941 1502 m 3259 1367 q 3270 1337 3263 1337 l 3297 1337 l 3322 1299 q 3362 1308 3339 1299 l 3365 1305 q 3330 1278 3356 1278 l 3303 1278 q 3238 1318 3251 1278 l 3229 1329 l 3229 1351 q 3259 1367 3229 1361 m 937 939 q 954 928 943 928 l 954 909 q 943 884 954 888 l 924 884 q 902 906 902 884 l 902 917 l 937 939 m 1651 247 q 1662 231 1657 231 l 1664 231 q 1762 326 1761 302 l 1689 274 q 1651 247 1651 262 z "},"B":{"ha":1818,"x_min":-84,"x_max":2268,"o":"m 1126 2436 l 1128 2436 q 1191 2376 1170 2436 l 1191 2374 l 1188 2371 l 1172 2376 l 1166 2376 l 1161 2371 l 1161 2341 l 1153 2333 q 1107 2395 1148 2395 q 1034 2379 1034 2392 l 1034 2376 l 1042 2365 l 1042 2355 l 1020 2360 q 987 2325 987 2345 l 985 2306 l 993 2306 l 1006 2319 l 1025 2319 q 1055 2306 1055 2315 l 1055 2303 q 1012 2271 1055 2279 q 1069 2230 1012 2256 q 1240 2298 1084 2230 l 1364 2338 q 1405 2352 1364 2352 q 1546 2382 1461 2382 l 1676 2403 l 1695 2406 l 1709 2406 q 1842 2384 1842 2396 q 1910 2363 1848 2377 q 2053 2268 2049 2302 l 2159 2154 q 2208 2018 2186 2100 q 2265 1834 2224 1998 l 2268 1693 l 2268 1652 q 2249 1568 2256 1652 q 2200 1476 2220 1476 q 2100 1370 2151 1395 q 2029 1294 2081 1343 q 1959 1245 2029 1275 q 1883 1204 1939 1223 q 1750 1142 1845 1168 q 1685 1115 1733 1127 l 1633 1080 l 1679 1050 q 1687 1063 1687 1050 l 1690 1063 q 1714 1050 1714 1057 l 1712 1036 l 1723 1036 q 1752 1012 1736 1036 l 1750 1001 q 1801 944 1766 1001 q 1826 868 1808 944 l 1836 852 l 1836 819 q 1847 811 1836 815 l 1842 798 l 1845 773 l 1845 762 l 1850 757 l 1847 743 q 1869 662 1847 669 q 1853 591 1869 591 q 1761 404 1850 553 q 1728 345 1749 370 q 1701 312 1728 329 q 1687 285 1701 289 q 1671 266 1687 266 q 1636 198 1657 253 q 1573 163 1589 163 q 1525 125 1567 163 q 1362 46 1459 87 q 1291 16 1362 41 l 1232 -11 l 1204 -8 l 1196 -8 q 1093 -38 1106 -38 q 1044 -60 1083 -50 q 982 -84 1044 -71 l 979 -84 l 974 -79 l 1034 -49 l 1025 -41 l 990 -41 q 971 -49 981 -41 l 922 -49 q 730 -16 777 -49 q 673 41 673 26 l 673 60 l 686 84 l 692 84 q 697 76 697 84 l 713 87 l 711 100 l 711 114 l 722 125 q 765 49 722 84 l 770 33 l 781 33 l 781 19 l 779 16 l 779 14 l 789 14 q 798 33 794 14 l 808 33 q 857 0 825 0 l 909 -5 l 1123 30 q 1251 98 1175 40 q 1289 114 1282 98 l 1289 119 l 1283 125 l 1267 125 l 1261 111 l 1259 114 l 1248 114 q 1242 106 1248 106 l 1234 106 l 1226 114 q 1253 127 1226 125 q 1316 174 1253 151 q 1356 209 1335 209 q 1378 231 1367 209 l 1381 233 l 1405 233 l 1405 244 l 1402 247 l 1402 250 q 1473 307 1410 250 q 1519 350 1479 307 q 1560 380 1545 361 l 1581 385 l 1590 377 l 1600 377 l 1606 410 l 1598 410 l 1584 407 l 1581 418 q 1600 450 1581 450 l 1603 464 l 1598 464 l 1598 467 q 1625 518 1625 498 l 1625 524 l 1614 526 q 1622 537 1618 537 l 1633 534 l 1633 537 q 1641 583 1636 583 l 1638 591 q 1649 640 1646 606 q 1657 646 1657 640 l 1652 654 l 1652 694 q 1663 713 1652 709 l 1668 713 q 1674 602 1670 602 l 1685 602 q 1666 575 1685 591 q 1649 469 1666 522 q 1690 551 1690 495 q 1695 583 1695 551 l 1695 586 l 1690 591 l 1693 665 l 1693 713 q 1666 719 1693 719 l 1663 722 l 1663 724 l 1666 757 q 1652 784 1659 757 l 1652 787 q 1668 817 1652 801 l 1674 817 l 1676 814 l 1679 814 q 1685 822 1679 822 l 1690 817 q 1704 800 1704 812 q 1725 781 1704 783 l 1728 781 q 1714 846 1717 807 l 1712 846 l 1698 844 l 1693 860 q 1679 868 1679 860 l 1679 914 q 1595 1020 1668 963 l 1592 1017 l 1557 1023 q 1492 1001 1506 1023 q 1378 930 1416 1001 q 1359 901 1378 901 q 1337 876 1354 876 l 1332 876 l 1332 873 q 1343 868 1343 873 l 1343 865 l 1337 860 l 1326 860 l 1324 863 l 1321 863 q 1294 838 1314 838 l 1278 836 l 1275 838 q 1351 1028 1275 892 q 1424 1104 1368 1032 q 1465 1142 1449 1120 l 1519 1185 q 1598 1248 1536 1185 q 1641 1280 1613 1248 q 1744 1378 1657 1284 q 1799 1449 1750 1378 q 1921 1655 1902 1574 q 1945 1663 1921 1662 l 1945 1666 q 1929 1676 1937 1666 l 1929 1687 q 1945 1714 1945 1697 l 1945 1717 q 1937 1736 1945 1730 l 1940 1747 l 1937 1799 l 1937 1812 l 1923 1820 q 1937 1853 1927 1853 q 1950 1826 1942 1853 l 1956 1826 l 1969 1831 q 1988 1788 1972 1803 l 1991 1758 l 1991 1750 q 1978 1771 1984 1750 q 1972 1763 1972 1771 l 1969 1761 l 1953 1761 l 1953 1755 q 1964 1739 1964 1755 l 1967 1739 l 1975 1742 l 1975 1739 l 1972 1731 l 1975 1712 q 1961 1682 1975 1682 l 1967 1668 q 1912 1571 1935 1590 q 1874 1484 1912 1554 q 1850 1454 1874 1454 q 1763 1337 1838 1430 q 1674 1245 1744 1337 q 1516 1137 1581 1190 l 1427 1050 l 1430 1050 q 1565 1120 1503 1096 q 1638 1180 1603 1156 q 1706 1218 1638 1197 q 1752 1242 1720 1242 l 1750 1245 l 1750 1259 l 1785 1280 q 1874 1340 1840 1340 l 1874 1359 q 1883 1364 1874 1364 l 1896 1362 q 1921 1400 1896 1377 q 1937 1411 1921 1411 q 1972 1457 1956 1457 q 1999 1500 1972 1466 q 2024 1549 2012 1545 l 2040 1595 l 2037 1603 q 2048 1630 2045 1603 l 2048 1649 q 2040 1655 2040 1649 q 2051 1682 2051 1666 l 2051 1695 q 2018 1934 2044 1922 q 1918 2083 1974 2028 q 1839 2148 1871 2138 q 1785 2176 1839 2162 l 1766 2189 l 1752 2186 l 1750 2186 l 1733 2192 l 1628 2186 q 1603 2197 1624 2197 l 1581 2197 q 1489 2176 1535 2197 l 1476 2178 q 1408 2151 1474 2168 q 1326 2105 1343 2105 q 1289 2089 1308 2105 q 1185 2043 1269 2089 q 1156 2024 1183 2035 q 1082 1972 1121 1987 l 996 1896 q 939 1845 996 1889 q 860 1750 939 1830 q 803 1663 803 1685 q 787 1641 787 1663 l 787 1633 l 776 1633 l 773 1636 l 770 1636 l 770 1625 l 773 1622 l 773 1619 l 770 1617 l 768 1619 l 757 1619 l 757 1611 l 762 1611 l 762 1603 l 757 1598 q 751 1609 751 1598 l 749 1609 q 735 1579 739 1609 l 732 1576 l 730 1568 l 727 1568 l 730 1565 l 730 1557 q 703 1503 730 1533 l 703 1473 l 686 1451 l 686 1443 q 651 1362 681 1362 q 637 1324 637 1350 l 643 1302 l 643 1294 l 640 1291 l 640 1289 l 654 1289 q 659 1305 654 1305 l 662 1305 l 667 1299 l 667 1291 q 659 1286 667 1286 q 692 1229 659 1229 q 719 1237 706 1237 l 727 1237 l 735 1229 l 735 1215 q 724 1196 724 1203 l 727 1196 q 741 1185 741 1196 q 787 1202 773 1185 l 787 1215 l 784 1218 l 784 1221 l 830 1234 q 836 1218 836 1234 l 844 1218 q 868 1283 868 1257 l 865 1302 l 871 1318 q 857 1359 871 1329 l 817 1362 l 760 1326 l 757 1326 l 749 1362 l 776 1386 l 773 1386 l 751 1373 l 743 1373 l 738 1378 l 738 1402 l 746 1411 l 765 1411 l 762 1424 l 770 1430 l 795 1430 l 798 1432 q 819 1451 802 1451 q 892 1413 892 1433 q 920 1305 920 1379 q 911 1278 911 1305 l 873 1199 l 884 1188 l 884 1185 q 868 1177 882 1177 l 868 1175 l 871 1161 l 830 1147 q 808 1131 815 1131 q 675 1156 675 1146 q 656 1166 675 1160 q 665 1183 661 1183 l 656 1204 l 643 1202 q 605 1215 632 1213 q 570 1310 585 1298 l 570 1356 q 600 1500 570 1438 q 648 1584 600 1530 q 860 1874 661 1649 l 860 1888 q 849 1896 849 1888 l 860 1902 l 871 1896 q 876 1921 871 1921 l 890 1915 l 890 1926 l 854 1931 l 827 1921 l 827 1918 l 830 1904 l 811 1888 q 789 1902 803 1902 q 694 1839 769 1902 l 692 1847 l 684 1847 l 659 1815 l 651 1815 l 648 1817 l 646 1817 q 613 1804 646 1813 q 567 1766 612 1794 q 507 1714 537 1731 q 486 1706 507 1709 q 445 1671 486 1678 q 434 1655 434 1671 l 393 1614 q 353 1573 389 1602 q 274 1495 353 1569 q 228 1440 273 1482 q 193 1383 228 1422 q 114 1264 140 1295 q 49 1090 112 1223 l 43 1090 l 43 1069 l 38 1063 q 27 1085 30 1063 l 38 1096 q 27 1101 27 1096 l 27 1109 q 38 1115 27 1115 l 38 1120 l 24 1118 l 24 1107 q 11 1025 24 1065 l 11 1023 q 24 892 17 892 l 22 890 l 22 887 l 30 873 l 27 838 q 60 773 27 823 q 92 743 73 773 l 130 738 l 130 732 l 87 727 q 30 751 58 746 l 24 743 l 38 724 l 46 727 l 49 716 l 65 716 q 127 678 98 678 q 195 692 127 688 l 269 722 l 266 724 l 266 727 l 269 730 l 282 727 l 288 727 l 301 749 q 326 773 326 756 q 347 803 326 790 q 363 860 355 810 l 342 884 l 309 884 q 271 914 271 889 q 323 930 302 930 q 361 890 361 914 q 377 852 377 890 l 377 836 l 363 819 q 380 798 380 812 q 355 760 380 760 q 260 673 348 724 l 250 670 l 241 670 q 222 648 241 662 l 212 648 l 201 656 l 201 654 l 203 640 l 195 640 l 141 621 q 11 703 58 621 l -5 716 l -3 719 q -24 760 -18 760 l -22 770 q -73 857 -22 791 l -84 903 l -84 914 q -27 1069 -84 936 l -3 1166 q 122 1446 56 1350 q 217 1565 148 1491 q 442 1834 292 1683 q 743 2048 705 2048 q 806 2089 806 2076 l 814 2097 q 822 2083 820 2097 l 825 2083 q 830 2100 825 2100 l 852 2100 l 852 2102 l 846 2119 q 960 2170 951 2161 l 968 2178 q 955 2203 968 2192 l 958 2216 l 958 2230 q 949 2235 958 2235 l 947 2238 l 947 2268 l 936 2279 l 928 2279 l 928 2271 l 930 2238 l 914 2227 q 898 2235 900 2227 q 922 2352 911 2266 q 958 2387 933 2356 l 968 2390 l 974 2384 l 987 2393 l 990 2374 l 1006 2379 l 1006 2384 l 998 2387 q 1042 2414 998 2404 q 1126 2436 1042 2429 m 1660 1723 l 1663 1723 l 1668 1717 l 1679 1714 l 1682 1712 l 1682 1709 l 1679 1701 l 1685 1701 l 1706 1706 q 1777 1652 1777 1681 l 1782 1652 q 1788 1660 1782 1660 l 1793 1660 l 1799 1655 l 1799 1638 q 1782 1630 1799 1633 q 1750 1647 1758 1647 q 1704 1619 1704 1639 q 1698 1606 1704 1606 l 1671 1614 q 1489 1492 1640 1614 q 1375 1367 1439 1453 q 1237 1223 1369 1367 q 1137 1115 1200 1199 q 1096 1063 1120 1087 q 1050 1015 1096 1050 q 917 860 963 925 q 868 803 869 823 l 871 795 l 868 792 l 865 792 l 863 795 q 819 749 846 793 q 732 621 798 730 q 697 578 713 614 q 665 529 674 561 q 621 464 652 529 q 537 363 576 431 q 499 317 526 360 q 456 263 480 313 q 420 206 427 238 q 342 103 390 181 q 320 84 334 103 l 301 87 q 285 62 285 80 l 285 52 q 263 11 273 47 q 279 -22 270 11 q 252 -38 263 -38 l 209 -24 l 168 -24 l 133 -22 q 41 -41 113 -22 q -14 -68 0 -41 l -27 -71 q -49 -54 -43 -54 l -49 -52 q 35 14 -1 -2 l 60 49 l 73 46 l 81 57 l 84 60 l 87 60 l 95 57 l 95 71 q 106 76 95 76 q 127 109 117 109 l 127 122 q 296 317 283 266 l 307 317 l 307 334 q 326 353 316 334 q 453 507 380 402 q 581 665 472 546 q 600 684 581 684 q 662 746 600 701 q 944 1069 693 817 q 1226 1359 1033 1155 q 1340 1470 1234 1361 l 1432 1557 q 1587 1698 1564 1683 q 1614 1717 1595 1698 l 1647 1709 l 1652 1709 l 1649 1712 l 1649 1714 l 1660 1723 m 24 760 l 24 757 l 33 757 l 33 765 l 30 765 l 24 760 m 1657 453 l 1657 437 q 1666 431 1666 437 l 1666 429 q 1636 399 1655 429 l 1622 399 l 1622 393 l 1628 388 l 1625 369 l 1625 363 l 1628 363 l 1647 369 l 1647 388 q 1685 469 1685 421 l 1685 472 l 1657 453 m 1310 138 l 1310 130 q 1476 225 1332 130 l 1503 255 q 1511 274 1503 274 l 1516 274 l 1519 271 q 1533 290 1533 275 l 1533 293 l 1522 293 q 1476 271 1476 293 q 1389 203 1417 211 q 1310 138 1351 161 z "},"C":{"ha":1685,"x_min":-403,"x_max":2578,"o":"m 1930 2091 l 1933 2088 l 1935 2088 l 1946 2091 l 1954 2091 l 1960 2085 l 1973 2088 l 2009 2088 l 2098 2069 q 2131 2020 2131 2053 q 2188 1912 2179 1971 l 2196 1879 q 2177 1839 2196 1851 l 2177 1822 l 2185 1752 l 2196 1752 q 2223 1760 2209 1752 l 2247 1752 l 2264 1754 q 2429 1722 2381 1741 q 2467 1714 2467 1722 l 2470 1716 l 2478 1716 l 2497 1708 l 2532 1725 q 2551 1692 2551 1704 l 2551 1689 q 2527 1681 2551 1683 q 2500 1668 2500 1672 l 2500 1649 q 2565 1586 2525 1637 q 2576 1475 2571 1586 l 2578 1464 l 2576 1461 l 2576 1459 l 2578 1440 q 2549 1418 2572 1418 q 2530 1383 2530 1418 q 2481 1337 2522 1337 l 2470 1337 q 2448 1348 2448 1341 l 2418 1342 q 2367 1396 2367 1368 q 2405 1421 2378 1421 q 2451 1402 2420 1411 l 2451 1383 l 2462 1380 q 2519 1445 2474 1413 l 2524 1459 l 2511 1529 q 2500 1554 2500 1541 l 2516 1556 q 2435 1632 2516 1590 q 2239 1676 2306 1651 l 2231 1651 l 2223 1651 q 2180 1668 2223 1662 q 2136 1578 2136 1617 q 2093 1440 2111 1485 l 2025 1299 q 1914 1141 1971 1205 q 1884 1117 1902 1117 q 1860 1087 1876 1095 q 1792 1033 1860 1072 q 1724 1003 1763 1003 q 1689 979 1706 979 q 1645 989 1669 979 l 1621 987 q 1537 1103 1537 1010 l 1537 1109 q 1564 1196 1546 1179 q 1591 1255 1564 1223 q 1615 1299 1591 1271 q 1645 1353 1645 1334 q 1681 1383 1674 1383 q 1708 1413 1688 1383 l 1846 1527 q 1908 1581 1846 1544 q 1949 1611 1908 1595 q 1968 1638 1949 1619 l 1971 1635 l 1976 1635 q 1998 1651 1989 1635 l 2020 1643 l 2020 1649 q 2011 1654 2011 1649 l 2011 1657 l 2014 1670 l 2011 1673 q 2101 1725 2026 1673 l 2120 1733 l 2120 1738 l 2117 1735 l 2098 1735 l 2090 1744 l 2090 1746 q 2117 1782 2094 1782 l 2134 1782 l 2134 1790 q 2123 1795 2123 1790 l 2131 1803 l 2131 1806 q 2109 1825 2123 1825 l 2109 1828 l 2125 1847 l 2109 1863 l 2109 1882 q 2085 1917 2109 1917 q 2074 1947 2077 1927 q 2003 1974 2028 1969 q 1984 1952 2003 1952 l 1944 1980 l 1944 1982 l 1919 1971 l 1887 1971 l 1884 1974 l 1881 1974 l 1884 1977 l 1884 1985 q 1876 1990 1884 1990 q 1868 1974 1868 1990 q 1781 1939 1839 1974 q 1743 1917 1750 1939 q 1689 1901 1734 1910 q 1607 1858 1645 1868 q 1545 1830 1567 1830 q 1455 1754 1487 1765 q 1388 1708 1455 1746 q 1181 1499 1265 1595 q 1138 1448 1164 1491 q 1059 1353 1100 1415 l 910 1149 q 829 984 869 1124 l 783 867 q 709 691 726 716 q 685 650 709 670 q 642 585 685 615 q 631 580 631 585 l 631 490 q 666 287 631 414 q 685 254 671 287 q 709 216 709 233 l 769 159 q 802 138 785 138 l 802 135 l 799 132 l 796 132 q 723 165 765 136 l 720 165 l 720 162 q 747 124 743 142 q 777 100 768 114 l 777 92 l 772 81 q 845 26 772 61 l 867 32 l 929 26 l 945 26 q 1035 48 1035 37 q 1043 59 1036 59 l 1059 59 q 1081 70 1059 68 l 1086 75 l 1089 75 l 1105 73 q 1214 108 1214 100 q 1279 132 1228 124 q 1341 168 1331 168 l 1360 154 l 1363 154 q 1396 178 1378 154 l 1458 214 q 1578 293 1458 231 l 1666 374 q 1773 421 1740 429 l 1755 373 q 1556 195 1660 259 q 1379 113 1446 135 q 1206 35 1251 35 l 1198 35 q 1165 18 1198 21 l 1162 18 l 1149 21 q 1103 -6 1125 -6 l 1089 5 l 1084 5 q 918 -39 1005 -9 l 888 -39 l 878 -41 l 845 -36 l 840 -41 l 815 -41 q 712 -3 743 -10 l 696 -20 q 690 -9 690 -20 l 682 -9 l 674 -14 l 666 -14 q 606 54 606 28 q 560 113 580 73 q 511 176 542 143 l 514 186 q 509 208 509 186 q 503 224 503 208 q 495 230 495 224 l 500 238 l 500 252 l 495 260 l 498 276 l 490 290 l 490 311 q 476 374 490 374 q 454 406 460 374 l 454 417 q 460 436 455 436 q 449 466 455 466 l 452 479 l 452 482 q 446 496 452 496 l 449 507 l 446 531 q 454 542 454 531 l 449 555 q 481 672 475 614 q 528 791 495 691 q 538 816 538 804 l 538 829 l 530 829 q 481 783 525 829 l 471 778 l 468 786 q 528 862 505 862 l 566 932 l 563 946 l 563 960 l 549 960 q 623 1112 549 989 q 666 1179 640 1122 l 785 1329 l 821 1369 q 905 1467 882 1447 q 978 1554 947 1497 q 1024 1611 1017 1586 q 1065 1640 1048 1611 q 1152 1700 1084 1659 l 1208 1760 q 1244 1782 1217 1760 q 1363 1858 1291 1791 q 1426 1906 1377 1876 l 1428 1923 l 1428 1928 l 1412 1928 q 1371 1895 1397 1895 q 1328 1855 1354 1855 l 1303 1863 l 1303 1860 q 1295 1849 1303 1849 l 1293 1852 q 1203 1801 1278 1852 q 1111 1744 1185 1801 q 1062 1706 1095 1744 q 970 1622 997 1674 l 967 1619 l 967 1616 l 997 1643 l 1008 1643 q 989 1605 1008 1633 l 975 1608 l 964 1608 q 878 1543 935 1608 q 804 1467 871 1543 q 777 1437 799 1467 q 753 1410 760 1430 q 723 1369 730 1390 l 707 1350 q 715 1345 715 1350 l 715 1342 l 696 1345 l 690 1334 q 707 1323 701 1334 q 579 1206 700 1308 l 552 1144 q 517 1095 528 1144 q 465 987 465 1019 q 454 960 458 987 q 446 935 450 960 q 435 930 435 935 l 435 927 q 444 922 444 927 q 419 886 419 922 q 408 859 412 886 q 392 819 399 859 q 373 696 381 819 q 359 566 363 696 q 354 542 356 566 l 359 501 l 359 490 l 351 458 q 365 341 362 458 q 370 279 369 341 l 359 262 q 346 271 346 266 l 362 300 q 346 309 346 303 q 327 555 333 555 l 327 564 l 338 577 l 332 585 l 335 610 l 330 615 l 340 650 l 338 675 l 338 686 q 357 745 338 701 l 351 764 l 389 903 l 449 1036 q 484 1122 479 1093 q 509 1171 490 1122 l 509 1177 l 506 1177 q 416 1144 473 1177 q 389 1136 389 1144 l 384 1122 l 392 1122 l 395 1125 l 397 1125 l 400 1122 l 400 1120 q 305 1068 393 1106 l 189 1019 q 180 1003 189 1005 l 175 1003 q 170 1014 170 1003 l 164 1014 q 23 987 108 995 q -15 965 -6 965 q -31 970 -31 967 q -47 960 -47 964 l -61 962 l -75 962 l -172 960 q -248 976 -233 965 l -259 973 q -365 1041 -365 1016 q -384 1046 -365 1046 l -403 1076 l -400 1079 l -397 1079 l -392 1074 l -381 1074 l -381 1076 l -395 1103 l -392 1114 l -395 1125 l -387 1128 l -387 1139 l -395 1149 l -395 1158 q -365 1185 -370 1185 l -302 1179 l -297 1185 q -275 1174 -297 1178 l -273 1174 l -273 1179 q -216 1133 -250 1179 l -216 1128 q -251 1087 -216 1107 q -267 1076 -251 1076 q -273 1068 -267 1068 l -294 1074 l -302 1057 q -256 1036 -281 1043 q -218 1017 -252 1027 l -213 1017 l -213 1019 q -56 1014 -163 1014 q 61 1033 -56 1022 q 99 1055 79 1038 l 137 1057 l 172 1057 q 178 1065 172 1065 l 191 1065 q 245 1098 191 1083 q 340 1128 264 1114 q 359 1149 359 1143 q 264 1166 350 1160 q 172 1193 197 1193 l 161 1209 l 161 1212 q 170 1217 161 1217 l 170 1228 l 142 1296 q 134 1329 138 1296 q 153 1418 145 1361 q 191 1483 182 1461 q 208 1502 198 1483 q 224 1537 218 1502 q 370 1619 307 1619 q 376 1627 370 1627 q 460 1613 431 1622 l 460 1608 l 463 1608 l 487 1611 q 506 1597 499 1597 l 506 1575 l 522 1559 l 522 1529 l 509 1510 q 530 1459 515 1459 l 533 1459 l 547 1470 q 552 1461 552 1470 q 503 1334 545 1409 l 490 1337 l 479 1337 q 395 1299 433 1299 l 384 1299 q 292 1348 313 1299 q 278 1429 283 1369 q 313 1494 278 1466 q 340 1524 313 1499 q 313 1535 313 1528 l 324 1537 l 324 1540 l 311 1540 q 270 1489 270 1516 l 270 1478 l 275 1470 l 275 1464 q 262 1456 275 1458 l 248 1464 q 221 1440 248 1447 l 221 1434 l 235 1421 q 213 1361 218 1362 l 205 1358 l 202 1372 l 197 1372 l 189 1364 l 189 1334 q 218 1326 189 1329 l 227 1315 l 227 1307 l 221 1296 l 218 1296 q 191 1307 211 1303 l 194 1320 l 194 1323 l 189 1323 l 189 1304 q 245 1231 206 1231 q 259 1225 245 1225 l 300 1231 l 302 1228 l 302 1220 l 297 1220 l 297 1217 l 305 1209 l 311 1209 q 403 1234 355 1209 q 430 1250 418 1250 l 438 1247 l 517 1310 l 522 1310 q 536 1285 536 1303 l 533 1282 l 517 1282 l 514 1272 q 555 1299 544 1272 q 669 1388 585 1299 l 655 1404 q 699 1440 679 1433 q 715 1456 699 1456 l 715 1478 q 739 1497 724 1478 q 761 1513 745 1497 q 774 1535 774 1513 q 810 1562 802 1541 q 842 1584 835 1584 l 864 1581 l 867 1584 l 867 1589 l 848 1589 l 845 1592 l 842 1592 q 864 1611 842 1609 q 869 1624 864 1624 l 880 1622 q 902 1638 881 1626 l 913 1635 q 948 1678 948 1655 q 1111 1801 983 1700 l 1236 1879 q 1295 1901 1268 1901 q 1377 1947 1295 1921 q 1469 1985 1435 1985 q 1596 2034 1555 2013 q 1637 2047 1611 2034 l 1662 2045 l 1664 2045 l 1683 2058 l 1691 2056 l 1710 2066 l 1718 2066 q 1724 2058 1724 2066 l 1743 2069 q 1765 2064 1765 2067 q 1930 2091 1828 2091 m 2060 1608 l 2063 1594 l 2055 1589 q 2044 1605 2050 1589 l 2039 1605 q 1995 1581 2022 1605 q 1946 1551 1981 1581 l 1935 1551 l 1935 1535 l 1938 1537 l 1944 1537 l 1944 1535 q 1884 1483 1944 1503 q 1792 1396 1850 1445 l 1743 1323 q 1699 1312 1724 1315 q 1681 1274 1699 1305 l 1689 1261 q 1667 1187 1683 1187 l 1664 1187 q 1651 1204 1664 1204 q 1613 1171 1629 1204 q 1588 1141 1588 1158 q 1607 1101 1588 1128 l 1607 1093 q 1583 1065 1583 1071 q 1615 1041 1596 1041 q 1640 1049 1630 1041 l 1686 1049 l 1686 1046 l 1672 1033 q 1681 1017 1675 1017 q 1699 1049 1689 1019 l 1702 1049 q 1724 1038 1712 1049 l 1727 1038 q 1765 1068 1736 1038 q 1824 1114 1824 1109 q 1832 1141 1828 1114 q 1857 1185 1839 1141 q 1881 1223 1872 1194 q 1917 1253 1901 1223 l 1990 1361 l 2022 1413 q 2039 1429 2022 1429 q 2063 1513 2051 1499 q 2077 1548 2063 1548 l 2077 1562 q 2066 1567 2066 1562 l 2066 1570 q 2077 1586 2066 1586 l 2074 1589 l 2074 1592 l 2082 1619 l 2082 1624 l 2060 1608 m 346 1554 l 340 1554 l 338 1546 q 346 1527 340 1527 q 384 1546 358 1527 q 373 1554 384 1554 l 370 1556 l 370 1559 l 378 1570 l 373 1570 q 346 1554 365 1554 m 425 1551 l 419 1543 l 425 1532 q 438 1548 435 1532 l 425 1551 m 422 1524 q 387 1489 416 1489 q 327 1437 342 1470 q 311 1421 327 1425 l 308 1418 l 308 1413 l 332 1410 l 332 1402 q 359 1377 332 1381 q 397 1358 377 1358 l 400 1358 l 411 1369 l 411 1383 l 416 1383 q 430 1372 416 1372 q 492 1453 492 1378 l 492 1459 l 471 1499 l 468 1508 l 460 1508 l 446 1494 l 441 1494 l 430 1505 l 433 1516 l 422 1524 z "}}}
